<?xml version="1.0" standalone="no"?>
<!DOCTYPE svg PUBLIC "-//W3C//DTD SVG 1.1//EN" "http://www.w3.org/Graphics/SVG/1.1/DTD/svg11.dtd" >
<svg xmlns="http://www.w3.org/2000/svg" xmlns:xlink="http://www.w3.org/1999/xlink" version="1.1">
<metadata></metadata>
<defs>
<font id="cocogoose_proregular" horiz-adv-x="2531" >
<font-face units-per-em="2048" ascent="1638" descent="-410" />
<missing-glyph horiz-adv-x="641" />
<glyph unicode="&#xfb01;" horiz-adv-x="1345" d="M226 41q0 -41 41 -41h214q39 0 40 41v882h403v-881q0 -42 40 -42h219q39 0 39 42v1101q0 36 -36 37h-665v83q0 54 5 95t20.5 68.5t43 41.5t70.5 14q29 0 42.5 11t13.5 37v180q0 26 -10.5 38.5t-46.5 12.5q-114 0 -195.5 -38.5t-134.5 -102.5t-78 -147t-25 -173v-120h-160 q-15 0 -26 -9t-11 -28v-183q0 -18 10.5 -27.5t26.5 -9.5h160v-882zM917 1522q0 -26 18.5 -45.5t43.5 -20.5l172 -1q45 0 63.5 21t18.5 64v127q0 43 -19 63t-63 20l-172 -1q-34 -1 -48 -26t-14 -57v-144z" />
<glyph unicode="&#xfb03;" horiz-adv-x="2082" d="M956 923v-882q0 -41 40 -41h215q39 0 39 41v882h399v-881q0 -42 41 -42h218q39 0 40 42v1101q0 36 -37 37h-661v83q0 54 5.5 95t21 68.5t42.5 41.5t71 14q29 0 42 11t13 37v180q0 26 -10 38.5t-46 12.5q-114 0 -196 -38.5t-134.5 -102.5t-77.5 -147t-25 -173v-120h-435 v83q0 54 5 95t20.5 68.5t43 41.5t70.5 14q29 0 42.5 11t13.5 37v180q0 26 -10.5 38.5t-46.5 12.5q-114 0 -195.5 -38.5t-134.5 -102.5t-78 -147t-25 -173v-120h-160q-15 0 -25.5 -9t-10.5 -28v-183q0 -18 10.5 -27.5t25.5 -9.5h160v-882q0 -41 41 -41h214q39 0 40 41v882 h435zM1643 1515q0 -26 18 -45.5t44 -20.5l171 -2q45 0 63.5 21t18.5 65v127q0 43 -19 63t-63 20l-171 -1q-34 -1 -48 -26t-14 -57v-144z" />
<glyph horiz-adv-x="0" />
<glyph horiz-adv-x="0" />
<glyph unicode="&#xd;" horiz-adv-x="641" />
<glyph unicode=" "  horiz-adv-x="641" />
<glyph unicode="&#x09;" horiz-adv-x="641" />
<glyph unicode="&#xa0;" horiz-adv-x="641" />
<glyph unicode="!" horiz-adv-x="628" d="M179 493.05q0 -18.999 11 -29.998q11 -11 31 -11h216q39 0 40 41.998v1150.93q0 41.9971 -40 41.9971h-216q-20 0 -31 -11.499t-11 -30.498v-1151.93zM172 44.0771q0 -12.999 4.5 -20.999q4.5 -7.99902 11 -12.499t14 -6t11.5 -1.5h230q5 0 12.5 1.5t14 5.5t11 12.499 q4.5 8.5 4.5 21.499v229.985q0 5 -1.5 12.5q-1.5 7.49902 -6 13.999q-4.5 6.49902 -12.5 10.999t-22 4.5h-230q-15 0 -28 -11q-13 -10.999 -13 -33.9971v-226.986z" />
<glyph unicode="&#x22;" horiz-adv-x="876" d="M131 1091q0 -16 5 -28t27 -12h157q17 0 25.5 8t8.5 29v390q0 16 -6.5 29.5t-30.5 13.5h-145q-41 0 -41 -43v-387zM509 1091q0 -16 4.5 -28t27.5 -12h157q17 0 25.5 8t8.5 29v390q0 16 -6.5 29.5t-31.5 13.5h-145q-41 0 -40 -43v-387z" />
<glyph unicode="#" horiz-adv-x="1197" d="M703 901l-58 -272h-174l58 272h174zM1062 1475q5 20 -7.5 33t-29.5 13h-145q-22 0 -36.5 -14t-18.5 -32l-71 -336h-174l71 336q5 20 -8.5 33t-31.5 13h-144q-21 0 -36 -14t-19 -32l-71 -336h-120q-47 0 -57 -45l-31 -145q-11 -48 37 -48h120l-57 -272h-121q-47 0 -57 -44 l-30 -144q-11 -50 36 -51h120l-73 -345q-10 -45 36 -45h144q49 0 59 45l73 345h174l-73 -345q-10 -45 36 -45h145q47 0 56 45l74 345h137q21 0 36.5 16.5t18.5 34.5l31 144q5 21 -6 32.5t-29 11.5h-137l58 272h136q21 0 36.5 15.5t19.5 32.5l31 145q4 21 -6.5 33t-28.5 12 h-137z" />
<glyph unicode="$" horiz-adv-x="1317" d="M128 233q80 -93 189.5 -156t233.5 -84v-154q0 -35 35 -35h156q34 0 35 35v148q106 12 194.5 49.5t153.5 97.5t102 142t37 183q0 108 -41.5 182.5t-112 127t-164 89t-196.5 67.5q-65 18 -118 34.5t-90 38.5t-57 50.5t-20 71.5q0 50 27 81t65.5 48.5t81.5 23.5t74 6 q42 0 80 -12.5t72 -31.5t64 -42t53 -44q12 -11 24.5 -18.5t24.5 -7.5q15 0 29 13l118 131q19 21 19 40t-18 39q-74 78 -179.5 131t-225.5 66v134q0 34 -34 34h-154q-33 0 -33 -34v-140q-93 -16 -166.5 -50.5t-125 -86t-79 -118.5t-27.5 -147q0 -87 31 -157t93 -127 t155.5 -102t218.5 -82q41 -11 93.5 -26.5t99 -40t78.5 -59t32 -83.5q0 -100 -64.5 -150t-199.5 -50q-59 0 -111 16t-98 41t-85.5 56.5t-71.5 62.5q-12 10 -22 16.5t-20 6.5q-15 0 -28 -12l-138 -135q-22 -21 -14.5 -40t24.5 -37z" />
<glyph unicode="%" horiz-adv-x="1941" d="M433 41q-7 -12 -3 -26t21 -15h174q13 0 23 3.5t21 23.5l779 1444q5 7 7.5 15.5t-0.5 16t-10.5 12.5t-21.5 5h-166q-21 0 -29 -8.5t-13 -17.5zM2418 1124v-586h-2404v586h911q0 30 5 59t20 53q12 29 26.5 52.5t36.5 41.5q38 42 92 62q27 12 54.5 17t56.5 5q33 0 61.5 -6 t53.5 -16q59 -29 94.5 -64.5t62.5 -95.5q19 -52 19 -108h911zM950 1124q0 -61 18.5 -103t56.5 -88q38 -37 87 -58.5t104 -21.5q53 0 102 19t85 59q21 19 35.5 40.5t25.5 43.5q21 54 22 109q0 46 -14.5 87.5t-44.5 77.5q-14 19 -29.5 32.5t-34.5 25.5q-18 7 -37.5 17.5 t-39.5 17.5l-32.5 6.5t-37.5 3.5q-59 0 -107 -25q-49 -17 -84 -57q-36 -36 -55.5 -85.5t-19.5 -100.5zM1081 967l315 318q62 -78 62 -161q0 -23 -3.5 -44.5t-11.5 -41.5q-14 -37 -41 -71h-321zM1034 960q-28 36 -43 76q-9 18 -12 40.5t-3 47.5q0 19 3 40t12 42q4 19 14 36 t25 33h319zM2135 239q3 -4 6 -10.5t5 -14.5q4 -7 4 -15v-30q0 -7 -4 -12q-2 -7 -5 -15t-6 -14q-4 -7 -16 -20l-12 -10t-13 -9q-5 -5 -12.5 -7.5l-13.5 -4.5q-9 -2 -14 -2h-17q-20 0 -43 6q-9 6 -16.5 12.5t-16.5 14.5q-9 6 -14.5 14t-7.5 21q-6 10 -8 20t-2 23q0 9 1 14.5 t1 13.5q3 7 6.5 14t7.5 11q2 9 6 13.5t10 10.5q3 4 10 8.5t13 10.5q4 2 11 4t13 6q11 0 17 1t12 1q10 0 17.5 -1t13.5 -1q6 -4 13 -6t13 -4q14 -11 25 -19q2 -6 8 -10.5t8 -13.5zM1075 239q2 -4 4 -10.5t6 -14.5q2 -11 2 -15v-30q0 -5 -2 -12q-3 -7 -5.5 -15t-4.5 -14 q-5 -4 -10 -10t-9 -10q-15 -15 -23 -19.5t-26 -11.5q-4 -1 -7.5 -1.5t-7.5 -0.5h-16q-10 0 -20 2t-23 4q-12 6 -19 12.5t-16 14.5q-16 15 -23 35.5t-7 42.5v13q0 4 2 15q5 18 12 25q4 9 8 13.5t8 10.5q7 4 12 8.5t11 10.5l29 10q4 0 11 1t15 1q9 0 16 -1t15 -1q6 -4 13 -6 l14 -4l22 -19q4 -6 9 -10.5t10 -13.5zM2373 292l1 1l44 1v-219h-37v160l-6 -10v-6q-9 -19 -15.5 -38.5t-15.5 -33.5q-6 -19 -12 -35.5t-14 -36.5h-37l-55 139q-5 3 -5 11l-4 6v-156h-41v219h39q5 0 7 -1t4 -1q2 -2 3 -2t3 -2l8 -4q0 -2 2 -4t2 -4q4 -17 11 -32t16 -34 q6 -16 12 -32.5t12 -30.5v-13l6 13l9 14l45 115l4 8l6 4q2 2 4 2t4 2zM1269 294h38v-219h-36l-100 147l-4 3v2q-5 10 -7.5 12t-5.5 2v-166h-39v219h35q4 0 8.5 -1t4.5 -3q3 -2 5.5 -2t4.5 -2l22 -33q5 -9 10 -17.5t11 -17.5q14 -14 24.5 -29.5t24.5 -29.5q0 -2 1 -5t1 -7 l2 -5v152zM612 294l94 -219h-25q-9 0 -16 4q-2 2 -4 7t-6 9l-13 27h-100l-10 -27q0 -6 -4 -6l-8 -10q-2 0 -3.5 -1t-5.5 -1l-30 -2l96 219h35zM200 294h139v-39h-100v-49h82v-41h-82v-51h100v-39h-139v219zM14 294h159v-24l-8 -15l-106 -143h2l2 2h108v-39h-165v14 q0 10 2 11q0 2 6 8v4l2 4l4 4t2 6l94 129h-102v39zM778 691q1 6 2.5 10.5t1.5 9.5q0 13 -4 23q0 5 -3.5 9t-5.5 10q-2 3 -5 6.5t-7 7.5l-7 6q-2 3 -9 9l-8 4q-2 1 -5 2l-6 2h-41q-11 -4 -18 -8q-4 -5 -8 -8t-8 -7q-12 -9 -13 -14q-4 -6 -5 -10t-3 -9q-1 -5 -1.5 -10.5 t-0.5 -12.5q0 -16 6.5 -29t16.5 -25q12 -15 26 -15q12 -6 29 -6h20q6 2 11 4t8 4q12 5 16 13q7 7 12 16q2 4 5.5 9t3.5 9zM1906 691v43q-2 5 -3.5 9.5t-4.5 9.5q-5 6 -15 14q-1 4 -5.5 7t-8.5 8q-2 1 -4.5 2t-5.5 2l-8 4h-41q-5 -2 -10.5 -4t-10.5 -4q-3 -5 -6.5 -8t-7.5 -7 q-3 -4 -6.5 -7t-5.5 -7q-2 -6 -5 -10t-3 -9q-5 -11 -5 -23q0 -5 2.5 -13.5t6.5 -14.5q5 -16 16 -26q9 -15 25 -15q12 -6 30 -6h21q3 2 8.5 4t9.5 4q4 3 8.5 6t5.5 7q10 5 15 16zM1779 235q-7 -7 -14 -25q-2 -4 -4 -10t-2 -14q0 -10 6 -27.5t14 -24.5q10 -10 23 -16 q13 -4 28 -4q5 0 10 1t11 1q3 2 8.5 5t9.5 7q2 0 8 2h13q2 0 8 -2q2 -1 8 -6l6 -8l-6 -8t-8 -8q-6 -3 -11 -6t-12 -7q-5 -3 -16.5 -6.5t-17.5 -3.5h-11q-12 0 -23.5 2t-21.5 4q-21 10 -35 27q-16 15 -22 35q-4 10 -7 20t-3 23q0 9 1 14.5t3 13.5q2 17 10 25l9 13.5t9 10.5 l25 19l27 10q5 0 12.5 1t15.5 1h13q4 0 16 -3t16 -5l23 -14q4 -4 7.5 -8.5t6.5 -8.5l-14 -16h-15q-7 0 -14 4q-3 2 -8.5 5t-9.5 5q-9 2 -11 2h-10q-16 0 -28 -6q-16 -2 -23 -14zM1640 165q5 -9 6 -20q0 -15 -8 -29l-8 -13q-3 -5 -9 -8q-6 -6 -11 -10t-13 -6q-5 -2 -14 -3 t-15 -1q-12 0 -33 4q-10 4 -22 19q-4 1 -6 5l-4 9q-6 2 -7 10l7 4l8 2l2 2h10q13 -3 14 -4q5 -4 9 -6t6 -4q2 0 6 -1t10 -1h5q9 2 13 3.5t7 4.5q2 2 4.5 4t3.5 4q2 4 4 7.5t2 7.5q0 6 -6 10q-4 6 -8 6q-2 4 -6.5 5t-7.5 3q-5 0 -13 6q-5 0 -9.5 1t-10.5 6q-10 3 -13.5 6.5 l-7.5 7.5q-12 4 -12 14q-6 12 -6 25q0 19 6 26q1 4 6 11l8 10q4 2 9.5 4t13.5 6q6 0 11 1t13 1q4 0 8.5 -1t10.5 -1l16 -6q3 -4 6.5 -7t7.5 -7q3 -2 7 -5.5t4 -7.5l-14 -8l-21 -4l-6 2q-3 1 -6 4q-2 0 -3.5 1t-4.5 1h-17q-2 0 -3 -1t-5 -3l-7 -6q-1 -3 -1 -10q3 -6 4.5 -9.5 t3.5 -7.5h6q9 -2 14 -5t11 -5l8 -2q5 -4 9.5 -5.5t10.5 -4.5q6 -2 16.5 -13.5t10.5 -17.5zM1519 368q-12 9 -16 20q-6 15 -7 31v16l11 19q2 2 4.5 6t7.5 8q6 9 12 10q3 5 9 6t10 3q4 0 8 2t10 2q4 0 10.5 -2t10.5 -2q4 -2 8 -3t8 -6l12 -10l13 -14q2 -4 4 -8.5t4 -10.5 q0 -4 1 -9t1 -7q0 -6 -1 -14t-5 -17q-4 -13 -17 -20q-4 -4 -9 -8t-13 -9q-11 -2 -27 -2h-15q-4 0 -11 2q-16 4 -23 17zM2105 159q5 13 6 27q0 16 -6 24q-3 14 -14 24.5t-25 14.5q-4 4 -11.5 5t-17.5 1q-11 0 -26 -6q-7 -1 -12 -4.5t-11 -9.5q-9 -6 -16 -25q0 -4 -1 -10 t-1 -14q0 -9 1 -15t1 -12q9 -17 16 -25q6 -4 11 -8t12 -8q7 -2 14.5 -3t11.5 -1q21 0 29 4q29 11 39 41zM2224 368q-6 -4 -12.5 -8t-12.5 -9q-9 -2 -13 -2h-29q-4 0 -13 2q-12 4 -23 17q-7 7 -14 20q-2 9 -4 17t-2 14q0 2 1 7t1 9q2 4 3 9.5t5 9.5q2 3 5 6.5t5 7.5 q7 5 17 10q3 5 8.5 6t7.5 3q5 0 8.5 2t11.5 2q2 0 7.5 -2t11.5 -2q4 -2 8 -3t6 -6q4 -2 9 -5t8 -5q1 -2 2 -3.5t2 -3.5l4 -7q6 -11 8 -19q2 -4 3 -9t1 -7q0 -6 -1 -14t-5 -17q0 -6 -6 -11zM1048 186q0 15 -4 24q-4 18 -19 25q-2 6 -8 9t-12 5q-11 6 -29 6q-14 0 -26 -6 q-11 -1 -23 -14q-9 -5 -14 -25q-5 -5 -6 -11v-28q0 -4 6 -12q5 -15 13.5 -24t23.5 -17q10 -4 26 -4q19 0 29 4q15 7 20 16q14 5 18.5 22t4.5 30zM714 294h139v-39h-100v-56h82v-38h-82v-86h-39v219zM511 255h-59v-180h-43v180h-63v39h165v-39zM1329 294h165v-39h-65v-180 h-39v180h-61v39zM1306 1347q17 -9 36 -21t36 -23h-324q36 30 74 44q39 18 88 18q47 0 90 -18zM1128 896q-19 7 -37 19t-35 26h322q-17 -14 -36 -26t-36 -19q-23 -6 -45.5 -11t-44.5 -5q-25 0 -46 5t-42 11zM499 636l-47 68q4 0 12 4q7 3 8 10q9 6 9 12v25q-6 15 -13 20 q-5 9 -14 9q-2 4 -7 5t-9 1h-56v-154h23v64h24l39 -56q1 -4 7 -6zM1109 636l-67 154h-21l-67 -154h12q7 0 10 2q0 2 6 6l11 27h77l11 -27q1 -4 6 -6q2 -2 8 -2h14zM1871 753q2 -2 6.5 -8t5.5 -11q4 -7 5 -23q0 -13 -5 -22q-1 -4 -6 -10l-6 -6q-5 -4 -9.5 -7t-8.5 -7 q-9 -4 -23 -4q-15 0 -22 4q-5 4 -10 7t-9 7q-3 2 -6.5 7t-3.5 9q-4 6 -5 11.5t-1 10.5q0 12 6 23q0 5 3 11t7 8q9 9 19.5 12.5t21.5 3.5q13 0 23 -4zM741 753q6 -2 9 -8t5 -11q4 -7 4 -23q0 -11 -4 -22q-2 -4 -5 -9t-9 -7q-5 -10 -17 -14t-22 -4q-11 0 -23 4q-4 4 -9 7t-9 7 q-2 2 -6 7t-6 9q-4 12 -4 22q0 21 9 32.5t25 21.5q5 2 12 3t11 1q14 0 22 -4q13 -5 17 -12zM235 722q5 13 6 19q0 10 -6 20q0 2 -4 6l-6 6q-2 3 -5.5 7t-9.5 4q-2 4 -8 5t-10 1h-53v-154h18v58h35q4 0 10 0.5t8 3.5q11 4 15 10q4 2 7 6t3 8zM2158 364h31l6 3q5 4 9.5 6 t8.5 5l3 6q3 6 6.5 11.5t3.5 9.5v34q-2 6 -6.5 10.5t-6.5 8.5q-6 2 -10 5t-8 7h-43q-6 -4 -10 -7t-9 -5q-7 -5 -12 -19q-2 -9 -2 -12v-22q0 -4 1 -9t5 -8l4 -4q3 -3 4 -6l6 -4q7 -5 11.5 -6.5t7.5 -3.5zM2066 790h-21v-119l-2.5 5t-3.5 5l-74 103l-4 6h-24v-154h22v121 l90 -121h17v154zM1519 439q-3 -6 -4.5 -12t-1.5 -8v-8q3 -15 8 -23q0 -2 2 -4t4 -6l6 -4q2 -2 9 -2q2 -4 6 -5t6 -3h28q5 2 8 3t7 5l10 6q2 4 5 6t3 4q2 3 3 8t3 9q0 2 1 6t1 8q0 2 -1 8t-5 12q0 6 -4 10.5t-6 8.5q-3 1 -8 6l-10 6h-43q-4 -4 -9.5 -7t-9.5 -5q-2 -3 -5 -8 t-3 -11zM937 790h-18v-119l-78 113q-4 0 -6 6h-25v-154h21v125h2l2 -2v-4l86 -119h16v154zM2054 413q-4 -1 -7.5 -2t-5.5 -2l45 -60h-12q-7 2 -8.5 3.5t-1.5 5.5l-39 51h-27v-60h-16v138h57q3 0 10 -2q2 -2 5.5 -4.5t4.5 -4.5q4 -2 5.5 -6t7.5 -8v-27q-4 -4 -5 -8t-3 -6z M1283 413q-3 -3 -12 -4l47 -60h-15q-10 3 -9 9l-39 51h-28v-60h-13v138h56q10 -2 14.5 -4.5t9.5 -6.5q0 -2 3 -6t3 -8l2 -20q-3 -17 -6 -21l-6 -4q-2 -2 -7 -4zM352 790h-97v-154h97v21h-74v47h59v18h-59v45h74v23zM1662 790h-94v-154h94v21h-71v47h59v18h-59v45h71v23z M2400 485l18 2v-138h-12v113l-2 -2v-2q-4 -7 -7 -17t-8 -14q-4 -7 -6 -13.5t-8 -14.5q-2 -9 -3 -15t-5 -10q-3 -9 -6.5 -13.5t-5.5 -11.5h-15q-10 13 -15 26t-11 28q-4 12 -11.5 26.5t-11.5 28.5v2h-4v-111h-14v138h14l8 -4v-5l49 -106l3 -2v4q0 1 8 6l40 98q2 5 3.5 5 t1.5 2zM1419 790h-21v-103q0 -3 -2 -8q-1 -7 -10 -12q0 -2 -4 -4t-6 -6l-9 -2h-8q-7 0 -14 2q-5 4 -8.5 6t-5.5 4l-11 12q0 3 -1 7.5t-1 11.5v92h-20v-92q0 -7 1.5 -17.5t6.5 -15.5q2 -6 10 -12q2 -3 4.5 -6t8.5 -5q2 -2 6 -3t8 -3q4 0 7 -1t9 -1q4 0 7.5 1t11.5 1q2 2 5 3 t7 3q9 6 12 11q3 2 5.5 5t5.5 7q0 4 3 7t3 7v111zM603 663q2 5 3.5 8.5t1.5 9.5q0 11 -5.5 19t-11.5 14q-2 0 -4 2t-6 4l-4 2h-4q-4 3 -6.5 3.5t-3.5 1.5q-7 2 -9 3.5t-6 3.5q-6 3 -9 3l-3 22q9 7 12 8l15 2q11 -3 12 -6l6 -2q10 0 14 4l4 2l-6 8q-2 1 -5 4t-7 5q-2 0 -4 2 t-6 4h-29q-5 -2 -7.5 -4t-6.5 -4q-2 -5 -6 -8t-7 -7q0 -4 -2 -7t-2 -9q0 -7 4 -17l5 -8l6 -4q2 -2 6 -5t7 -3l8 -5q2 -1 7 -1q1 -2 6 -2t7 -2l6 -2q5 -4 5.5 -5.5t2.5 -5.5l2 -16q-4 -5 -4 -7.5t-2 -4.5q-1 -3 -7 -5l-3 -1q-4 0 -8 -1t-5 -1q-5 0 -11.5 1.5t-6.5 6.5l-4 2 q-4 4 -12 4h-5l-10 -4l10 -18h3q7 -7 16.5 -9t19.5 -2h9q5 0 12 2q4 2 9 4t7 5q4 2 7.5 6t4.5 10zM1537 663q7 7 7 18t-4.5 19t-12.5 14q-6 5 -6 6h-4l-39 17l-6 6q0 1 -1 3.5t-1 4.5q0 4 4 8q5 4 6.5 6t5.5 2q2 2 10 2l3 -1q5 -2 8 -3l6 -2q6 -2 8 -2q7 0 8 4l6 2q0 2 -3 4 t-5 4q0 1 -3 4l-5 5q-3 0 -5.5 2t-6.5 4h-6l-5 1q-6 0 -10 -0.5t-8 -0.5l-14 -8l-11 -15q-1 -4 -3.5 -7t-2.5 -9q0 -4 2 -8t4 -9q2 -4 4.5 -7t4.5 -5q4 -2 7 -5t7 -3q9 -5 14 -6q4 -2 6.5 -2t6.5 -2q5 0 10.5 -3.5t5.5 -9.5l2 -15q-2 -7 -4 -9l-4 -4q-12 -9 -23 -8 q-2 0 -6 1t-6 1q-3 1 -8 6l-3 2q-4 4 -9 4h-7l-10 -4l8 -10v-2q7 -5 9 -6q6 -7 14 -9t18 -2h12q3 0 11 2q2 2 6 4t8 5l6 8q3 3 4 8zM1681 349h-17v138h19l82 -113v113h14v-138h-12l-82 113v4h-4v-117zM18 382q-4 4 -5.5 8t-2.5 9q-2 6 -3 10t-1 10t4 16q1 4 2.5 9.5t5.5 9.5 l9 14q2 2 6.5 5t6.5 5q5 5 10 6t9 3q3 0 8.5 2t11.5 2q16 0 27 -8q14 -4 22 -15l-5 -6h-13q-3 2 -6.5 5t-7.5 3h-37l-21 -12q-4 -3 -7.5 -7.5t-4.5 -11.5q-2 -6 -3 -12t-1 -8q0 -10 4 -14q0 -4 0.5 -9t0.5 -8l5 -4q5 -1 6 -6l8 -5q2 -1 7 -1q2 -4 5 -5t7 -3h33q2 2 7 3t9 5 v29h-14v2l-6 4h-3l-1 8h38v-51q-2 -5 -4 -6.5t-6 -6.5h-12q-9 -2 -12 -2h-35q-5 0 -19 9q-7 0 -13 10zM180 470v-43h55v-16h-55v-47h67v-15h-84v138h84v-17h-67zM1111 470v-43h60v-16h-60v-47h68v-15h-84v138h84v-17h-68zM2314 790h-19q-5 0 -9.5 -4t-4.5 -9l-37 -47h-4 l-39 47q-3 14 -16 13h-17l58 -76v-3l4 -3v-72h21v70l5 5v3zM2193 657h-68v133h-22v-154h90v21zM581 487v-84q0 -6 2 -9.5t6 -5.5q0 -6 3 -9.5t5 -4.5q0 -2 4.5 -4t6.5 -4q6 -2 8 -2h16q9 4 13 6l8 4q4 1 8 14q4 3 4 15v84h14v-84q0 -10 -3.5 -22t-12.5 -17q-5 -13 -16 -13 q-6 -1 -12 -1.5t-11 -0.5t-11 0.5t-14 1.5q-3 0 -16 13l-10 16q-1 6 -3.5 11.5t-2.5 11.5v84h14zM1210 657h-66v133h-20v-154h86v21zM1392 368q1 2 2 3.5t2 3.5q2 2 3 6.5t1 6.5q0 18 -16 23q-3 0 -13 4t-12 6q-10 0 -14 8q-2 0 -4 3l-4 6v23q0 1 2 7q0 9 8 10l6 5l4 2l4 2 q4 0 6.5 2t8.5 2l10 -4q3 0 4.5 -1t5.5 -3q6 0 6 -7q5 0 7 -3l1 -3l-2 -2q-6 -2 -10 -2h-6l-25 4q-9 0 -8 -2q-5 -7 -6 -8q-4 0 -4 -8q0 -5 4 -6q0 -4 4 -7l6 -4q4 -4 7.5 -4t7.5 -2l6 -2q3 0 8 -6h4l6 -2q5 -4 8 -7l5 -5q1 -5 1.5 -9.5t0.5 -9.5v-10q-5 -9 -7.5 -13 t-7.5 -7q-2 -2 -6 -4.5t-6 -2.5q-4 -2 -10 -2h-10q-10 0 -17.5 1t-13.5 8q-2 0 -3 3t-5 5v4l-2 2l4 2h6q1 0 3.5 -1t4.5 -1q4 -4 7 -5t5 -3h21q8 0 12 4zM1009 349l-59 138h5q11 0 15 -9l43 -104v-2h2l2 2q5 14 13 27.5t12 25.5q4 15 10 27l12 24q0 5 1.5 5t1.5 2l18 2 q-7 -17 -15 -34.5t-16 -33.5q-4 -9 -7.5 -18.5t-6.5 -18.5l-15 -33h-16zM472 470v-49h60v-12h-60v-60h-16v138h86v-17h-70zM1898 470v-49h55v-12h-55v-60h-16v138h83v-17h-67zM819 487v-123h63v-15h-80v138h17zM311 349v121h-47v17h106v-17h-47v-121h-12zM724 487v-123h64 v-15h-80v138h16zM210 761q2 -1 3 -4.5t3 -5.5q3 -4 3 -10v-4q0 -2 -3 -7q-2 -2 -3 -5t-3 -3q-1 -2 -3 -4t-5 -4h-45v53h35q4 0 10 -2zM1265 421q5 0 6 4q4 4 10 4l2 4q5 11 5 17q0 2 -1 3t-1 5q-3 2 -4 3t-1 5q-5 0 -10 4h-44v-49h38zM2041 425q4 4 8 4q5 7 5 9q2 4 2 12 q0 3 -2 8q0 1 -5 8q-3 0 -8 4h-43v-49h35q4 1 8 4zM458 734l-4 -8q-2 0 -3 -2t-3 -2q-2 -2 -10 -2h-33v47h33q3 0 10 -2l6 -4l2 -4l2 -4q3 -1 4 -10q-1 -6 -4 -9zM1464 487v-138h-17v138h17zM624 161l-29 74h-2l-30 -74h61zM1032 759v-4l28 -64h-59l29 64v6zM1695 114 q6 0 6 -6l2 -10q0 -7 -2 -9q0 -4 -6 -10l-24 -4q-4 4 -9 4q0 2 -6 10q-2 2 -2 9v4l8 12q7 4 9 4l15 4zM3400 367v-586h-2404v586h911q0 30 5 59t20 53q12 29 26.5 52.5t36.5 41.5q38 42 92 62q27 12 54.5 17t56.5 5q33 0 61.5 -6t53.5 -16q59 -29 94.5 -64.5t62.5 -95.5 q19 -52 19 -108h911zM1932 367q0 -61 18.5 -103t56.5 -88q38 -37 87 -58.5t104 -21.5q53 0 102 19t85 59q21 19 35.5 40.5t25.5 43.5q21 54 22 109q0 46 -14.5 87.5t-44.5 77.5q-14 19 -29.5 32.5t-34.5 25.5q-18 7 -37.5 17.5t-39.5 17.5l-32.5 6.5t-37.5 3.5 q-59 0 -107 -25q-49 -17 -84 -57q-36 -36 -55.5 -85.5t-19.5 -100.5zM2063 210l315 318q62 -78 62 -161q0 -23 -3.5 -44.5t-11.5 -41.5q-14 -37 -41 -71h-321zM2016 203q-28 36 -43 76q-9 18 -12 40.5t-3 47.5q0 19 3 40t12 42q4 19 14 36t25 33h319zM3117 -518 q3 -4 6 -10.5t5 -14.5q4 -7 4 -15v-30q0 -7 -4 -12q-2 -7 -5 -15t-6 -14q-4 -7 -16 -20l-12 -10t-13 -9q-5 -5 -12.5 -7.5l-13.5 -4.5q-9 -2 -14 -2h-17q-20 0 -43 6q-9 6 -16.5 12.5t-16.5 14.5q-9 6 -14.5 14t-7.5 21q-6 10 -8 20t-2 23q0 9 1 14.5t1 13.5q3 7 6.5 14 t7.5 11q2 9 6 13.5t10 10.5q3 4 10 8.5t13 10.5q4 2 11 4t13 6q11 0 17 1t12 1q10 0 17.5 -1t13.5 -1q6 -4 13 -6t13 -4q14 -11 25 -19q2 -6 8 -10.5t8 -13.5zM2057 -518q2 -4 4 -10.5t6 -14.5q2 -11 2 -15v-30q0 -5 -2 -12q-3 -7 -5.5 -15t-4.5 -14q-5 -4 -10 -10t-9 -10 q-15 -15 -23 -19.5t-26 -11.5q-4 -1 -7.5 -1.5t-7.5 -0.5h-16q-10 0 -20 2t-23 4q-12 6 -19 12.5t-16 14.5q-16 15 -23 35.5t-7 42.5v13q0 4 2 15q5 18 12 25q4 9 8 13.5t8 10.5q7 4 12 8.5t11 10.5l29 10q4 0 11 1t15 1q9 0 16 -1t15 -1q6 -4 13 -6l14 -4l22 -19 q4 -6 9 -10.5t10 -13.5zM3355 -465l1 1l44 1v-219h-37v160l-6 -10v-6q-9 -19 -15.5 -38.5t-15.5 -33.5q-6 -19 -12 -35.5t-14 -36.5h-37l-55 139q-5 3 -5 11l-4 6v-156h-41v219h39q5 0 7 -1t4 -1q2 -2 3 -2t3 -2l8 -4q0 -2 2 -4t2 -4q4 -17 11 -32t16 -34q6 -16 12 -32.5 t12 -30.5v-13l6 13l9 14l45 115l4 8l6 4q2 2 4 2t4 2zM2251 -463h38v-219h-36l-100 147l-4 3v2q-5 10 -7.5 12t-5.5 2v-166h-39v219h35q4 0 8.5 -1t4.5 -3q3 -2 5.5 -2t4.5 -2l22 -33q5 -9 10 -17.5t11 -17.5q14 -14 24.5 -29.5t24.5 -29.5q0 -2 1 -5t1 -7l2 -5v152z M1594 -463l94 -219h-25q-9 0 -16 4q-2 2 -4 7t-6 9l-13 27h-100l-10 -27q0 -6 -4 -6l-8 -10q-2 0 -3.5 -1t-5.5 -1l-30 -2l96 219h35zM1182 -463h139v-39h-100v-49h82v-41h-82v-51h100v-39h-139v219zM996 -463h159v-24l-8 -15l-106 -143h2l2 2h108v-39h-165v14q0 10 2 11 q0 2 6 8v4l2 4l4 4t2 6l94 129h-102v39zM1760 -66q1 6 2.5 10.5t1.5 9.5q0 13 -4 23q0 5 -3.5 9t-5.5 10q-2 3 -5 6.5t-7 7.5l-7 6q-2 3 -9 9l-8 4q-2 1 -5 2l-6 2h-41q-11 -4 -18 -8q-4 -5 -8 -8t-8 -7q-12 -9 -13 -14q-4 -6 -5 -10t-3 -9q-1 -5 -1.5 -10.5t-0.5 -12.5 q0 -16 6.5 -29t16.5 -25q12 -15 26 -15q12 -6 29 -6h20q6 2 11 4t8 4q12 5 16 13q7 7 12 16q2 4 5.5 9t3.5 9zM2888 -66v43q-2 5 -3.5 9.5t-4.5 9.5q-5 6 -15 14q-1 4 -5.5 7t-8.5 8q-2 1 -4.5 2t-5.5 2l-8 4h-41q-5 -2 -10.5 -4t-10.5 -4q-3 -5 -6.5 -8t-7.5 -7 q-3 -4 -6.5 -7t-5.5 -7q-2 -6 -5 -10t-3 -9q-5 -11 -5 -23q0 -5 2.5 -13.5t6.5 -14.5q5 -16 16 -26q9 -15 25 -15q12 -6 30 -6h21q3 2 8.5 4t9.5 4q4 3 8.5 6t5.5 7q10 5 15 16zM2761 -522q-7 -7 -14 -25q-2 -4 -4 -10t-2 -14q0 -10 6 -27.5t14 -24.5q10 -10 23 -16 q13 -4 28 -4q5 0 10 1t11 1q3 2 8.5 5t9.5 7q2 0 8 2h13q2 0 8 -2q2 -1 8 -6l6 -8l-6 -8t-8 -8q-6 -3 -11 -6t-12 -7q-5 -3 -16.5 -6.5t-17.5 -3.5h-11q-12 0 -23.5 2t-21.5 4q-21 10 -35 27q-16 15 -22 35q-4 10 -7 20t-3 23q0 9 1 14.5t3 13.5q2 17 10 25l9 13.5t9 10.5 l25 19l27 10q5 0 12.5 1t15.5 1h13q4 0 16 -3t16 -5l23 -14q4 -4 7.5 -8.5t6.5 -8.5l-14 -16h-15q-7 0 -14 4q-3 2 -8.5 5t-9.5 5q-9 2 -11 2h-10q-16 0 -28 -6q-16 -2 -23 -14zM2622 -592q5 -9 6 -20q0 -15 -8 -29l-8 -13q-3 -5 -9 -8q-6 -6 -11 -10t-13 -6q-5 -2 -14 -3 t-15 -1q-12 0 -33 4q-10 4 -22 19q-4 1 -6 5l-4 9q-6 2 -7 10l7 4l8 2l2 2h10q13 -3 14 -4q5 -4 9 -6t6 -4q2 0 6 -1t10 -1h5q9 2 13 3.5t7 4.5q2 2 4.5 4t3.5 4q2 4 4 7.5t2 7.5q0 6 -6 10q-4 6 -8 6q-2 4 -6.5 5t-7.5 3q-5 0 -13 6q-5 0 -9.5 1t-10.5 6q-10 3 -13.5 6.5 l-7.5 7.5q-12 4 -12 14q-6 12 -6 25q0 19 6 26q1 4 6 11l8 10q4 2 9.5 4t13.5 6q6 0 11 1t13 1q4 0 8.5 -1t10.5 -1l16 -6q3 -4 6.5 -7t7.5 -7q3 -2 7 -5.5t4 -7.5l-14 -8l-21 -4l-6 2q-3 1 -6 4q-2 0 -3.5 1t-4.5 1h-17q-2 0 -3 -1t-5 -3l-7 -6q-1 -3 -1 -10q3 -6 4.5 -9.5 t3.5 -7.5h6q9 -2 14 -5t11 -5l8 -2q5 -4 9.5 -5.5t10.5 -4.5q6 -2 16.5 -13.5t10.5 -17.5zM2501 -389q-12 9 -16 20q-6 15 -7 31v16l11 19q2 2 4.5 6t7.5 8q6 9 12 10q3 5 9 6t10 3q4 0 8 2t10 2q4 0 10.5 -2t10.5 -2q4 -2 8 -3t8 -6l12 -10l13 -14q2 -4 4 -8.5t4 -10.5 q0 -4 1 -9t1 -7q0 -6 -1 -14t-5 -17q-4 -13 -17 -20q-4 -4 -9 -8t-13 -9q-11 -2 -27 -2h-15q-4 0 -11 2q-16 4 -23 17zM3087 -598q5 13 6 27q0 16 -6 24q-3 14 -14 24.5t-25 14.5q-4 4 -11.5 5t-17.5 1q-11 0 -26 -6q-7 -1 -12 -4.5t-11 -9.5q-9 -6 -16 -25q0 -4 -1 -10 t-1 -14q0 -9 1 -15t1 -12q9 -17 16 -25q6 -4 11 -8t12 -8q7 -2 14.5 -3t11.5 -1q21 0 29 4q29 11 39 41zM3206 -389q-6 -4 -12.5 -8t-12.5 -9q-9 -2 -13 -2h-29q-4 0 -13 2q-12 4 -23 17q-7 7 -14 20q-2 9 -4 17t-2 14q0 2 1 7t1 9q2 4 3 9.5t5 9.5q2 3 5 6.5t5 7.5 q7 5 17 10q3 5 8.5 6t7.5 3q5 0 8.5 2t11.5 2q2 0 7.5 -2t11.5 -2q4 -2 8 -3t6 -6q4 -2 9 -5t8 -5q1 -2 2 -3.5t2 -3.5l4 -7q6 -11 8 -19q2 -4 3 -9t1 -7q0 -6 -1 -14t-5 -17q0 -6 -6 -11zM2030 -571q0 15 -4 24q-4 18 -19 25q-2 6 -8 9t-12 5q-11 6 -29 6q-14 0 -26 -6 q-11 -1 -23 -14q-9 -5 -14 -25q-5 -5 -6 -11v-28q0 -4 6 -12q5 -15 13.5 -24t23.5 -17q10 -4 26 -4q19 0 29 4q15 7 20 16q14 5 18.5 22t4.5 30zM1696 -463h139v-39h-100v-56h82v-38h-82v-86h-39v219zM1493 -502h-59v-180h-43v180h-63v39h165v-39zM2311 -463h165v-39h-65 v-180h-39v180h-61v39zM2288 590q17 -9 36 -21t36 -23h-324q36 30 74 44q39 18 88 18q47 0 90 -18zM2110 139q-19 7 -37 19t-35 26h322q-17 -14 -36 -26t-36 -19q-23 -6 -45.5 -11t-44.5 -5q-25 0 -46 5t-42 11zM1481 -121l-47 68q4 0 12 4q7 3 8 10q9 6 9 12v25 q-6 15 -13 20q-5 9 -14 9q-2 4 -7 5t-9 1h-56v-154h23v64h24l39 -56q1 -4 7 -6zM2091 -121l-67 154h-21l-67 -154h12q7 0 10 2q0 2 6 6l11 27h77l11 -27q1 -4 6 -6q2 -2 8 -2h14zM2853 -4q2 -2 6.5 -8t5.5 -11q4 -7 5 -23q0 -13 -5 -22q-1 -4 -6 -10l-6 -6q-5 -4 -9.5 -7 t-8.5 -7q-9 -4 -23 -4q-15 0 -22 4q-5 4 -10 7t-9 7q-3 2 -6.5 7t-3.5 9q-4 6 -5 11.5t-1 10.5q0 12 6 23q0 5 3 11t7 8q9 9 19.5 12.5t21.5 3.5q13 0 23 -4zM1723 -4q6 -2 9 -8t5 -11q4 -7 4 -23q0 -11 -4 -22q-2 -4 -5 -9t-9 -7q-5 -10 -17 -14t-22 -4q-11 0 -23 4 q-4 4 -9 7t-9 7q-2 2 -6 7t-6 9q-4 12 -4 22q0 21 9 32.5t25 21.5q5 2 12 3t11 1q14 0 22 -4q13 -5 17 -12zM1217 -35q5 13 6 19q0 10 -6 20q0 2 -4 6l-6 6q-2 3 -5.5 7t-9.5 4q-2 4 -8 5t-10 1h-53v-154h18v58h35q4 0 10 0.5t8 3.5q11 4 15 10q4 2 7 6t3 8zM3140 -393h31 l6 3q5 4 9.5 6t8.5 5l3 6q3 6 6.5 11.5t3.5 9.5v34q-2 6 -6.5 10.5t-6.5 8.5q-6 2 -10 5t-8 7h-43q-6 -4 -10 -7t-9 -5q-7 -5 -12 -19q-2 -9 -2 -12v-22q0 -4 1 -9t5 -8l4 -4q3 -3 4 -6l6 -4q7 -5 11.5 -6.5t7.5 -3.5zM3048 33h-21v-119l-2.5 5t-3.5 5l-74 103l-4 6h-24 v-154h22v121l90 -121h17v154zM2501 -318q-3 -6 -4.5 -12t-1.5 -8v-8q3 -15 8 -23q0 -2 2 -4t4 -6l6 -4q2 -2 9 -2q2 -4 6 -5t6 -3h28q5 2 8 3t7 5l10 6q2 4 5 6t3 4q2 3 3 8t3 9q0 2 1 6t1 8q0 2 -1 8t-5 12q0 6 -4 10.5t-6 8.5q-3 1 -8 6l-10 6h-43q-4 -4 -9.5 -7t-9.5 -5 q-2 -3 -5 -8t-3 -11zM1919 33h-18v-119l-78 113q-4 0 -6 6h-25v-154h21v125h2l2 -2v-4l86 -119h16v154zM3036 -344q-4 -1 -7.5 -2t-5.5 -2l45 -60h-12q-7 2 -8.5 3.5t-1.5 5.5l-39 51h-27v-60h-16v138h57q3 0 10 -2q2 -2 5.5 -4.5t4.5 -4.5q4 -2 5.5 -6t7.5 -8v-27 q-4 -4 -5 -8t-3 -6zM2265 -344q-3 -3 -12 -4l47 -60h-15q-10 3 -9 9l-39 51h-28v-60h-13v138h56q10 -2 14.5 -4.5t9.5 -6.5q0 -2 3 -6t3 -8l2 -20q-3 -17 -6 -21l-6 -4q-2 -2 -7 -4zM1334 33h-97v-154h97v21h-74v47h59v18h-59v45h74v23zM2644 33h-94v-154h94v21h-71v47h59 v18h-59v45h71v23zM3382 -272l18 2v-138h-12v113l-2 -2v-2q-4 -7 -7 -17t-8 -14q-4 -7 -6 -13.5t-8 -14.5q-2 -9 -3 -15t-5 -10q-3 -9 -6.5 -13.5t-5.5 -11.5h-15q-10 13 -15 26t-11 28q-4 12 -11.5 26.5t-11.5 28.5v2h-4v-111h-14v138h14l8 -4v-5l49 -106l3 -2v4q0 1 8 6 l40 98q2 5 3.5 5t1.5 2zM2401 33h-21v-103q0 -3 -2 -8q-1 -7 -10 -12q0 -2 -4 -4t-6 -6l-9 -2h-8q-7 0 -14 2q-5 4 -8.5 6t-5.5 4l-11 12q0 3 -1 7.5t-1 11.5v92h-20v-92q0 -7 1.5 -17.5t6.5 -15.5q2 -6 10 -12q2 -3 4.5 -6t8.5 -5q2 -2 6 -3t8 -3q4 0 7 -1t9 -1q4 0 7.5 1 t11.5 1q2 2 5 3t7 3q9 6 12 11q3 2 5.5 5t5.5 7q0 4 3 7t3 7v111zM1585 -94q2 5 3.5 8.5t1.5 9.5q0 11 -5.5 19t-11.5 14q-2 0 -4 2t-6 4l-4 2h-4q-4 3 -6.5 3.5t-3.5 1.5q-7 2 -9 3.5t-6 3.5q-6 3 -9 3l-3 22q9 7 12 8l15 2q11 -3 12 -6l6 -2q10 0 14 4l4 2l-6 8q-2 1 -5 4 t-7 5q-2 0 -4 2t-6 4h-29q-5 -2 -7.5 -4t-6.5 -4q-2 -5 -6 -8t-7 -7q0 -4 -2 -7t-2 -9q0 -7 4 -17l5 -8l6 -4q2 -2 6 -5t7 -3l8 -5q2 -1 7 -1q1 -2 6 -2t7 -2l6 -2q5 -4 5.5 -5.5t2.5 -5.5l2 -16q-4 -5 -4 -7.5t-2 -4.5q-1 -3 -7 -5l-3 -1q-4 0 -8 -1t-5 -1q-5 0 -11.5 1.5 t-6.5 6.5l-4 2q-4 4 -12 4h-5l-10 -4l10 -18h3q7 -7 16.5 -9t19.5 -2h9q5 0 12 2q4 2 9 4t7 5q4 2 7.5 6t4.5 10zM2519 -94q7 7 7 18t-4.5 19t-12.5 14q-6 5 -6 6h-4l-39 17l-6 6q0 1 -1 3.5t-1 4.5q0 4 4 8q5 4 6.5 6t5.5 2q2 2 10 2l3 -1q5 -2 8 -3l6 -2q6 -2 8 -2 q7 0 8 4l6 2q0 2 -3 4t-5 4q0 1 -3 4l-5 5q-3 0 -5.5 2t-6.5 4h-6l-5 1q-6 0 -10 -0.5t-8 -0.5l-14 -8l-11 -15q-1 -4 -3.5 -7t-2.5 -9q0 -4 2 -8t4 -9q2 -4 4.5 -7t4.5 -5q4 -2 7 -5t7 -3q9 -5 14 -6q4 -2 6.5 -2t6.5 -2q5 0 10.5 -3.5t5.5 -9.5l2 -15q-2 -7 -4 -9l-4 -4 q-12 -9 -23 -8q-2 0 -6 1t-6 1q-3 1 -8 6l-3 2q-4 4 -9 4h-7l-10 -4l8 -10v-2q7 -5 9 -6q6 -7 14 -9t18 -2h12q3 0 11 2q2 2 6 4t8 5l6 8q3 3 4 8zM2663 -408h-17v138h19l82 -113v113h14v-138h-12l-82 113v4h-4v-117zM1000 -375q-4 4 -5.5 8t-2.5 9q-2 6 -3 10t-1 10t4 16 q1 4 2.5 9.5t5.5 9.5l9 14q2 2 6.5 5t6.5 5q5 5 10 6t9 3q3 0 8.5 2t11.5 2q16 0 27 -8q14 -4 22 -15l-5 -6h-13q-3 2 -6.5 5t-7.5 3h-37l-21 -12q-4 -3 -7.5 -7.5t-4.5 -11.5q-2 -6 -3 -12t-1 -8q0 -10 4 -14q0 -4 0.5 -9t0.5 -8l5 -4q5 -1 6 -6l8 -5q2 -1 7 -1q2 -4 5 -5 t7 -3h33q2 2 7 3t9 5v29h-14v2l-6 4h-3l-1 8h38v-51q-2 -5 -4 -6.5t-6 -6.5h-12q-9 -2 -12 -2h-35q-5 0 -19 9q-7 0 -13 10zM1162 -287v-43h55v-16h-55v-47h67v-15h-84v138h84v-17h-67zM2093 -287v-43h60v-16h-60v-47h68v-15h-84v138h84v-17h-68zM3296 33h-19q-5 0 -9.5 -4 t-4.5 -9l-37 -47h-4l-39 47q-3 14 -16 13h-17l58 -76v-3l4 -3v-72h21v70l5 5v3zM3175 -100h-68v133h-22v-154h90v21zM1563 -270v-84q0 -6 2 -9.5t6 -5.5q0 -6 3 -9.5t5 -4.5q0 -2 4.5 -4t6.5 -4q6 -2 8 -2h16q9 4 13 6l8 4q4 1 8 14q4 3 4 15v84h14v-84q0 -10 -3.5 -22 t-12.5 -17q-5 -13 -16 -13q-6 -1 -12 -1.5t-11 -0.5t-11 0.5t-14 1.5q-3 0 -16 13l-10 16q-1 6 -3.5 11.5t-2.5 11.5v84h14zM2192 -100h-66v133h-20v-154h86v21zM2374 -389q1 2 2 3.5t2 3.5q2 2 3 6.5t1 6.5q0 18 -16 23q-3 0 -13 4t-12 6q-10 0 -14 8q-2 0 -4 3l-4 6v23 q0 1 2 7q0 9 8 10l6 5l4 2l4 2q4 0 6.5 2t8.5 2l10 -4q3 0 4.5 -1t5.5 -3q6 0 6 -7q5 0 7 -3l1 -3l-2 -2q-6 -2 -10 -2h-6l-25 4q-9 0 -8 -2q-5 -7 -6 -8q-4 0 -4 -8q0 -5 4 -6q0 -4 4 -7l6 -4q4 -4 7.5 -4t7.5 -2l6 -2q3 0 8 -6h4l6 -2q5 -4 8 -7l5 -5q1 -5 1.5 -9.5 t0.5 -9.5v-10q-5 -9 -7.5 -13t-7.5 -7q-2 -2 -6 -4.5t-6 -2.5q-4 -2 -10 -2h-10q-10 0 -17.5 1t-13.5 8q-2 0 -3 3t-5 5v4l-2 2l4 2h6q1 0 3.5 -1t4.5 -1q4 -4 7 -5t5 -3h21q8 0 12 4zM1991 -408l-59 138h5q11 0 15 -9l43 -104v-2h2l2 2q5 14 13 27.5t12 25.5q4 15 10 27 l12 24q0 5 1.5 5t1.5 2l18 2q-7 -17 -15 -34.5t-16 -33.5q-4 -9 -7.5 -18.5t-6.5 -18.5l-15 -33h-16zM1454 -287v-49h60v-12h-60v-60h-16v138h86v-17h-70zM2880 -287v-49h55v-12h-55v-60h-16v138h83v-17h-67zM1801 -270v-123h63v-15h-80v138h17zM1293 -408v121h-47v17h106 v-17h-47v-121h-12zM1706 -270v-123h64v-15h-80v138h16zM1192 4q2 -1 3 -4.5t3 -5.5q3 -4 3 -10v-4q0 -2 -3 -7q-2 -2 -3 -5t-3 -3q-1 -2 -3 -4t-5 -4h-45v53h35q4 0 10 -2zM2247 -336q5 0 6 4q4 4 10 4l2 4q5 11 5 17q0 2 -1 3t-1 5q-3 2 -4 3t-1 5q-5 0 -10 4h-44v-49h38z M3023 -332q4 4 8 4q5 7 5 9q2 4 2 12q0 3 -2 8q0 1 -5 8q-3 0 -8 4h-43v-49h35q4 1 8 4zM1440 -23l-4 -8q-2 0 -3 -2t-3 -2q-2 -2 -10 -2h-33v47h33q3 0 10 -2l6 -4l2 -4l2 -4q3 -1 4 -10q-1 -6 -4 -9zM2446 -270v-138h-17v138h17zM1606 -596l-29 74h-2l-30 -74h61zM2014 2 v-4l28 -64h-59l29 64v6zM2677 -643q6 0 6 -6l2 -10q0 -7 -2 -9q0 -4 -6 -10l-24 -4q-4 4 -9 4q0 2 -6 10q-2 2 -2 9v4l8 12q7 4 9 4l15 4z" />
<glyph unicode="&#x26;" d="M2478 1092v-586h-2404v586h911q0 30 5 59t20 53q12 29 26.5 52.5t36.5 41.5q38 42 92 62q27 12 54.5 17t56.5 5q33 0 61.5 -6t53.5 -16q59 -29 94.5 -64.5t62.5 -95.5q19 -52 19 -108h911zM1010 1092q0 -61 18.5 -103t56.5 -88q38 -37 87 -58.5t104 -21.5q53 0 102 19 t85 59q21 19 35.5 40.5t25.5 43.5q21 54 22 109q0 46 -14.5 87.5t-44.5 77.5q-14 19 -29.5 32.5t-34.5 25.5q-18 7 -37.5 17.5t-39.5 17.5l-32.5 6.5t-37.5 3.5q-59 0 -107 -25q-49 -17 -84 -57q-36 -36 -55.5 -85.5t-19.5 -100.5zM1141 935l315 318q62 -78 62 -161 q0 -23 -3.5 -44.5t-11.5 -41.5q-14 -37 -41 -71h-321zM1094 928q-28 36 -43 76q-9 18 -12 40.5t-3 47.5q0 19 3 40t12 42q4 19 14 36t25 33h319zM2195 207q3 -4 6 -10.5t5 -14.5q4 -7 4 -15v-30q0 -7 -4 -12q-2 -7 -5 -15t-6 -14q-4 -7 -16 -20l-12 -10t-13 -9 q-5 -5 -12.5 -7.5l-13.5 -4.5q-9 -2 -14 -2h-17q-20 0 -43 6q-9 6 -16.5 12.5t-16.5 14.5q-9 6 -14.5 14t-7.5 21q-6 10 -8 20t-2 23q0 9 1 14.5t1 13.5q3 7 6.5 14t7.5 11q2 9 6 13.5t10 10.5q3 4 10 8.5t13 10.5q4 2 11 4t13 6q11 0 17 1t12 1q10 0 17.5 -1t13.5 -1 q6 -4 13 -6t13 -4q14 -11 25 -19q2 -6 8 -10.5t8 -13.5zM1135 207q2 -4 4 -10.5t6 -14.5q2 -11 2 -15v-30q0 -5 -2 -12q-3 -7 -5.5 -15t-4.5 -14q-5 -4 -10 -10t-9 -10q-15 -15 -23 -19.5t-26 -11.5q-4 -1 -7.5 -1.5t-7.5 -0.5h-16q-10 0 -20 2t-23 4q-12 6 -19 12.5 t-16 14.5q-16 15 -23 35.5t-7 42.5v13q0 4 2 15q5 18 12 25q4 9 8 13.5t8 10.5q7 4 12 8.5t11 10.5l29 10q4 0 11 1t15 1q9 0 16 -1t15 -1q6 -4 13 -6l14 -4l22 -19q4 -6 9 -10.5t10 -13.5zM2433 260l1 1l44 1v-219h-37v160l-6 -10v-6q-9 -19 -15.5 -38.5t-15.5 -33.5 q-6 -19 -12 -35.5t-14 -36.5h-37l-55 139q-5 3 -5 11l-4 6v-156h-41v219h39q5 0 7 -1t4 -1q2 -2 3 -2t3 -2l8 -4q0 -2 2 -4t2 -4q4 -17 11 -32t16 -34q6 -16 12 -32.5t12 -30.5v-13l6 13l9 14l45 115l4 8l6 4q2 2 4 2t4 2zM1329 262h38v-219h-36l-100 147l-4 3v2 q-5 10 -7.5 12t-5.5 2v-166h-39v219h35q4 0 8.5 -1t4.5 -3q3 -2 5.5 -2t4.5 -2l22 -33q5 -9 10 -17.5t11 -17.5q14 -14 24.5 -29.5t24.5 -29.5q0 -2 1 -5t1 -7l2 -5v152zM672 262l94 -219h-25q-9 0 -16 4q-2 2 -4 7t-6 9l-13 27h-100l-10 -27q0 -6 -4 -6l-8 -10 q-2 0 -3.5 -1t-5.5 -1l-30 -2l96 219h35zM260 262h139v-39h-100v-49h82v-41h-82v-51h100v-39h-139v219zM74 262h159v-24l-8 -15l-106 -143h2l2 2h108v-39h-165v14q0 10 2 11q0 2 6 8v4l2 4l4 4t2 6l94 129h-102v39zM838 659q1 6 2.5 10.5t1.5 9.5q0 13 -4 23q0 5 -3.5 9 t-5.5 10q-2 3 -5 6.5t-7 7.5l-7 6q-2 3 -9 9l-8 4q-2 1 -5 2l-6 2h-41q-11 -4 -18 -8q-4 -5 -8 -8t-8 -7q-12 -9 -13 -14q-4 -6 -5 -10t-3 -9q-1 -5 -1.5 -10.5t-0.5 -12.5q0 -16 6.5 -29t16.5 -25q12 -15 26 -15q12 -6 29 -6h20q6 2 11 4t8 4q12 5 16 13q7 7 12 16 q2 4 5.5 9t3.5 9zM1966 659v43q-2 5 -3.5 9.5t-4.5 9.5q-5 6 -15 14q-1 4 -5.5 7t-8.5 8q-2 1 -4.5 2t-5.5 2l-8 4h-41q-5 -2 -10.5 -4t-10.5 -4q-3 -5 -6.5 -8t-7.5 -7q-3 -4 -6.5 -7t-5.5 -7q-2 -6 -5 -10t-3 -9q-5 -11 -5 -23q0 -5 2.5 -13.5t6.5 -14.5q5 -16 16 -26 q9 -15 25 -15q12 -6 30 -6h21q3 2 8.5 4t9.5 4q4 3 8.5 6t5.5 7q10 5 15 16zM1839 203q-7 -7 -14 -25q-2 -4 -4 -10t-2 -14q0 -10 6 -27.5t14 -24.5q10 -10 23 -16q13 -4 28 -4q5 0 10 1t11 1q3 2 8.5 5t9.5 7q2 0 8 2h13q2 0 8 -2q2 -1 8 -6l6 -8l-6 -8t-8 -8q-6 -3 -11 -6 t-12 -7q-5 -3 -16.5 -6.5t-17.5 -3.5h-11q-12 0 -23.5 2t-21.5 4q-21 10 -35 27q-16 15 -22 35q-4 10 -7 20t-3 23q0 9 1 14.5t3 13.5q2 17 10 25l9 13.5t9 10.5l25 19l27 10q5 0 12.5 1t15.5 1h13q4 0 16 -3t16 -5l23 -14q4 -4 7.5 -8.5t6.5 -8.5l-14 -16h-15q-7 0 -14 4 q-3 2 -8.5 5t-9.5 5q-9 2 -11 2h-10q-16 0 -28 -6q-16 -2 -23 -14zM1700 133q5 -9 6 -20q0 -15 -8 -29l-8 -13q-3 -5 -9 -8q-6 -6 -11 -10t-13 -6q-5 -2 -14 -3t-15 -1q-12 0 -33 4q-10 4 -22 19q-4 1 -6 5l-4 9q-6 2 -7 10l7 4l8 2l2 2h10q13 -3 14 -4q5 -4 9 -6t6 -4 q2 0 6 -1t10 -1h5q9 2 13 3.5t7 4.5q2 2 4.5 4t3.5 4q2 4 4 7.5t2 7.5q0 6 -6 10q-4 6 -8 6q-2 4 -6.5 5t-7.5 3q-5 0 -13 6q-5 0 -9.5 1t-10.5 6q-10 3 -13.5 6.5l-7.5 7.5q-12 4 -12 14q-6 12 -6 25q0 19 6 26q1 4 6 11l8 10q4 2 9.5 4t13.5 6q6 0 11 1t13 1q4 0 8.5 -1 t10.5 -1l16 -6q3 -4 6.5 -7t7.5 -7q3 -2 7 -5.5t4 -7.5l-14 -8l-21 -4l-6 2q-3 1 -6 4q-2 0 -3.5 1t-4.5 1h-17q-2 0 -3 -1t-5 -3l-7 -6q-1 -3 -1 -10q3 -6 4.5 -9.5t3.5 -7.5h6q9 -2 14 -5t11 -5l8 -2q5 -4 9.5 -5.5t10.5 -4.5q6 -2 16.5 -13.5t10.5 -17.5zM1579 336 q-12 9 -16 20q-6 15 -7 31v16l11 19q2 2 4.5 6t7.5 8q6 9 12 10q3 5 9 6t10 3q4 0 8 2t10 2q4 0 10.5 -2t10.5 -2q4 -2 8 -3t8 -6l12 -10l13 -14q2 -4 4 -8.5t4 -10.5q0 -4 1 -9t1 -7q0 -6 -1 -14t-5 -17q-4 -13 -17 -20q-4 -4 -9 -8t-13 -9q-11 -2 -27 -2h-15q-4 0 -11 2 q-16 4 -23 17zM2165 127q5 13 6 27q0 16 -6 24q-3 14 -14 24.5t-25 14.5q-4 4 -11.5 5t-17.5 1q-11 0 -26 -6q-7 -1 -12 -4.5t-11 -9.5q-9 -6 -16 -25q0 -4 -1 -10t-1 -14q0 -9 1 -15t1 -12q9 -17 16 -25q6 -4 11 -8t12 -8q7 -2 14.5 -3t11.5 -1q21 0 29 4q29 11 39 41z M2284 336q-6 -4 -12.5 -8t-12.5 -9q-9 -2 -13 -2h-29q-4 0 -13 2q-12 4 -23 17q-7 7 -14 20q-2 9 -4 17t-2 14q0 2 1 7t1 9q2 4 3 9.5t5 9.5q2 3 5 6.5t5 7.5q7 5 17 10q3 5 8.5 6t7.5 3q5 0 8.5 2t11.5 2q2 0 7.5 -2t11.5 -2q4 -2 8 -3t6 -6q4 -2 9 -5t8 -5q1 -2 2 -3.5 t2 -3.5l4 -7q6 -11 8 -19q2 -4 3 -9t1 -7q0 -6 -1 -14t-5 -17q0 -6 -6 -11zM1108 154q0 15 -4 24q-4 18 -19 25q-2 6 -8 9t-12 5q-11 6 -29 6q-14 0 -26 -6q-11 -1 -23 -14q-9 -5 -14 -25q-5 -5 -6 -11v-28q0 -4 6 -12q5 -15 13.5 -24t23.5 -17q10 -4 26 -4q19 0 29 4 q15 7 20 16q14 5 18.5 22t4.5 30zM774 262h139v-39h-100v-56h82v-38h-82v-86h-39v219zM571 223h-59v-180h-43v180h-63v39h165v-39zM1389 262h165v-39h-65v-180h-39v180h-61v39zM1366 1315q17 -9 36 -21t36 -23h-324q36 30 74 44q39 18 88 18q47 0 90 -18zM1188 864 q-19 7 -37 19t-35 26h322q-17 -14 -36 -26t-36 -19q-23 -6 -45.5 -11t-44.5 -5q-25 0 -46 5t-42 11zM559 604l-47 68q4 0 12 4q7 3 8 10q9 6 9 12v25q-6 15 -13 20q-5 9 -14 9q-2 4 -7 5t-9 1h-56v-154h23v64h24l39 -56q1 -4 7 -6zM1169 604l-67 154h-21l-67 -154h12 q7 0 10 2q0 2 6 6l11 27h77l11 -27q1 -4 6 -6q2 -2 8 -2h14zM1931 721q2 -2 6.5 -8t5.5 -11q4 -7 5 -23q0 -13 -5 -22q-1 -4 -6 -10l-6 -6q-5 -4 -9.5 -7t-8.5 -7q-9 -4 -23 -4q-15 0 -22 4q-5 4 -10 7t-9 7q-3 2 -6.5 7t-3.5 9q-4 6 -5 11.5t-1 10.5q0 12 6 23q0 5 3 11 t7 8q9 9 19.5 12.5t21.5 3.5q13 0 23 -4zM801 721q6 -2 9 -8t5 -11q4 -7 4 -23q0 -11 -4 -22q-2 -4 -5 -9t-9 -7q-5 -10 -17 -14t-22 -4q-11 0 -23 4q-4 4 -9 7t-9 7q-2 2 -6 7t-6 9q-4 12 -4 22q0 21 9 32.5t25 21.5q5 2 12 3t11 1q14 0 22 -4q13 -5 17 -12zM295 690 q5 13 6 19q0 10 -6 20q0 2 -4 6l-6 6q-2 3 -5.5 7t-9.5 4q-2 4 -8 5t-10 1h-53v-154h18v58h35q4 0 10 0.5t8 3.5q11 4 15 10q4 2 7 6t3 8zM2218 332h31l6 3q5 4 9.5 6t8.5 5l3 6q3 6 6.5 11.5t3.5 9.5v34q-2 6 -6.5 10.5t-6.5 8.5q-6 2 -10 5t-8 7h-43q-6 -4 -10 -7t-9 -5 q-7 -5 -12 -19q-2 -9 -2 -12v-22q0 -4 1 -9t5 -8l4 -4q3 -3 4 -6l6 -4q7 -5 11.5 -6.5t7.5 -3.5zM2126 758h-21v-119l-2.5 5t-3.5 5l-74 103l-4 6h-24v-154h22v121l90 -121h17v154zM1579 407q-3 -6 -4.5 -12t-1.5 -8v-8q3 -15 8 -23q0 -2 2 -4t4 -6l6 -4q2 -2 9 -2 q2 -4 6 -5t6 -3h28q5 2 8 3t7 5l10 6q2 4 5 6t3 4q2 3 3 8t3 9q0 2 1 6t1 8q0 2 -1 8t-5 12q0 6 -4 10.5t-6 8.5q-3 1 -8 6l-10 6h-43q-4 -4 -9.5 -7t-9.5 -5q-2 -3 -5 -8t-3 -11zM997 758h-18v-119l-78 113q-4 0 -6 6h-25v-154h21v125h2l2 -2v-4l86 -119h16v154zM2114 381 q-4 -1 -7.5 -2t-5.5 -2l45 -60h-12q-7 2 -8.5 3.5t-1.5 5.5l-39 51h-27v-60h-16v138h57q3 0 10 -2q2 -2 5.5 -4.5t4.5 -4.5q4 -2 5.5 -6t7.5 -8v-27q-4 -4 -5 -8t-3 -6zM1343 381q-3 -3 -12 -4l47 -60h-15q-10 3 -9 9l-39 51h-28v-60h-13v138h56q10 -2 14.5 -4.5t9.5 -6.5 q0 -2 3 -6t3 -8l2 -20q-3 -17 -6 -21l-6 -4q-2 -2 -7 -4zM412 758h-97v-154h97v21h-74v47h59v18h-59v45h74v23zM1722 758h-94v-154h94v21h-71v47h59v18h-59v45h71v23zM2460 453l18 2v-138h-12v113l-2 -2v-2q-4 -7 -7 -17t-8 -14q-4 -7 -6 -13.5t-8 -14.5q-2 -9 -3 -15 t-5 -10q-3 -9 -6.5 -13.5t-5.5 -11.5h-15q-10 13 -15 26t-11 28q-4 12 -11.5 26.5t-11.5 28.5v2h-4v-111h-14v138h14l8 -4v-5l49 -106l3 -2v4q0 1 8 6l40 98q2 5 3.5 5t1.5 2zM1479 758h-21v-103q0 -3 -2 -8q-1 -7 -10 -12q0 -2 -4 -4t-6 -6l-9 -2h-8q-7 0 -14 2 q-5 4 -8.5 6t-5.5 4l-11 12q0 3 -1 7.5t-1 11.5v92h-20v-92q0 -7 1.5 -17.5t6.5 -15.5q2 -6 10 -12q2 -3 4.5 -6t8.5 -5q2 -2 6 -3t8 -3q4 0 7 -1t9 -1q4 0 7.5 1t11.5 1q2 2 5 3t7 3q9 6 12 11q3 2 5.5 5t5.5 7q0 4 3 7t3 7v111zM663 631q2 5 3.5 8.5t1.5 9.5q0 11 -5.5 19 t-11.5 14q-2 0 -4 2t-6 4l-4 2h-4q-4 3 -6.5 3.5t-3.5 1.5q-7 2 -9 3.5t-6 3.5q-6 3 -9 3l-3 22q9 7 12 8l15 2q11 -3 12 -6l6 -2q10 0 14 4l4 2l-6 8q-2 1 -5 4t-7 5q-2 0 -4 2t-6 4h-29q-5 -2 -7.5 -4t-6.5 -4q-2 -5 -6 -8t-7 -7q0 -4 -2 -7t-2 -9q0 -7 4 -17l5 -8l6 -4 q2 -2 6 -5t7 -3l8 -5q2 -1 7 -1q1 -2 6 -2t7 -2l6 -2q5 -4 5.5 -5.5t2.5 -5.5l2 -16q-4 -5 -4 -7.5t-2 -4.5q-1 -3 -7 -5l-3 -1q-4 0 -8 -1t-5 -1q-5 0 -11.5 1.5t-6.5 6.5l-4 2q-4 4 -12 4h-5l-10 -4l10 -18h3q7 -7 16.5 -9t19.5 -2h9q5 0 12 2q4 2 9 4t7 5q4 2 7.5 6 t4.5 10zM1597 631q7 7 7 18t-4.5 19t-12.5 14q-6 5 -6 6h-4l-39 17l-6 6q0 1 -1 3.5t-1 4.5q0 4 4 8q5 4 6.5 6t5.5 2q2 2 10 2l3 -1q5 -2 8 -3l6 -2q6 -2 8 -2q7 0 8 4l6 2q0 2 -3 4t-5 4q0 1 -3 4l-5 5q-3 0 -5.5 2t-6.5 4h-6l-5 1q-6 0 -10 -0.5t-8 -0.5l-14 -8l-11 -15 q-1 -4 -3.5 -7t-2.5 -9q0 -4 2 -8t4 -9q2 -4 4.5 -7t4.5 -5q4 -2 7 -5t7 -3q9 -5 14 -6q4 -2 6.5 -2t6.5 -2q5 0 10.5 -3.5t5.5 -9.5l2 -15q-2 -7 -4 -9l-4 -4q-12 -9 -23 -8q-2 0 -6 1t-6 1q-3 1 -8 6l-3 2q-4 4 -9 4h-7l-10 -4l8 -10v-2q7 -5 9 -6q6 -7 14 -9t18 -2h12 q3 0 11 2q2 2 6 4t8 5l6 8q3 3 4 8zM1741 317h-17v138h19l82 -113v113h14v-138h-12l-82 113v4h-4v-117zM78 350q-4 4 -5.5 8t-2.5 9q-2 6 -3 10t-1 10t4 16q1 4 2.5 9.5t5.5 9.5l9 14q2 2 6.5 5t6.5 5q5 5 10 6t9 3q3 0 8.5 2t11.5 2q16 0 27 -8q14 -4 22 -15l-5 -6h-13 q-3 2 -6.5 5t-7.5 3h-37l-21 -12q-4 -3 -7.5 -7.5t-4.5 -11.5q-2 -6 -3 -12t-1 -8q0 -10 4 -14q0 -4 0.5 -9t0.5 -8l5 -4q5 -1 6 -6l8 -5q2 -1 7 -1q2 -4 5 -5t7 -3h33q2 2 7 3t9 5v29h-14v2l-6 4h-3l-1 8h38v-51q-2 -5 -4 -6.5t-6 -6.5h-12q-9 -2 -12 -2h-35q-5 0 -19 9 q-7 0 -13 10zM240 438v-43h55v-16h-55v-47h67v-15h-84v138h84v-17h-67zM1171 438v-43h60v-16h-60v-47h68v-15h-84v138h84v-17h-68zM2374 758h-19q-5 0 -9.5 -4t-4.5 -9l-37 -47h-4l-39 47q-3 14 -16 13h-17l58 -76v-3l4 -3v-72h21v70l5 5v3zM2253 625h-68v133h-22v-154h90 v21zM641 455v-84q0 -6 2 -9.5t6 -5.5q0 -6 3 -9.5t5 -4.5q0 -2 4.5 -4t6.5 -4q6 -2 8 -2h16q9 4 13 6l8 4q4 1 8 14q4 3 4 15v84h14v-84q0 -10 -3.5 -22t-12.5 -17q-5 -13 -16 -13q-6 -1 -12 -1.5t-11 -0.5t-11 0.5t-14 1.5q-3 0 -16 13l-10 16q-1 6 -3.5 11.5t-2.5 11.5v84 h14zM1270 625h-66v133h-20v-154h86v21zM1452 336q1 2 2 3.5t2 3.5q2 2 3 6.5t1 6.5q0 18 -16 23q-3 0 -13 4t-12 6q-10 0 -14 8q-2 0 -4 3l-4 6v23q0 1 2 7q0 9 8 10l6 5l4 2l4 2q4 0 6.5 2t8.5 2l10 -4q3 0 4.5 -1t5.5 -3q6 0 6 -7q5 0 7 -3l1 -3l-2 -2q-6 -2 -10 -2h-6 l-25 4q-9 0 -8 -2q-5 -7 -6 -8q-4 0 -4 -8q0 -5 4 -6q0 -4 4 -7l6 -4q4 -4 7.5 -4t7.5 -2l6 -2q3 0 8 -6h4l6 -2q5 -4 8 -7l5 -5q1 -5 1.5 -9.5t0.5 -9.5v-10q-5 -9 -7.5 -13t-7.5 -7q-2 -2 -6 -4.5t-6 -2.5q-4 -2 -10 -2h-10q-10 0 -17.5 1t-13.5 8q-2 0 -3 3t-5 5v4l-2 2 l4 2h6q1 0 3.5 -1t4.5 -1q4 -4 7 -5t5 -3h21q8 0 12 4zM1069 317l-59 138h5q11 0 15 -9l43 -104v-2h2l2 2q5 14 13 27.5t12 25.5q4 15 10 27l12 24q0 5 1.5 5t1.5 2l18 2q-7 -17 -15 -34.5t-16 -33.5q-4 -9 -7.5 -18.5t-6.5 -18.5l-15 -33h-16zM532 438v-49h60v-12h-60v-60 h-16v138h86v-17h-70zM1958 438v-49h55v-12h-55v-60h-16v138h83v-17h-67zM879 455v-123h63v-15h-80v138h17zM371 317v121h-47v17h106v-17h-47v-121h-12zM784 455v-123h64v-15h-80v138h16zM270 729q2 -1 3 -4.5t3 -5.5q3 -4 3 -10v-4q0 -2 -3 -7q-2 -2 -3 -5t-3 -3 q-1 -2 -3 -4t-5 -4h-45v53h35q4 0 10 -2zM1325 389q5 0 6 4q4 4 10 4l2 4q5 11 5 17q0 2 -1 3t-1 5q-3 2 -4 3t-1 5q-5 0 -10 4h-44v-49h38zM2101 393q4 4 8 4q5 7 5 9q2 4 2 12q0 3 -2 8q0 1 -5 8q-3 0 -8 4h-43v-49h35q4 1 8 4zM518 702l-4 -8q-2 0 -3 -2t-3 -2 q-2 -2 -10 -2h-33v47h33q3 0 10 -2l6 -4l2 -4l2 -4q3 -1 4 -10q-1 -6 -4 -9zM1524 455v-138h-17v138h17zM684 129l-29 74h-2l-30 -74h61zM1092 727v-4l28 -64h-59l29 64v6zM1755 82q6 0 6 -6l2 -10q0 -7 -2 -9q0 -4 -6 -10l-24 -4q-4 4 -9 4q0 2 -6 10q-2 2 -2 9v4l8 12 q7 4 9 4l15 4z" />
<glyph unicode="'" horiz-adv-x="581" d="M194 1091q0 -16 5 -28t27 -12h157q17 0 25.5 8t8.5 29v390q0 16 -6.5 29.5t-30.5 13.5h-145q-41 0 -41 -43v-387z" />
<glyph unicode="(" horiz-adv-x="788" d="M145 765q0 -131 17.5 -265.5t53.5 -267t90.5 -259.5t128.5 -244q13 -19 30 -19q11 0 25 8l181 113q16 10 17 24.5t-9 28.5q-64 91 -110 208t-76.5 238t-45 235t-14.5 200q0 85 14 197t44 231t75 234t109 206q10 14 9 28.5t-17 23.5l-182 113q-14 9 -25 9q-16 0 -29 -19 q-68 -110 -121 -235t-90 -256t-56 -266t-19 -266z" />
<glyph unicode=")" horiz-adv-x="788" d="M645.009 765q0 -131 -17.499 -265.5t-53.4961 -267q-35.998 -132.5 -90.4951 -259.5q-54.4961 -127 -128.492 -244q-12.999 -19 -29.998 -19q-10.999 0 -24.998 8l-180.989 113q-15.999 10 -16.999 24.5t8.99902 28.5q63.9961 91 109.994 208q45.9971 117 76.4951 238 t44.9971 235t14.499 200q0 85 -13.999 197t-43.9971 231t-74.9961 234q-44.9971 115 -108.993 206q-9.99902 14 -8.99902 28.5t16.999 23.5l181.988 113q13.999 9 24.999 9q15.999 0 28.998 -19q67.9961 -110 120.992 -235q52.9971 -125 89.9951 -256 q36.9971 -131 55.9961 -266t18.999 -266z" />
<glyph unicode="*" horiz-adv-x="1005" d="M115 570q0 -17 11 -24.5t21 -7.5l205 22l-125 -173q-7 -12 -3.5 -25t17.5 -21l128 -74q7 -4 16 -5q9 0 16.5 5t10.5 11l91 212l86 -207q9 -17 28 -17q9 0 16 4l130 76q13 7 16.5 19t-5.5 23l-124 174l207 -27q14 -1 23.5 8.5t9.5 23.5v151q-2 31 -31 31l-216 -23l127 170 q9 12 5 24t-16 20l-130 74q-11 5 -19 6q-17 0 -23 -16l-84 -179l-82 181q-9 17 -27 17q-7 0 -19 -5l-128 -75q-15 -9 -16 -21.5t5 -21.5l123 -170l-211 21q-15 0 -23.5 -9t-8.5 -24z" />
<glyph unicode="+" horiz-adv-x="921" d="M548 262q16 0 23.5 11t7.5 21v239h232q13 0 22.5 8.5t9.5 22.5v168q0 31 -31 31h-233v238q0 14 -8.5 23t-22.5 9h-182q-32 0 -32 -31v-239h-228q-15 0 -25 -8.5t-10 -23.5v-167q0 -17 11 -24t21 -7h231v-238q0 -15 9 -24t24 -9h181z" />
<glyph unicode="," horiz-adv-x="581" d="M152.023 45.0732q0 -46.9971 41.998 -46.9971h39.9971q11 0 13.999 -6.99902q3 -7 3 -13.999q0 -9 -1.5 -22.999t-8.49902 -32.498q-7 -18.499 -20.999 -40.9971q-13.999 -22.499 -39.9971 -48.4971q-4 -4 -8 -9.5q-4 -5.49902 -6.49902 -11.999q-2.5 -6.5 0 -14.499 q2.49902 -8 11.499 -15.999l51.9971 -48.9971q10.999 -9.99902 24.998 -9.99902t27.998 10.999q16.999 12.999 41.498 36.998q24.498 23.998 46.9971 63.9961q22.498 39.9971 38.4971 97.4941q15.999 57.4961 15.999 137.491v153.99q0 48.9971 -45.9971 48.9971h-182.988 q-17.999 0 -30.998 -11.499q-13 -11.499 -13 -39.498v-174.989z" />
<glyph unicode="-" horiz-adv-x="1091" d="M162 515q0 -23 15.5 -34.5t31.5 -11.5h674q22 0 36.5 12.5t14.5 33.5v142q0 47 -45 47h-680q-17 0 -32 -13t-15 -37v-139z" />
<glyph unicode="." horiz-adv-x="581" d="M151 35q0 -21 13.5 -28t21.5 -7h204q9 0 22.5 7.5t13.5 28.5v201q0 9 -6.5 23t-30.5 14h-201q-15 0 -26 -9.5t-11 -28.5v-201z" />
<glyph unicode="/" horiz-adv-x="1073" d="M374.042 37q-8.99902 -20 -22.499 -28.5q-13.499 -8.5 -30.498 -8.5h-200.987q-17.999 0 -25.999 11q-7.99902 11 1 33l623.962 1439q16.999 38 52.9971 38h196.988q18.999 0 26.998 -11.5q8 -11.5 -1 -33.5z" />
<glyph unicode="0" d="M2478 1092v-586h-2404v586h911q0 30 5 59t20 53q12 29 26.5 52.5t36.5 41.5q38 42 92 62q27 12 54.5 17t56.5 5q33 0 61.5 -6t53.5 -16q59 -29 94.5 -64.5t62.5 -95.5q19 -52 19 -108h911zM1010 1092q0 -61 18.5 -103t56.5 -88q38 -37 87 -58.5t104 -21.5q53 0 102 19 t85 59q21 19 35.5 40.5t25.5 43.5q21 54 22 109q0 46 -14.5 87.5t-44.5 77.5q-14 19 -29.5 32.5t-34.5 25.5q-18 7 -37.5 17.5t-39.5 17.5l-32.5 6.5t-37.5 3.5q-59 0 -107 -25q-49 -17 -84 -57q-36 -36 -55.5 -85.5t-19.5 -100.5zM1141 935l315 318q62 -78 62 -161 q0 -23 -3.5 -44.5t-11.5 -41.5q-14 -37 -41 -71h-321zM1094 928q-28 36 -43 76q-9 18 -12 40.5t-3 47.5q0 19 3 40t12 42q4 19 14 36t25 33h319zM2195 207q3 -4 6 -10.5t5 -14.5q4 -7 4 -15v-30q0 -7 -4 -12q-2 -7 -5 -15t-6 -14q-4 -7 -16 -20l-12 -10t-13 -9 q-5 -5 -12.5 -7.5l-13.5 -4.5q-9 -2 -14 -2h-17q-20 0 -43 6q-9 6 -16.5 12.5t-16.5 14.5q-9 6 -14.5 14t-7.5 21q-6 10 -8 20t-2 23q0 9 1 14.5t1 13.5q3 7 6.5 14t7.5 11q2 9 6 13.5t10 10.5q3 4 10 8.5t13 10.5q4 2 11 4t13 6q11 0 17 1t12 1q10 0 17.5 -1t13.5 -1 q6 -4 13 -6t13 -4q14 -11 25 -19q2 -6 8 -10.5t8 -13.5zM1135 207q2 -4 4 -10.5t6 -14.5q2 -11 2 -15v-30q0 -5 -2 -12q-3 -7 -5.5 -15t-4.5 -14q-5 -4 -10 -10t-9 -10q-15 -15 -23 -19.5t-26 -11.5q-4 -1 -7.5 -1.5t-7.5 -0.5h-16q-10 0 -20 2t-23 4q-12 6 -19 12.5 t-16 14.5q-16 15 -23 35.5t-7 42.5v13q0 4 2 15q5 18 12 25q4 9 8 13.5t8 10.5q7 4 12 8.5t11 10.5l29 10q4 0 11 1t15 1q9 0 16 -1t15 -1q6 -4 13 -6l14 -4l22 -19q4 -6 9 -10.5t10 -13.5zM2433 260l1 1l44 1v-219h-37v160l-6 -10v-6q-9 -19 -15.5 -38.5t-15.5 -33.5 q-6 -19 -12 -35.5t-14 -36.5h-37l-55 139q-5 3 -5 11l-4 6v-156h-41v219h39q5 0 7 -1t4 -1q2 -2 3 -2t3 -2l8 -4q0 -2 2 -4t2 -4q4 -17 11 -32t16 -34q6 -16 12 -32.5t12 -30.5v-13l6 13l9 14l45 115l4 8l6 4q2 2 4 2t4 2zM1329 262h38v-219h-36l-100 147l-4 3v2 q-5 10 -7.5 12t-5.5 2v-166h-39v219h35q4 0 8.5 -1t4.5 -3q3 -2 5.5 -2t4.5 -2l22 -33q5 -9 10 -17.5t11 -17.5q14 -14 24.5 -29.5t24.5 -29.5q0 -2 1 -5t1 -7l2 -5v152zM672 262l94 -219h-25q-9 0 -16 4q-2 2 -4 7t-6 9l-13 27h-100l-10 -27q0 -6 -4 -6l-8 -10 q-2 0 -3.5 -1t-5.5 -1l-30 -2l96 219h35zM260 262h139v-39h-100v-49h82v-41h-82v-51h100v-39h-139v219zM74 262h159v-24l-8 -15l-106 -143h2l2 2h108v-39h-165v14q0 10 2 11q0 2 6 8v4l2 4l4 4t2 6l94 129h-102v39zM838 659q1 6 2.5 10.5t1.5 9.5q0 13 -4 23q0 5 -3.5 9 t-5.5 10q-2 3 -5 6.5t-7 7.5l-7 6q-2 3 -9 9l-8 4q-2 1 -5 2l-6 2h-41q-11 -4 -18 -8q-4 -5 -8 -8t-8 -7q-12 -9 -13 -14q-4 -6 -5 -10t-3 -9q-1 -5 -1.5 -10.5t-0.5 -12.5q0 -16 6.5 -29t16.5 -25q12 -15 26 -15q12 -6 29 -6h20q6 2 11 4t8 4q12 5 16 13q7 7 12 16 q2 4 5.5 9t3.5 9zM1966 659v43q-2 5 -3.5 9.5t-4.5 9.5q-5 6 -15 14q-1 4 -5.5 7t-8.5 8q-2 1 -4.5 2t-5.5 2l-8 4h-41q-5 -2 -10.5 -4t-10.5 -4q-3 -5 -6.5 -8t-7.5 -7q-3 -4 -6.5 -7t-5.5 -7q-2 -6 -5 -10t-3 -9q-5 -11 -5 -23q0 -5 2.5 -13.5t6.5 -14.5q5 -16 16 -26 q9 -15 25 -15q12 -6 30 -6h21q3 2 8.5 4t9.5 4q4 3 8.5 6t5.5 7q10 5 15 16zM1839 203q-7 -7 -14 -25q-2 -4 -4 -10t-2 -14q0 -10 6 -27.5t14 -24.5q10 -10 23 -16q13 -4 28 -4q5 0 10 1t11 1q3 2 8.5 5t9.5 7q2 0 8 2h13q2 0 8 -2q2 -1 8 -6l6 -8l-6 -8t-8 -8q-6 -3 -11 -6 t-12 -7q-5 -3 -16.5 -6.5t-17.5 -3.5h-11q-12 0 -23.5 2t-21.5 4q-21 10 -35 27q-16 15 -22 35q-4 10 -7 20t-3 23q0 9 1 14.5t3 13.5q2 17 10 25l9 13.5t9 10.5l25 19l27 10q5 0 12.5 1t15.5 1h13q4 0 16 -3t16 -5l23 -14q4 -4 7.5 -8.5t6.5 -8.5l-14 -16h-15q-7 0 -14 4 q-3 2 -8.5 5t-9.5 5q-9 2 -11 2h-10q-16 0 -28 -6q-16 -2 -23 -14zM1700 133q5 -9 6 -20q0 -15 -8 -29l-8 -13q-3 -5 -9 -8q-6 -6 -11 -10t-13 -6q-5 -2 -14 -3t-15 -1q-12 0 -33 4q-10 4 -22 19q-4 1 -6 5l-4 9q-6 2 -7 10l7 4l8 2l2 2h10q13 -3 14 -4q5 -4 9 -6t6 -4 q2 0 6 -1t10 -1h5q9 2 13 3.5t7 4.5q2 2 4.5 4t3.5 4q2 4 4 7.5t2 7.5q0 6 -6 10q-4 6 -8 6q-2 4 -6.5 5t-7.5 3q-5 0 -13 6q-5 0 -9.5 1t-10.5 6q-10 3 -13.5 6.5l-7.5 7.5q-12 4 -12 14q-6 12 -6 25q0 19 6 26q1 4 6 11l8 10q4 2 9.5 4t13.5 6q6 0 11 1t13 1q4 0 8.5 -1 t10.5 -1l16 -6q3 -4 6.5 -7t7.5 -7q3 -2 7 -5.5t4 -7.5l-14 -8l-21 -4l-6 2q-3 1 -6 4q-2 0 -3.5 1t-4.5 1h-17q-2 0 -3 -1t-5 -3l-7 -6q-1 -3 -1 -10q3 -6 4.5 -9.5t3.5 -7.5h6q9 -2 14 -5t11 -5l8 -2q5 -4 9.5 -5.5t10.5 -4.5q6 -2 16.5 -13.5t10.5 -17.5zM1579 336 q-12 9 -16 20q-6 15 -7 31v16l11 19q2 2 4.5 6t7.5 8q6 9 12 10q3 5 9 6t10 3q4 0 8 2t10 2q4 0 10.5 -2t10.5 -2q4 -2 8 -3t8 -6l12 -10l13 -14q2 -4 4 -8.5t4 -10.5q0 -4 1 -9t1 -7q0 -6 -1 -14t-5 -17q-4 -13 -17 -20q-4 -4 -9 -8t-13 -9q-11 -2 -27 -2h-15q-4 0 -11 2 q-16 4 -23 17zM2165 127q5 13 6 27q0 16 -6 24q-3 14 -14 24.5t-25 14.5q-4 4 -11.5 5t-17.5 1q-11 0 -26 -6q-7 -1 -12 -4.5t-11 -9.5q-9 -6 -16 -25q0 -4 -1 -10t-1 -14q0 -9 1 -15t1 -12q9 -17 16 -25q6 -4 11 -8t12 -8q7 -2 14.5 -3t11.5 -1q21 0 29 4q29 11 39 41z M2284 336q-6 -4 -12.5 -8t-12.5 -9q-9 -2 -13 -2h-29q-4 0 -13 2q-12 4 -23 17q-7 7 -14 20q-2 9 -4 17t-2 14q0 2 1 7t1 9q2 4 3 9.5t5 9.5q2 3 5 6.5t5 7.5q7 5 17 10q3 5 8.5 6t7.5 3q5 0 8.5 2t11.5 2q2 0 7.5 -2t11.5 -2q4 -2 8 -3t6 -6q4 -2 9 -5t8 -5q1 -2 2 -3.5 t2 -3.5l4 -7q6 -11 8 -19q2 -4 3 -9t1 -7q0 -6 -1 -14t-5 -17q0 -6 -6 -11zM1108 154q0 15 -4 24q-4 18 -19 25q-2 6 -8 9t-12 5q-11 6 -29 6q-14 0 -26 -6q-11 -1 -23 -14q-9 -5 -14 -25q-5 -5 -6 -11v-28q0 -4 6 -12q5 -15 13.5 -24t23.5 -17q10 -4 26 -4q19 0 29 4 q15 7 20 16q14 5 18.5 22t4.5 30zM774 262h139v-39h-100v-56h82v-38h-82v-86h-39v219zM571 223h-59v-180h-43v180h-63v39h165v-39zM1389 262h165v-39h-65v-180h-39v180h-61v39zM1366 1315q17 -9 36 -21t36 -23h-324q36 30 74 44q39 18 88 18q47 0 90 -18zM1188 864 q-19 7 -37 19t-35 26h322q-17 -14 -36 -26t-36 -19q-23 -6 -45.5 -11t-44.5 -5q-25 0 -46 5t-42 11zM559 604l-47 68q4 0 12 4q7 3 8 10q9 6 9 12v25q-6 15 -13 20q-5 9 -14 9q-2 4 -7 5t-9 1h-56v-154h23v64h24l39 -56q1 -4 7 -6zM1169 604l-67 154h-21l-67 -154h12 q7 0 10 2q0 2 6 6l11 27h77l11 -27q1 -4 6 -6q2 -2 8 -2h14zM1931 721q2 -2 6.5 -8t5.5 -11q4 -7 5 -23q0 -13 -5 -22q-1 -4 -6 -10l-6 -6q-5 -4 -9.5 -7t-8.5 -7q-9 -4 -23 -4q-15 0 -22 4q-5 4 -10 7t-9 7q-3 2 -6.5 7t-3.5 9q-4 6 -5 11.5t-1 10.5q0 12 6 23q0 5 3 11 t7 8q9 9 19.5 12.5t21.5 3.5q13 0 23 -4zM801 721q6 -2 9 -8t5 -11q4 -7 4 -23q0 -11 -4 -22q-2 -4 -5 -9t-9 -7q-5 -10 -17 -14t-22 -4q-11 0 -23 4q-4 4 -9 7t-9 7q-2 2 -6 7t-6 9q-4 12 -4 22q0 21 9 32.5t25 21.5q5 2 12 3t11 1q14 0 22 -4q13 -5 17 -12zM295 690 q5 13 6 19q0 10 -6 20q0 2 -4 6l-6 6q-2 3 -5.5 7t-9.5 4q-2 4 -8 5t-10 1h-53v-154h18v58h35q4 0 10 0.5t8 3.5q11 4 15 10q4 2 7 6t3 8zM2218 332h31l6 3q5 4 9.5 6t8.5 5l3 6q3 6 6.5 11.5t3.5 9.5v34q-2 6 -6.5 10.5t-6.5 8.5q-6 2 -10 5t-8 7h-43q-6 -4 -10 -7t-9 -5 q-7 -5 -12 -19q-2 -9 -2 -12v-22q0 -4 1 -9t5 -8l4 -4q3 -3 4 -6l6 -4q7 -5 11.5 -6.5t7.5 -3.5zM2126 758h-21v-119l-2.5 5t-3.5 5l-74 103l-4 6h-24v-154h22v121l90 -121h17v154zM1579 407q-3 -6 -4.5 -12t-1.5 -8v-8q3 -15 8 -23q0 -2 2 -4t4 -6l6 -4q2 -2 9 -2 q2 -4 6 -5t6 -3h28q5 2 8 3t7 5l10 6q2 4 5 6t3 4q2 3 3 8t3 9q0 2 1 6t1 8q0 2 -1 8t-5 12q0 6 -4 10.5t-6 8.5q-3 1 -8 6l-10 6h-43q-4 -4 -9.5 -7t-9.5 -5q-2 -3 -5 -8t-3 -11zM997 758h-18v-119l-78 113q-4 0 -6 6h-25v-154h21v125h2l2 -2v-4l86 -119h16v154zM2114 381 q-4 -1 -7.5 -2t-5.5 -2l45 -60h-12q-7 2 -8.5 3.5t-1.5 5.5l-39 51h-27v-60h-16v138h57q3 0 10 -2q2 -2 5.5 -4.5t4.5 -4.5q4 -2 5.5 -6t7.5 -8v-27q-4 -4 -5 -8t-3 -6zM1343 381q-3 -3 -12 -4l47 -60h-15q-10 3 -9 9l-39 51h-28v-60h-13v138h56q10 -2 14.5 -4.5t9.5 -6.5 q0 -2 3 -6t3 -8l2 -20q-3 -17 -6 -21l-6 -4q-2 -2 -7 -4zM412 758h-97v-154h97v21h-74v47h59v18h-59v45h74v23zM1722 758h-94v-154h94v21h-71v47h59v18h-59v45h71v23zM2460 453l18 2v-138h-12v113l-2 -2v-2q-4 -7 -7 -17t-8 -14q-4 -7 -6 -13.5t-8 -14.5q-2 -9 -3 -15 t-5 -10q-3 -9 -6.5 -13.5t-5.5 -11.5h-15q-10 13 -15 26t-11 28q-4 12 -11.5 26.5t-11.5 28.5v2h-4v-111h-14v138h14l8 -4v-5l49 -106l3 -2v4q0 1 8 6l40 98q2 5 3.5 5t1.5 2zM1479 758h-21v-103q0 -3 -2 -8q-1 -7 -10 -12q0 -2 -4 -4t-6 -6l-9 -2h-8q-7 0 -14 2 q-5 4 -8.5 6t-5.5 4l-11 12q0 3 -1 7.5t-1 11.5v92h-20v-92q0 -7 1.5 -17.5t6.5 -15.5q2 -6 10 -12q2 -3 4.5 -6t8.5 -5q2 -2 6 -3t8 -3q4 0 7 -1t9 -1q4 0 7.5 1t11.5 1q2 2 5 3t7 3q9 6 12 11q3 2 5.5 5t5.5 7q0 4 3 7t3 7v111zM663 631q2 5 3.5 8.5t1.5 9.5q0 11 -5.5 19 t-11.5 14q-2 0 -4 2t-6 4l-4 2h-4q-4 3 -6.5 3.5t-3.5 1.5q-7 2 -9 3.5t-6 3.5q-6 3 -9 3l-3 22q9 7 12 8l15 2q11 -3 12 -6l6 -2q10 0 14 4l4 2l-6 8q-2 1 -5 4t-7 5q-2 0 -4 2t-6 4h-29q-5 -2 -7.5 -4t-6.5 -4q-2 -5 -6 -8t-7 -7q0 -4 -2 -7t-2 -9q0 -7 4 -17l5 -8l6 -4 q2 -2 6 -5t7 -3l8 -5q2 -1 7 -1q1 -2 6 -2t7 -2l6 -2q5 -4 5.5 -5.5t2.5 -5.5l2 -16q-4 -5 -4 -7.5t-2 -4.5q-1 -3 -7 -5l-3 -1q-4 0 -8 -1t-5 -1q-5 0 -11.5 1.5t-6.5 6.5l-4 2q-4 4 -12 4h-5l-10 -4l10 -18h3q7 -7 16.5 -9t19.5 -2h9q5 0 12 2q4 2 9 4t7 5q4 2 7.5 6 t4.5 10zM1597 631q7 7 7 18t-4.5 19t-12.5 14q-6 5 -6 6h-4l-39 17l-6 6q0 1 -1 3.5t-1 4.5q0 4 4 8q5 4 6.5 6t5.5 2q2 2 10 2l3 -1q5 -2 8 -3l6 -2q6 -2 8 -2q7 0 8 4l6 2q0 2 -3 4t-5 4q0 1 -3 4l-5 5q-3 0 -5.5 2t-6.5 4h-6l-5 1q-6 0 -10 -0.5t-8 -0.5l-14 -8l-11 -15 q-1 -4 -3.5 -7t-2.5 -9q0 -4 2 -8t4 -9q2 -4 4.5 -7t4.5 -5q4 -2 7 -5t7 -3q9 -5 14 -6q4 -2 6.5 -2t6.5 -2q5 0 10.5 -3.5t5.5 -9.5l2 -15q-2 -7 -4 -9l-4 -4q-12 -9 -23 -8q-2 0 -6 1t-6 1q-3 1 -8 6l-3 2q-4 4 -9 4h-7l-10 -4l8 -10v-2q7 -5 9 -6q6 -7 14 -9t18 -2h12 q3 0 11 2q2 2 6 4t8 5l6 8q3 3 4 8zM1741 317h-17v138h19l82 -113v113h14v-138h-12l-82 113v4h-4v-117zM78 350q-4 4 -5.5 8t-2.5 9q-2 6 -3 10t-1 10t4 16q1 4 2.5 9.5t5.5 9.5l9 14q2 2 6.5 5t6.5 5q5 5 10 6t9 3q3 0 8.5 2t11.5 2q16 0 27 -8q14 -4 22 -15l-5 -6h-13 q-3 2 -6.5 5t-7.5 3h-37l-21 -12q-4 -3 -7.5 -7.5t-4.5 -11.5q-2 -6 -3 -12t-1 -8q0 -10 4 -14q0 -4 0.5 -9t0.5 -8l5 -4q5 -1 6 -6l8 -5q2 -1 7 -1q2 -4 5 -5t7 -3h33q2 2 7 3t9 5v29h-14v2l-6 4h-3l-1 8h38v-51q-2 -5 -4 -6.5t-6 -6.5h-12q-9 -2 -12 -2h-35q-5 0 -19 9 q-7 0 -13 10zM240 438v-43h55v-16h-55v-47h67v-15h-84v138h84v-17h-67zM1171 438v-43h60v-16h-60v-47h68v-15h-84v138h84v-17h-68zM2374 758h-19q-5 0 -9.5 -4t-4.5 -9l-37 -47h-4l-39 47q-3 14 -16 13h-17l58 -76v-3l4 -3v-72h21v70l5 5v3zM2253 625h-68v133h-22v-154h90 v21zM641 455v-84q0 -6 2 -9.5t6 -5.5q0 -6 3 -9.5t5 -4.5q0 -2 4.5 -4t6.5 -4q6 -2 8 -2h16q9 4 13 6l8 4q4 1 8 14q4 3 4 15v84h14v-84q0 -10 -3.5 -22t-12.5 -17q-5 -13 -16 -13q-6 -1 -12 -1.5t-11 -0.5t-11 0.5t-14 1.5q-3 0 -16 13l-10 16q-1 6 -3.5 11.5t-2.5 11.5v84 h14zM1270 625h-66v133h-20v-154h86v21zM1452 336q1 2 2 3.5t2 3.5q2 2 3 6.5t1 6.5q0 18 -16 23q-3 0 -13 4t-12 6q-10 0 -14 8q-2 0 -4 3l-4 6v23q0 1 2 7q0 9 8 10l6 5l4 2l4 2q4 0 6.5 2t8.5 2l10 -4q3 0 4.5 -1t5.5 -3q6 0 6 -7q5 0 7 -3l1 -3l-2 -2q-6 -2 -10 -2h-6 l-25 4q-9 0 -8 -2q-5 -7 -6 -8q-4 0 -4 -8q0 -5 4 -6q0 -4 4 -7l6 -4q4 -4 7.5 -4t7.5 -2l6 -2q3 0 8 -6h4l6 -2q5 -4 8 -7l5 -5q1 -5 1.5 -9.5t0.5 -9.5v-10q-5 -9 -7.5 -13t-7.5 -7q-2 -2 -6 -4.5t-6 -2.5q-4 -2 -10 -2h-10q-10 0 -17.5 1t-13.5 8q-2 0 -3 3t-5 5v4l-2 2 l4 2h6q1 0 3.5 -1t4.5 -1q4 -4 7 -5t5 -3h21q8 0 12 4zM1069 317l-59 138h5q11 0 15 -9l43 -104v-2h2l2 2q5 14 13 27.5t12 25.5q4 15 10 27l12 24q0 5 1.5 5t1.5 2l18 2q-7 -17 -15 -34.5t-16 -33.5q-4 -9 -7.5 -18.5t-6.5 -18.5l-15 -33h-16zM532 438v-49h60v-12h-60v-60 h-16v138h86v-17h-70zM1958 438v-49h55v-12h-55v-60h-16v138h83v-17h-67zM879 455v-123h63v-15h-80v138h17zM371 317v121h-47v17h106v-17h-47v-121h-12zM784 455v-123h64v-15h-80v138h16zM270 729q2 -1 3 -4.5t3 -5.5q3 -4 3 -10v-4q0 -2 -3 -7q-2 -2 -3 -5t-3 -3 q-1 -2 -3 -4t-5 -4h-45v53h35q4 0 10 -2zM1325 389q5 0 6 4q4 4 10 4l2 4q5 11 5 17q0 2 -1 3t-1 5q-3 2 -4 3t-1 5q-5 0 -10 4h-44v-49h38zM2101 393q4 4 8 4q5 7 5 9q2 4 2 12q0 3 -2 8q0 1 -5 8q-3 0 -8 4h-43v-49h35q4 1 8 4zM518 702l-4 -8q-2 0 -3 -2t-3 -2 q-2 -2 -10 -2h-33v47h33q3 0 10 -2l6 -4l2 -4l2 -4q3 -1 4 -10q-1 -6 -4 -9zM1524 455v-138h-17v138h17zM684 129l-29 74h-2l-30 -74h61zM1092 727v-4l28 -64h-59l29 64v6zM1755 82q6 0 6 -6l2 -10q0 -7 -2 -9q0 -4 -6 -10l-24 -4q-4 4 -9 4q0 2 -6 10q-2 2 -2 9v4l8 12 q7 4 9 4l15 4z" />
<glyph unicode="1" d="M2478 1092v-586h-2404v586h911q0 30 5 59t20 53q12 29 26.5 52.5t36.5 41.5q38 42 92 62q27 12 54.5 17t56.5 5q33 0 61.5 -6t53.5 -16q59 -29 94.5 -64.5t62.5 -95.5q19 -52 19 -108h911zM1010 1092q0 -61 18.5 -103t56.5 -88q38 -37 87 -58.5t104 -21.5q53 0 102 19 t85 59q21 19 35.5 40.5t25.5 43.5q21 54 22 109q0 46 -14.5 87.5t-44.5 77.5q-14 19 -29.5 32.5t-34.5 25.5q-18 7 -37.5 17.5t-39.5 17.5l-32.5 6.5t-37.5 3.5q-59 0 -107 -25q-49 -17 -84 -57q-36 -36 -55.5 -85.5t-19.5 -100.5zM1141 935l315 318q62 -78 62 -161 q0 -23 -3.5 -44.5t-11.5 -41.5q-14 -37 -41 -71h-321zM1094 928q-28 36 -43 76q-9 18 -12 40.5t-3 47.5q0 19 3 40t12 42q4 19 14 36t25 33h319zM2195 207q3 -4 6 -10.5t5 -14.5q4 -7 4 -15v-30q0 -7 -4 -12q-2 -7 -5 -15t-6 -14q-4 -7 -16 -20l-12 -10t-13 -9 q-5 -5 -12.5 -7.5l-13.5 -4.5q-9 -2 -14 -2h-17q-20 0 -43 6q-9 6 -16.5 12.5t-16.5 14.5q-9 6 -14.5 14t-7.5 21q-6 10 -8 20t-2 23q0 9 1 14.5t1 13.5q3 7 6.5 14t7.5 11q2 9 6 13.5t10 10.5q3 4 10 8.5t13 10.5q4 2 11 4t13 6q11 0 17 1t12 1q10 0 17.5 -1t13.5 -1 q6 -4 13 -6t13 -4q14 -11 25 -19q2 -6 8 -10.5t8 -13.5zM1135 207q2 -4 4 -10.5t6 -14.5q2 -11 2 -15v-30q0 -5 -2 -12q-3 -7 -5.5 -15t-4.5 -14q-5 -4 -10 -10t-9 -10q-15 -15 -23 -19.5t-26 -11.5q-4 -1 -7.5 -1.5t-7.5 -0.5h-16q-10 0 -20 2t-23 4q-12 6 -19 12.5 t-16 14.5q-16 15 -23 35.5t-7 42.5v13q0 4 2 15q5 18 12 25q4 9 8 13.5t8 10.5q7 4 12 8.5t11 10.5l29 10q4 0 11 1t15 1q9 0 16 -1t15 -1q6 -4 13 -6l14 -4l22 -19q4 -6 9 -10.5t10 -13.5zM2433 260l1 1l44 1v-219h-37v160l-6 -10v-6q-9 -19 -15.5 -38.5t-15.5 -33.5 q-6 -19 -12 -35.5t-14 -36.5h-37l-55 139q-5 3 -5 11l-4 6v-156h-41v219h39q5 0 7 -1t4 -1q2 -2 3 -2t3 -2l8 -4q0 -2 2 -4t2 -4q4 -17 11 -32t16 -34q6 -16 12 -32.5t12 -30.5v-13l6 13l9 14l45 115l4 8l6 4q2 2 4 2t4 2zM1329 262h38v-219h-36l-100 147l-4 3v2 q-5 10 -7.5 12t-5.5 2v-166h-39v219h35q4 0 8.5 -1t4.5 -3q3 -2 5.5 -2t4.5 -2l22 -33q5 -9 10 -17.5t11 -17.5q14 -14 24.5 -29.5t24.5 -29.5q0 -2 1 -5t1 -7l2 -5v152zM672 262l94 -219h-25q-9 0 -16 4q-2 2 -4 7t-6 9l-13 27h-100l-10 -27q0 -6 -4 -6l-8 -10 q-2 0 -3.5 -1t-5.5 -1l-30 -2l96 219h35zM260 262h139v-39h-100v-49h82v-41h-82v-51h100v-39h-139v219zM74 262h159v-24l-8 -15l-106 -143h2l2 2h108v-39h-165v14q0 10 2 11q0 2 6 8v4l2 4l4 4t2 6l94 129h-102v39zM838 659q1 6 2.5 10.5t1.5 9.5q0 13 -4 23q0 5 -3.5 9 t-5.5 10q-2 3 -5 6.5t-7 7.5l-7 6q-2 3 -9 9l-8 4q-2 1 -5 2l-6 2h-41q-11 -4 -18 -8q-4 -5 -8 -8t-8 -7q-12 -9 -13 -14q-4 -6 -5 -10t-3 -9q-1 -5 -1.5 -10.5t-0.5 -12.5q0 -16 6.5 -29t16.5 -25q12 -15 26 -15q12 -6 29 -6h20q6 2 11 4t8 4q12 5 16 13q7 7 12 16 q2 4 5.5 9t3.5 9zM1966 659v43q-2 5 -3.5 9.5t-4.5 9.5q-5 6 -15 14q-1 4 -5.5 7t-8.5 8q-2 1 -4.5 2t-5.5 2l-8 4h-41q-5 -2 -10.5 -4t-10.5 -4q-3 -5 -6.5 -8t-7.5 -7q-3 -4 -6.5 -7t-5.5 -7q-2 -6 -5 -10t-3 -9q-5 -11 -5 -23q0 -5 2.5 -13.5t6.5 -14.5q5 -16 16 -26 q9 -15 25 -15q12 -6 30 -6h21q3 2 8.5 4t9.5 4q4 3 8.5 6t5.5 7q10 5 15 16zM1839 203q-7 -7 -14 -25q-2 -4 -4 -10t-2 -14q0 -10 6 -27.5t14 -24.5q10 -10 23 -16q13 -4 28 -4q5 0 10 1t11 1q3 2 8.5 5t9.5 7q2 0 8 2h13q2 0 8 -2q2 -1 8 -6l6 -8l-6 -8t-8 -8q-6 -3 -11 -6 t-12 -7q-5 -3 -16.5 -6.5t-17.5 -3.5h-11q-12 0 -23.5 2t-21.5 4q-21 10 -35 27q-16 15 -22 35q-4 10 -7 20t-3 23q0 9 1 14.5t3 13.5q2 17 10 25l9 13.5t9 10.5l25 19l27 10q5 0 12.5 1t15.5 1h13q4 0 16 -3t16 -5l23 -14q4 -4 7.5 -8.5t6.5 -8.5l-14 -16h-15q-7 0 -14 4 q-3 2 -8.5 5t-9.5 5q-9 2 -11 2h-10q-16 0 -28 -6q-16 -2 -23 -14zM1700 133q5 -9 6 -20q0 -15 -8 -29l-8 -13q-3 -5 -9 -8q-6 -6 -11 -10t-13 -6q-5 -2 -14 -3t-15 -1q-12 0 -33 4q-10 4 -22 19q-4 1 -6 5l-4 9q-6 2 -7 10l7 4l8 2l2 2h10q13 -3 14 -4q5 -4 9 -6t6 -4 q2 0 6 -1t10 -1h5q9 2 13 3.5t7 4.5q2 2 4.5 4t3.5 4q2 4 4 7.5t2 7.5q0 6 -6 10q-4 6 -8 6q-2 4 -6.5 5t-7.5 3q-5 0 -13 6q-5 0 -9.5 1t-10.5 6q-10 3 -13.5 6.5l-7.5 7.5q-12 4 -12 14q-6 12 -6 25q0 19 6 26q1 4 6 11l8 10q4 2 9.5 4t13.5 6q6 0 11 1t13 1q4 0 8.5 -1 t10.5 -1l16 -6q3 -4 6.5 -7t7.5 -7q3 -2 7 -5.5t4 -7.5l-14 -8l-21 -4l-6 2q-3 1 -6 4q-2 0 -3.5 1t-4.5 1h-17q-2 0 -3 -1t-5 -3l-7 -6q-1 -3 -1 -10q3 -6 4.5 -9.5t3.5 -7.5h6q9 -2 14 -5t11 -5l8 -2q5 -4 9.5 -5.5t10.5 -4.5q6 -2 16.5 -13.5t10.5 -17.5zM1579 336 q-12 9 -16 20q-6 15 -7 31v16l11 19q2 2 4.5 6t7.5 8q6 9 12 10q3 5 9 6t10 3q4 0 8 2t10 2q4 0 10.5 -2t10.5 -2q4 -2 8 -3t8 -6l12 -10l13 -14q2 -4 4 -8.5t4 -10.5q0 -4 1 -9t1 -7q0 -6 -1 -14t-5 -17q-4 -13 -17 -20q-4 -4 -9 -8t-13 -9q-11 -2 -27 -2h-15q-4 0 -11 2 q-16 4 -23 17zM2165 127q5 13 6 27q0 16 -6 24q-3 14 -14 24.5t-25 14.5q-4 4 -11.5 5t-17.5 1q-11 0 -26 -6q-7 -1 -12 -4.5t-11 -9.5q-9 -6 -16 -25q0 -4 -1 -10t-1 -14q0 -9 1 -15t1 -12q9 -17 16 -25q6 -4 11 -8t12 -8q7 -2 14.5 -3t11.5 -1q21 0 29 4q29 11 39 41z M2284 336q-6 -4 -12.5 -8t-12.5 -9q-9 -2 -13 -2h-29q-4 0 -13 2q-12 4 -23 17q-7 7 -14 20q-2 9 -4 17t-2 14q0 2 1 7t1 9q2 4 3 9.5t5 9.5q2 3 5 6.5t5 7.5q7 5 17 10q3 5 8.5 6t7.5 3q5 0 8.5 2t11.5 2q2 0 7.5 -2t11.5 -2q4 -2 8 -3t6 -6q4 -2 9 -5t8 -5q1 -2 2 -3.5 t2 -3.5l4 -7q6 -11 8 -19q2 -4 3 -9t1 -7q0 -6 -1 -14t-5 -17q0 -6 -6 -11zM1108 154q0 15 -4 24q-4 18 -19 25q-2 6 -8 9t-12 5q-11 6 -29 6q-14 0 -26 -6q-11 -1 -23 -14q-9 -5 -14 -25q-5 -5 -6 -11v-28q0 -4 6 -12q5 -15 13.5 -24t23.5 -17q10 -4 26 -4q19 0 29 4 q15 7 20 16q14 5 18.5 22t4.5 30zM774 262h139v-39h-100v-56h82v-38h-82v-86h-39v219zM571 223h-59v-180h-43v180h-63v39h165v-39zM1389 262h165v-39h-65v-180h-39v180h-61v39zM1366 1315q17 -9 36 -21t36 -23h-324q36 30 74 44q39 18 88 18q47 0 90 -18zM1188 864 q-19 7 -37 19t-35 26h322q-17 -14 -36 -26t-36 -19q-23 -6 -45.5 -11t-44.5 -5q-25 0 -46 5t-42 11zM559 604l-47 68q4 0 12 4q7 3 8 10q9 6 9 12v25q-6 15 -13 20q-5 9 -14 9q-2 4 -7 5t-9 1h-56v-154h23v64h24l39 -56q1 -4 7 -6zM1169 604l-67 154h-21l-67 -154h12 q7 0 10 2q0 2 6 6l11 27h77l11 -27q1 -4 6 -6q2 -2 8 -2h14zM1931 721q2 -2 6.5 -8t5.5 -11q4 -7 5 -23q0 -13 -5 -22q-1 -4 -6 -10l-6 -6q-5 -4 -9.5 -7t-8.5 -7q-9 -4 -23 -4q-15 0 -22 4q-5 4 -10 7t-9 7q-3 2 -6.5 7t-3.5 9q-4 6 -5 11.5t-1 10.5q0 12 6 23q0 5 3 11 t7 8q9 9 19.5 12.5t21.5 3.5q13 0 23 -4zM801 721q6 -2 9 -8t5 -11q4 -7 4 -23q0 -11 -4 -22q-2 -4 -5 -9t-9 -7q-5 -10 -17 -14t-22 -4q-11 0 -23 4q-4 4 -9 7t-9 7q-2 2 -6 7t-6 9q-4 12 -4 22q0 21 9 32.5t25 21.5q5 2 12 3t11 1q14 0 22 -4q13 -5 17 -12zM295 690 q5 13 6 19q0 10 -6 20q0 2 -4 6l-6 6q-2 3 -5.5 7t-9.5 4q-2 4 -8 5t-10 1h-53v-154h18v58h35q4 0 10 0.5t8 3.5q11 4 15 10q4 2 7 6t3 8zM2218 332h31l6 3q5 4 9.5 6t8.5 5l3 6q3 6 6.5 11.5t3.5 9.5v34q-2 6 -6.5 10.5t-6.5 8.5q-6 2 -10 5t-8 7h-43q-6 -4 -10 -7t-9 -5 q-7 -5 -12 -19q-2 -9 -2 -12v-22q0 -4 1 -9t5 -8l4 -4q3 -3 4 -6l6 -4q7 -5 11.5 -6.5t7.5 -3.5zM2126 758h-21v-119l-2.5 5t-3.5 5l-74 103l-4 6h-24v-154h22v121l90 -121h17v154zM1579 407q-3 -6 -4.5 -12t-1.5 -8v-8q3 -15 8 -23q0 -2 2 -4t4 -6l6 -4q2 -2 9 -2 q2 -4 6 -5t6 -3h28q5 2 8 3t7 5l10 6q2 4 5 6t3 4q2 3 3 8t3 9q0 2 1 6t1 8q0 2 -1 8t-5 12q0 6 -4 10.5t-6 8.5q-3 1 -8 6l-10 6h-43q-4 -4 -9.5 -7t-9.5 -5q-2 -3 -5 -8t-3 -11zM997 758h-18v-119l-78 113q-4 0 -6 6h-25v-154h21v125h2l2 -2v-4l86 -119h16v154zM2114 381 q-4 -1 -7.5 -2t-5.5 -2l45 -60h-12q-7 2 -8.5 3.5t-1.5 5.5l-39 51h-27v-60h-16v138h57q3 0 10 -2q2 -2 5.5 -4.5t4.5 -4.5q4 -2 5.5 -6t7.5 -8v-27q-4 -4 -5 -8t-3 -6zM1343 381q-3 -3 -12 -4l47 -60h-15q-10 3 -9 9l-39 51h-28v-60h-13v138h56q10 -2 14.5 -4.5t9.5 -6.5 q0 -2 3 -6t3 -8l2 -20q-3 -17 -6 -21l-6 -4q-2 -2 -7 -4zM412 758h-97v-154h97v21h-74v47h59v18h-59v45h74v23zM1722 758h-94v-154h94v21h-71v47h59v18h-59v45h71v23zM2460 453l18 2v-138h-12v113l-2 -2v-2q-4 -7 -7 -17t-8 -14q-4 -7 -6 -13.5t-8 -14.5q-2 -9 -3 -15 t-5 -10q-3 -9 -6.5 -13.5t-5.5 -11.5h-15q-10 13 -15 26t-11 28q-4 12 -11.5 26.5t-11.5 28.5v2h-4v-111h-14v138h14l8 -4v-5l49 -106l3 -2v4q0 1 8 6l40 98q2 5 3.5 5t1.5 2zM1479 758h-21v-103q0 -3 -2 -8q-1 -7 -10 -12q0 -2 -4 -4t-6 -6l-9 -2h-8q-7 0 -14 2 q-5 4 -8.5 6t-5.5 4l-11 12q0 3 -1 7.5t-1 11.5v92h-20v-92q0 -7 1.5 -17.5t6.5 -15.5q2 -6 10 -12q2 -3 4.5 -6t8.5 -5q2 -2 6 -3t8 -3q4 0 7 -1t9 -1q4 0 7.5 1t11.5 1q2 2 5 3t7 3q9 6 12 11q3 2 5.5 5t5.5 7q0 4 3 7t3 7v111zM663 631q2 5 3.5 8.5t1.5 9.5q0 11 -5.5 19 t-11.5 14q-2 0 -4 2t-6 4l-4 2h-4q-4 3 -6.5 3.5t-3.5 1.5q-7 2 -9 3.5t-6 3.5q-6 3 -9 3l-3 22q9 7 12 8l15 2q11 -3 12 -6l6 -2q10 0 14 4l4 2l-6 8q-2 1 -5 4t-7 5q-2 0 -4 2t-6 4h-29q-5 -2 -7.5 -4t-6.5 -4q-2 -5 -6 -8t-7 -7q0 -4 -2 -7t-2 -9q0 -7 4 -17l5 -8l6 -4 q2 -2 6 -5t7 -3l8 -5q2 -1 7 -1q1 -2 6 -2t7 -2l6 -2q5 -4 5.5 -5.5t2.5 -5.5l2 -16q-4 -5 -4 -7.5t-2 -4.5q-1 -3 -7 -5l-3 -1q-4 0 -8 -1t-5 -1q-5 0 -11.5 1.5t-6.5 6.5l-4 2q-4 4 -12 4h-5l-10 -4l10 -18h3q7 -7 16.5 -9t19.5 -2h9q5 0 12 2q4 2 9 4t7 5q4 2 7.5 6 t4.5 10zM1597 631q7 7 7 18t-4.5 19t-12.5 14q-6 5 -6 6h-4l-39 17l-6 6q0 1 -1 3.5t-1 4.5q0 4 4 8q5 4 6.5 6t5.5 2q2 2 10 2l3 -1q5 -2 8 -3l6 -2q6 -2 8 -2q7 0 8 4l6 2q0 2 -3 4t-5 4q0 1 -3 4l-5 5q-3 0 -5.5 2t-6.5 4h-6l-5 1q-6 0 -10 -0.5t-8 -0.5l-14 -8l-11 -15 q-1 -4 -3.5 -7t-2.5 -9q0 -4 2 -8t4 -9q2 -4 4.5 -7t4.5 -5q4 -2 7 -5t7 -3q9 -5 14 -6q4 -2 6.5 -2t6.5 -2q5 0 10.5 -3.5t5.5 -9.5l2 -15q-2 -7 -4 -9l-4 -4q-12 -9 -23 -8q-2 0 -6 1t-6 1q-3 1 -8 6l-3 2q-4 4 -9 4h-7l-10 -4l8 -10v-2q7 -5 9 -6q6 -7 14 -9t18 -2h12 q3 0 11 2q2 2 6 4t8 5l6 8q3 3 4 8zM1741 317h-17v138h19l82 -113v113h14v-138h-12l-82 113v4h-4v-117zM78 350q-4 4 -5.5 8t-2.5 9q-2 6 -3 10t-1 10t4 16q1 4 2.5 9.5t5.5 9.5l9 14q2 2 6.5 5t6.5 5q5 5 10 6t9 3q3 0 8.5 2t11.5 2q16 0 27 -8q14 -4 22 -15l-5 -6h-13 q-3 2 -6.5 5t-7.5 3h-37l-21 -12q-4 -3 -7.5 -7.5t-4.5 -11.5q-2 -6 -3 -12t-1 -8q0 -10 4 -14q0 -4 0.5 -9t0.5 -8l5 -4q5 -1 6 -6l8 -5q2 -1 7 -1q2 -4 5 -5t7 -3h33q2 2 7 3t9 5v29h-14v2l-6 4h-3l-1 8h38v-51q-2 -5 -4 -6.5t-6 -6.5h-12q-9 -2 -12 -2h-35q-5 0 -19 9 q-7 0 -13 10zM240 438v-43h55v-16h-55v-47h67v-15h-84v138h84v-17h-67zM1171 438v-43h60v-16h-60v-47h68v-15h-84v138h84v-17h-68zM2374 758h-19q-5 0 -9.5 -4t-4.5 -9l-37 -47h-4l-39 47q-3 14 -16 13h-17l58 -76v-3l4 -3v-72h21v70l5 5v3zM2253 625h-68v133h-22v-154h90 v21zM641 455v-84q0 -6 2 -9.5t6 -5.5q0 -6 3 -9.5t5 -4.5q0 -2 4.5 -4t6.5 -4q6 -2 8 -2h16q9 4 13 6l8 4q4 1 8 14q4 3 4 15v84h14v-84q0 -10 -3.5 -22t-12.5 -17q-5 -13 -16 -13q-6 -1 -12 -1.5t-11 -0.5t-11 0.5t-14 1.5q-3 0 -16 13l-10 16q-1 6 -3.5 11.5t-2.5 11.5v84 h14zM1270 625h-66v133h-20v-154h86v21zM1452 336q1 2 2 3.5t2 3.5q2 2 3 6.5t1 6.5q0 18 -16 23q-3 0 -13 4t-12 6q-10 0 -14 8q-2 0 -4 3l-4 6v23q0 1 2 7q0 9 8 10l6 5l4 2l4 2q4 0 6.5 2t8.5 2l10 -4q3 0 4.5 -1t5.5 -3q6 0 6 -7q5 0 7 -3l1 -3l-2 -2q-6 -2 -10 -2h-6 l-25 4q-9 0 -8 -2q-5 -7 -6 -8q-4 0 -4 -8q0 -5 4 -6q0 -4 4 -7l6 -4q4 -4 7.5 -4t7.5 -2l6 -2q3 0 8 -6h4l6 -2q5 -4 8 -7l5 -5q1 -5 1.5 -9.5t0.5 -9.5v-10q-5 -9 -7.5 -13t-7.5 -7q-2 -2 -6 -4.5t-6 -2.5q-4 -2 -10 -2h-10q-10 0 -17.5 1t-13.5 8q-2 0 -3 3t-5 5v4l-2 2 l4 2h6q1 0 3.5 -1t4.5 -1q4 -4 7 -5t5 -3h21q8 0 12 4zM1069 317l-59 138h5q11 0 15 -9l43 -104v-2h2l2 2q5 14 13 27.5t12 25.5q4 15 10 27l12 24q0 5 1.5 5t1.5 2l18 2q-7 -17 -15 -34.5t-16 -33.5q-4 -9 -7.5 -18.5t-6.5 -18.5l-15 -33h-16zM532 438v-49h60v-12h-60v-60 h-16v138h86v-17h-70zM1958 438v-49h55v-12h-55v-60h-16v138h83v-17h-67zM879 455v-123h63v-15h-80v138h17zM371 317v121h-47v17h106v-17h-47v-121h-12zM784 455v-123h64v-15h-80v138h16zM270 729q2 -1 3 -4.5t3 -5.5q3 -4 3 -10v-4q0 -2 -3 -7q-2 -2 -3 -5t-3 -3 q-1 -2 -3 -4t-5 -4h-45v53h35q4 0 10 -2zM1325 389q5 0 6 4q4 4 10 4l2 4q5 11 5 17q0 2 -1 3t-1 5q-3 2 -4 3t-1 5q-5 0 -10 4h-44v-49h38zM2101 393q4 4 8 4q5 7 5 9q2 4 2 12q0 3 -2 8q0 1 -5 8q-3 0 -8 4h-43v-49h35q4 1 8 4zM518 702l-4 -8q-2 0 -3 -2t-3 -2 q-2 -2 -10 -2h-33v47h33q3 0 10 -2l6 -4l2 -4l2 -4q3 -1 4 -10q-1 -6 -4 -9zM1524 455v-138h-17v138h17zM684 129l-29 74h-2l-30 -74h61zM1092 727v-4l28 -64h-59l29 64v6zM1755 82q6 0 6 -6l2 -10q0 -7 -2 -9q0 -4 -6 -10l-24 -4q-4 4 -9 4q0 2 -6 10q-2 2 -2 9v4l8 12 q7 4 9 4l15 4z" />
<glyph unicode="2" d="M2478 1092v-586h-2404v586h911q0 30 5 59t20 53q12 29 26.5 52.5t36.5 41.5q38 42 92 62q27 12 54.5 17t56.5 5q33 0 61.5 -6t53.5 -16q59 -29 94.5 -64.5t62.5 -95.5q19 -52 19 -108h911zM1010 1092q0 -61 18.5 -103t56.5 -88q38 -37 87 -58.5t104 -21.5q53 0 102 19 t85 59q21 19 35.5 40.5t25.5 43.5q21 54 22 109q0 46 -14.5 87.5t-44.5 77.5q-14 19 -29.5 32.5t-34.5 25.5q-18 7 -37.5 17.5t-39.5 17.5l-32.5 6.5t-37.5 3.5q-59 0 -107 -25q-49 -17 -84 -57q-36 -36 -55.5 -85.5t-19.5 -100.5zM1141 935l315 318q62 -78 62 -161 q0 -23 -3.5 -44.5t-11.5 -41.5q-14 -37 -41 -71h-321zM1094 928q-28 36 -43 76q-9 18 -12 40.5t-3 47.5q0 19 3 40t12 42q4 19 14 36t25 33h319zM2195 207q3 -4 6 -10.5t5 -14.5q4 -7 4 -15v-30q0 -7 -4 -12q-2 -7 -5 -15t-6 -14q-4 -7 -16 -20l-12 -10t-13 -9 q-5 -5 -12.5 -7.5l-13.5 -4.5q-9 -2 -14 -2h-17q-20 0 -43 6q-9 6 -16.5 12.5t-16.5 14.5q-9 6 -14.5 14t-7.5 21q-6 10 -8 20t-2 23q0 9 1 14.5t1 13.5q3 7 6.5 14t7.5 11q2 9 6 13.5t10 10.5q3 4 10 8.5t13 10.5q4 2 11 4t13 6q11 0 17 1t12 1q10 0 17.5 -1t13.5 -1 q6 -4 13 -6t13 -4q14 -11 25 -19q2 -6 8 -10.5t8 -13.5zM1135 207q2 -4 4 -10.5t6 -14.5q2 -11 2 -15v-30q0 -5 -2 -12q-3 -7 -5.5 -15t-4.5 -14q-5 -4 -10 -10t-9 -10q-15 -15 -23 -19.5t-26 -11.5q-4 -1 -7.5 -1.5t-7.5 -0.5h-16q-10 0 -20 2t-23 4q-12 6 -19 12.5 t-16 14.5q-16 15 -23 35.5t-7 42.5v13q0 4 2 15q5 18 12 25q4 9 8 13.5t8 10.5q7 4 12 8.5t11 10.5l29 10q4 0 11 1t15 1q9 0 16 -1t15 -1q6 -4 13 -6l14 -4l22 -19q4 -6 9 -10.5t10 -13.5zM2433 260l1 1l44 1v-219h-37v160l-6 -10v-6q-9 -19 -15.5 -38.5t-15.5 -33.5 q-6 -19 -12 -35.5t-14 -36.5h-37l-55 139q-5 3 -5 11l-4 6v-156h-41v219h39q5 0 7 -1t4 -1q2 -2 3 -2t3 -2l8 -4q0 -2 2 -4t2 -4q4 -17 11 -32t16 -34q6 -16 12 -32.5t12 -30.5v-13l6 13l9 14l45 115l4 8l6 4q2 2 4 2t4 2zM1329 262h38v-219h-36l-100 147l-4 3v2 q-5 10 -7.5 12t-5.5 2v-166h-39v219h35q4 0 8.5 -1t4.5 -3q3 -2 5.5 -2t4.5 -2l22 -33q5 -9 10 -17.5t11 -17.5q14 -14 24.5 -29.5t24.5 -29.5q0 -2 1 -5t1 -7l2 -5v152zM672 262l94 -219h-25q-9 0 -16 4q-2 2 -4 7t-6 9l-13 27h-100l-10 -27q0 -6 -4 -6l-8 -10 q-2 0 -3.5 -1t-5.5 -1l-30 -2l96 219h35zM260 262h139v-39h-100v-49h82v-41h-82v-51h100v-39h-139v219zM74 262h159v-24l-8 -15l-106 -143h2l2 2h108v-39h-165v14q0 10 2 11q0 2 6 8v4l2 4l4 4t2 6l94 129h-102v39zM838 659q1 6 2.5 10.5t1.5 9.5q0 13 -4 23q0 5 -3.5 9 t-5.5 10q-2 3 -5 6.5t-7 7.5l-7 6q-2 3 -9 9l-8 4q-2 1 -5 2l-6 2h-41q-11 -4 -18 -8q-4 -5 -8 -8t-8 -7q-12 -9 -13 -14q-4 -6 -5 -10t-3 -9q-1 -5 -1.5 -10.5t-0.5 -12.5q0 -16 6.5 -29t16.5 -25q12 -15 26 -15q12 -6 29 -6h20q6 2 11 4t8 4q12 5 16 13q7 7 12 16 q2 4 5.5 9t3.5 9zM1966 659v43q-2 5 -3.5 9.5t-4.5 9.5q-5 6 -15 14q-1 4 -5.5 7t-8.5 8q-2 1 -4.5 2t-5.5 2l-8 4h-41q-5 -2 -10.5 -4t-10.5 -4q-3 -5 -6.5 -8t-7.5 -7q-3 -4 -6.5 -7t-5.5 -7q-2 -6 -5 -10t-3 -9q-5 -11 -5 -23q0 -5 2.5 -13.5t6.5 -14.5q5 -16 16 -26 q9 -15 25 -15q12 -6 30 -6h21q3 2 8.5 4t9.5 4q4 3 8.5 6t5.5 7q10 5 15 16zM1839 203q-7 -7 -14 -25q-2 -4 -4 -10t-2 -14q0 -10 6 -27.5t14 -24.5q10 -10 23 -16q13 -4 28 -4q5 0 10 1t11 1q3 2 8.5 5t9.5 7q2 0 8 2h13q2 0 8 -2q2 -1 8 -6l6 -8l-6 -8t-8 -8q-6 -3 -11 -6 t-12 -7q-5 -3 -16.5 -6.5t-17.5 -3.5h-11q-12 0 -23.5 2t-21.5 4q-21 10 -35 27q-16 15 -22 35q-4 10 -7 20t-3 23q0 9 1 14.5t3 13.5q2 17 10 25l9 13.5t9 10.5l25 19l27 10q5 0 12.5 1t15.5 1h13q4 0 16 -3t16 -5l23 -14q4 -4 7.5 -8.5t6.5 -8.5l-14 -16h-15q-7 0 -14 4 q-3 2 -8.5 5t-9.5 5q-9 2 -11 2h-10q-16 0 -28 -6q-16 -2 -23 -14zM1700 133q5 -9 6 -20q0 -15 -8 -29l-8 -13q-3 -5 -9 -8q-6 -6 -11 -10t-13 -6q-5 -2 -14 -3t-15 -1q-12 0 -33 4q-10 4 -22 19q-4 1 -6 5l-4 9q-6 2 -7 10l7 4l8 2l2 2h10q13 -3 14 -4q5 -4 9 -6t6 -4 q2 0 6 -1t10 -1h5q9 2 13 3.5t7 4.5q2 2 4.5 4t3.5 4q2 4 4 7.5t2 7.5q0 6 -6 10q-4 6 -8 6q-2 4 -6.5 5t-7.5 3q-5 0 -13 6q-5 0 -9.5 1t-10.5 6q-10 3 -13.5 6.5l-7.5 7.5q-12 4 -12 14q-6 12 -6 25q0 19 6 26q1 4 6 11l8 10q4 2 9.5 4t13.5 6q6 0 11 1t13 1q4 0 8.5 -1 t10.5 -1l16 -6q3 -4 6.5 -7t7.5 -7q3 -2 7 -5.5t4 -7.5l-14 -8l-21 -4l-6 2q-3 1 -6 4q-2 0 -3.5 1t-4.5 1h-17q-2 0 -3 -1t-5 -3l-7 -6q-1 -3 -1 -10q3 -6 4.5 -9.5t3.5 -7.5h6q9 -2 14 -5t11 -5l8 -2q5 -4 9.5 -5.5t10.5 -4.5q6 -2 16.5 -13.5t10.5 -17.5zM1579 336 q-12 9 -16 20q-6 15 -7 31v16l11 19q2 2 4.5 6t7.5 8q6 9 12 10q3 5 9 6t10 3q4 0 8 2t10 2q4 0 10.5 -2t10.5 -2q4 -2 8 -3t8 -6l12 -10l13 -14q2 -4 4 -8.5t4 -10.5q0 -4 1 -9t1 -7q0 -6 -1 -14t-5 -17q-4 -13 -17 -20q-4 -4 -9 -8t-13 -9q-11 -2 -27 -2h-15q-4 0 -11 2 q-16 4 -23 17zM2165 127q5 13 6 27q0 16 -6 24q-3 14 -14 24.5t-25 14.5q-4 4 -11.5 5t-17.5 1q-11 0 -26 -6q-7 -1 -12 -4.5t-11 -9.5q-9 -6 -16 -25q0 -4 -1 -10t-1 -14q0 -9 1 -15t1 -12q9 -17 16 -25q6 -4 11 -8t12 -8q7 -2 14.5 -3t11.5 -1q21 0 29 4q29 11 39 41z M2284 336q-6 -4 -12.5 -8t-12.5 -9q-9 -2 -13 -2h-29q-4 0 -13 2q-12 4 -23 17q-7 7 -14 20q-2 9 -4 17t-2 14q0 2 1 7t1 9q2 4 3 9.5t5 9.5q2 3 5 6.5t5 7.5q7 5 17 10q3 5 8.5 6t7.5 3q5 0 8.5 2t11.5 2q2 0 7.5 -2t11.5 -2q4 -2 8 -3t6 -6q4 -2 9 -5t8 -5q1 -2 2 -3.5 t2 -3.5l4 -7q6 -11 8 -19q2 -4 3 -9t1 -7q0 -6 -1 -14t-5 -17q0 -6 -6 -11zM1108 154q0 15 -4 24q-4 18 -19 25q-2 6 -8 9t-12 5q-11 6 -29 6q-14 0 -26 -6q-11 -1 -23 -14q-9 -5 -14 -25q-5 -5 -6 -11v-28q0 -4 6 -12q5 -15 13.5 -24t23.5 -17q10 -4 26 -4q19 0 29 4 q15 7 20 16q14 5 18.5 22t4.5 30zM774 262h139v-39h-100v-56h82v-38h-82v-86h-39v219zM571 223h-59v-180h-43v180h-63v39h165v-39zM1389 262h165v-39h-65v-180h-39v180h-61v39zM1366 1315q17 -9 36 -21t36 -23h-324q36 30 74 44q39 18 88 18q47 0 90 -18zM1188 864 q-19 7 -37 19t-35 26h322q-17 -14 -36 -26t-36 -19q-23 -6 -45.5 -11t-44.5 -5q-25 0 -46 5t-42 11zM559 604l-47 68q4 0 12 4q7 3 8 10q9 6 9 12v25q-6 15 -13 20q-5 9 -14 9q-2 4 -7 5t-9 1h-56v-154h23v64h24l39 -56q1 -4 7 -6zM1169 604l-67 154h-21l-67 -154h12 q7 0 10 2q0 2 6 6l11 27h77l11 -27q1 -4 6 -6q2 -2 8 -2h14zM1931 721q2 -2 6.5 -8t5.5 -11q4 -7 5 -23q0 -13 -5 -22q-1 -4 -6 -10l-6 -6q-5 -4 -9.5 -7t-8.5 -7q-9 -4 -23 -4q-15 0 -22 4q-5 4 -10 7t-9 7q-3 2 -6.5 7t-3.5 9q-4 6 -5 11.5t-1 10.5q0 12 6 23q0 5 3 11 t7 8q9 9 19.5 12.5t21.5 3.5q13 0 23 -4zM801 721q6 -2 9 -8t5 -11q4 -7 4 -23q0 -11 -4 -22q-2 -4 -5 -9t-9 -7q-5 -10 -17 -14t-22 -4q-11 0 -23 4q-4 4 -9 7t-9 7q-2 2 -6 7t-6 9q-4 12 -4 22q0 21 9 32.5t25 21.5q5 2 12 3t11 1q14 0 22 -4q13 -5 17 -12zM295 690 q5 13 6 19q0 10 -6 20q0 2 -4 6l-6 6q-2 3 -5.5 7t-9.5 4q-2 4 -8 5t-10 1h-53v-154h18v58h35q4 0 10 0.5t8 3.5q11 4 15 10q4 2 7 6t3 8zM2218 332h31l6 3q5 4 9.5 6t8.5 5l3 6q3 6 6.5 11.5t3.5 9.5v34q-2 6 -6.5 10.5t-6.5 8.5q-6 2 -10 5t-8 7h-43q-6 -4 -10 -7t-9 -5 q-7 -5 -12 -19q-2 -9 -2 -12v-22q0 -4 1 -9t5 -8l4 -4q3 -3 4 -6l6 -4q7 -5 11.5 -6.5t7.5 -3.5zM2126 758h-21v-119l-2.5 5t-3.5 5l-74 103l-4 6h-24v-154h22v121l90 -121h17v154zM1579 407q-3 -6 -4.5 -12t-1.5 -8v-8q3 -15 8 -23q0 -2 2 -4t4 -6l6 -4q2 -2 9 -2 q2 -4 6 -5t6 -3h28q5 2 8 3t7 5l10 6q2 4 5 6t3 4q2 3 3 8t3 9q0 2 1 6t1 8q0 2 -1 8t-5 12q0 6 -4 10.5t-6 8.5q-3 1 -8 6l-10 6h-43q-4 -4 -9.5 -7t-9.5 -5q-2 -3 -5 -8t-3 -11zM997 758h-18v-119l-78 113q-4 0 -6 6h-25v-154h21v125h2l2 -2v-4l86 -119h16v154zM2114 381 q-4 -1 -7.5 -2t-5.5 -2l45 -60h-12q-7 2 -8.5 3.5t-1.5 5.5l-39 51h-27v-60h-16v138h57q3 0 10 -2q2 -2 5.5 -4.5t4.5 -4.5q4 -2 5.5 -6t7.5 -8v-27q-4 -4 -5 -8t-3 -6zM1343 381q-3 -3 -12 -4l47 -60h-15q-10 3 -9 9l-39 51h-28v-60h-13v138h56q10 -2 14.5 -4.5t9.5 -6.5 q0 -2 3 -6t3 -8l2 -20q-3 -17 -6 -21l-6 -4q-2 -2 -7 -4zM412 758h-97v-154h97v21h-74v47h59v18h-59v45h74v23zM1722 758h-94v-154h94v21h-71v47h59v18h-59v45h71v23zM2460 453l18 2v-138h-12v113l-2 -2v-2q-4 -7 -7 -17t-8 -14q-4 -7 -6 -13.5t-8 -14.5q-2 -9 -3 -15 t-5 -10q-3 -9 -6.5 -13.5t-5.5 -11.5h-15q-10 13 -15 26t-11 28q-4 12 -11.5 26.5t-11.5 28.5v2h-4v-111h-14v138h14l8 -4v-5l49 -106l3 -2v4q0 1 8 6l40 98q2 5 3.5 5t1.5 2zM1479 758h-21v-103q0 -3 -2 -8q-1 -7 -10 -12q0 -2 -4 -4t-6 -6l-9 -2h-8q-7 0 -14 2 q-5 4 -8.5 6t-5.5 4l-11 12q0 3 -1 7.5t-1 11.5v92h-20v-92q0 -7 1.5 -17.5t6.5 -15.5q2 -6 10 -12q2 -3 4.5 -6t8.5 -5q2 -2 6 -3t8 -3q4 0 7 -1t9 -1q4 0 7.5 1t11.5 1q2 2 5 3t7 3q9 6 12 11q3 2 5.5 5t5.5 7q0 4 3 7t3 7v111zM663 631q2 5 3.5 8.5t1.5 9.5q0 11 -5.5 19 t-11.5 14q-2 0 -4 2t-6 4l-4 2h-4q-4 3 -6.5 3.5t-3.5 1.5q-7 2 -9 3.5t-6 3.5q-6 3 -9 3l-3 22q9 7 12 8l15 2q11 -3 12 -6l6 -2q10 0 14 4l4 2l-6 8q-2 1 -5 4t-7 5q-2 0 -4 2t-6 4h-29q-5 -2 -7.5 -4t-6.5 -4q-2 -5 -6 -8t-7 -7q0 -4 -2 -7t-2 -9q0 -7 4 -17l5 -8l6 -4 q2 -2 6 -5t7 -3l8 -5q2 -1 7 -1q1 -2 6 -2t7 -2l6 -2q5 -4 5.5 -5.5t2.5 -5.5l2 -16q-4 -5 -4 -7.5t-2 -4.5q-1 -3 -7 -5l-3 -1q-4 0 -8 -1t-5 -1q-5 0 -11.5 1.5t-6.5 6.5l-4 2q-4 4 -12 4h-5l-10 -4l10 -18h3q7 -7 16.5 -9t19.5 -2h9q5 0 12 2q4 2 9 4t7 5q4 2 7.5 6 t4.5 10zM1597 631q7 7 7 18t-4.5 19t-12.5 14q-6 5 -6 6h-4l-39 17l-6 6q0 1 -1 3.5t-1 4.5q0 4 4 8q5 4 6.5 6t5.5 2q2 2 10 2l3 -1q5 -2 8 -3l6 -2q6 -2 8 -2q7 0 8 4l6 2q0 2 -3 4t-5 4q0 1 -3 4l-5 5q-3 0 -5.5 2t-6.5 4h-6l-5 1q-6 0 -10 -0.5t-8 -0.5l-14 -8l-11 -15 q-1 -4 -3.5 -7t-2.5 -9q0 -4 2 -8t4 -9q2 -4 4.5 -7t4.5 -5q4 -2 7 -5t7 -3q9 -5 14 -6q4 -2 6.5 -2t6.5 -2q5 0 10.5 -3.5t5.5 -9.5l2 -15q-2 -7 -4 -9l-4 -4q-12 -9 -23 -8q-2 0 -6 1t-6 1q-3 1 -8 6l-3 2q-4 4 -9 4h-7l-10 -4l8 -10v-2q7 -5 9 -6q6 -7 14 -9t18 -2h12 q3 0 11 2q2 2 6 4t8 5l6 8q3 3 4 8zM1741 317h-17v138h19l82 -113v113h14v-138h-12l-82 113v4h-4v-117zM78 350q-4 4 -5.5 8t-2.5 9q-2 6 -3 10t-1 10t4 16q1 4 2.5 9.5t5.5 9.5l9 14q2 2 6.5 5t6.5 5q5 5 10 6t9 3q3 0 8.5 2t11.5 2q16 0 27 -8q14 -4 22 -15l-5 -6h-13 q-3 2 -6.5 5t-7.5 3h-37l-21 -12q-4 -3 -7.5 -7.5t-4.5 -11.5q-2 -6 -3 -12t-1 -8q0 -10 4 -14q0 -4 0.5 -9t0.5 -8l5 -4q5 -1 6 -6l8 -5q2 -1 7 -1q2 -4 5 -5t7 -3h33q2 2 7 3t9 5v29h-14v2l-6 4h-3l-1 8h38v-51q-2 -5 -4 -6.5t-6 -6.5h-12q-9 -2 -12 -2h-35q-5 0 -19 9 q-7 0 -13 10zM240 438v-43h55v-16h-55v-47h67v-15h-84v138h84v-17h-67zM1171 438v-43h60v-16h-60v-47h68v-15h-84v138h84v-17h-68zM2374 758h-19q-5 0 -9.5 -4t-4.5 -9l-37 -47h-4l-39 47q-3 14 -16 13h-17l58 -76v-3l4 -3v-72h21v70l5 5v3zM2253 625h-68v133h-22v-154h90 v21zM641 455v-84q0 -6 2 -9.5t6 -5.5q0 -6 3 -9.5t5 -4.5q0 -2 4.5 -4t6.5 -4q6 -2 8 -2h16q9 4 13 6l8 4q4 1 8 14q4 3 4 15v84h14v-84q0 -10 -3.5 -22t-12.5 -17q-5 -13 -16 -13q-6 -1 -12 -1.5t-11 -0.5t-11 0.5t-14 1.5q-3 0 -16 13l-10 16q-1 6 -3.5 11.5t-2.5 11.5v84 h14zM1270 625h-66v133h-20v-154h86v21zM1452 336q1 2 2 3.5t2 3.5q2 2 3 6.5t1 6.5q0 18 -16 23q-3 0 -13 4t-12 6q-10 0 -14 8q-2 0 -4 3l-4 6v23q0 1 2 7q0 9 8 10l6 5l4 2l4 2q4 0 6.5 2t8.5 2l10 -4q3 0 4.5 -1t5.5 -3q6 0 6 -7q5 0 7 -3l1 -3l-2 -2q-6 -2 -10 -2h-6 l-25 4q-9 0 -8 -2q-5 -7 -6 -8q-4 0 -4 -8q0 -5 4 -6q0 -4 4 -7l6 -4q4 -4 7.5 -4t7.5 -2l6 -2q3 0 8 -6h4l6 -2q5 -4 8 -7l5 -5q1 -5 1.5 -9.5t0.5 -9.5v-10q-5 -9 -7.5 -13t-7.5 -7q-2 -2 -6 -4.5t-6 -2.5q-4 -2 -10 -2h-10q-10 0 -17.5 1t-13.5 8q-2 0 -3 3t-5 5v4l-2 2 l4 2h6q1 0 3.5 -1t4.5 -1q4 -4 7 -5t5 -3h21q8 0 12 4zM1069 317l-59 138h5q11 0 15 -9l43 -104v-2h2l2 2q5 14 13 27.5t12 25.5q4 15 10 27l12 24q0 5 1.5 5t1.5 2l18 2q-7 -17 -15 -34.5t-16 -33.5q-4 -9 -7.5 -18.5t-6.5 -18.5l-15 -33h-16zM532 438v-49h60v-12h-60v-60 h-16v138h86v-17h-70zM1958 438v-49h55v-12h-55v-60h-16v138h83v-17h-67zM879 455v-123h63v-15h-80v138h17zM371 317v121h-47v17h106v-17h-47v-121h-12zM784 455v-123h64v-15h-80v138h16zM270 729q2 -1 3 -4.5t3 -5.5q3 -4 3 -10v-4q0 -2 -3 -7q-2 -2 -3 -5t-3 -3 q-1 -2 -3 -4t-5 -4h-45v53h35q4 0 10 -2zM1325 389q5 0 6 4q4 4 10 4l2 4q5 11 5 17q0 2 -1 3t-1 5q-3 2 -4 3t-1 5q-5 0 -10 4h-44v-49h38zM2101 393q4 4 8 4q5 7 5 9q2 4 2 12q0 3 -2 8q0 1 -5 8q-3 0 -8 4h-43v-49h35q4 1 8 4zM518 702l-4 -8q-2 0 -3 -2t-3 -2 q-2 -2 -10 -2h-33v47h33q3 0 10 -2l6 -4l2 -4l2 -4q3 -1 4 -10q-1 -6 -4 -9zM1524 455v-138h-17v138h17zM684 129l-29 74h-2l-30 -74h61zM1092 727v-4l28 -64h-59l29 64v6zM1755 82q6 0 6 -6l2 -10q0 -7 -2 -9q0 -4 -6 -10l-24 -4q-4 4 -9 4q0 2 -6 10q-2 2 -2 9v4l8 12 q7 4 9 4l15 4z" />
<glyph unicode="3" d="M2478 1092v-586h-2404v586h911q0 30 5 59t20 53q12 29 26.5 52.5t36.5 41.5q38 42 92 62q27 12 54.5 17t56.5 5q33 0 61.5 -6t53.5 -16q59 -29 94.5 -64.5t62.5 -95.5q19 -52 19 -108h911zM1010 1092q0 -61 18.5 -103t56.5 -88q38 -37 87 -58.5t104 -21.5q53 0 102 19 t85 59q21 19 35.5 40.5t25.5 43.5q21 54 22 109q0 46 -14.5 87.5t-44.5 77.5q-14 19 -29.5 32.5t-34.5 25.5q-18 7 -37.5 17.5t-39.5 17.5l-32.5 6.5t-37.5 3.5q-59 0 -107 -25q-49 -17 -84 -57q-36 -36 -55.5 -85.5t-19.5 -100.5zM1141 935l315 318q62 -78 62 -161 q0 -23 -3.5 -44.5t-11.5 -41.5q-14 -37 -41 -71h-321zM1094 928q-28 36 -43 76q-9 18 -12 40.5t-3 47.5q0 19 3 40t12 42q4 19 14 36t25 33h319zM2195 207q3 -4 6 -10.5t5 -14.5q4 -7 4 -15v-30q0 -7 -4 -12q-2 -7 -5 -15t-6 -14q-4 -7 -16 -20l-12 -10t-13 -9 q-5 -5 -12.5 -7.5l-13.5 -4.5q-9 -2 -14 -2h-17q-20 0 -43 6q-9 6 -16.5 12.5t-16.5 14.5q-9 6 -14.5 14t-7.5 21q-6 10 -8 20t-2 23q0 9 1 14.5t1 13.5q3 7 6.5 14t7.5 11q2 9 6 13.5t10 10.5q3 4 10 8.5t13 10.5q4 2 11 4t13 6q11 0 17 1t12 1q10 0 17.5 -1t13.5 -1 q6 -4 13 -6t13 -4q14 -11 25 -19q2 -6 8 -10.5t8 -13.5zM1135 207q2 -4 4 -10.5t6 -14.5q2 -11 2 -15v-30q0 -5 -2 -12q-3 -7 -5.5 -15t-4.5 -14q-5 -4 -10 -10t-9 -10q-15 -15 -23 -19.5t-26 -11.5q-4 -1 -7.5 -1.5t-7.5 -0.5h-16q-10 0 -20 2t-23 4q-12 6 -19 12.5 t-16 14.5q-16 15 -23 35.5t-7 42.5v13q0 4 2 15q5 18 12 25q4 9 8 13.5t8 10.5q7 4 12 8.5t11 10.5l29 10q4 0 11 1t15 1q9 0 16 -1t15 -1q6 -4 13 -6l14 -4l22 -19q4 -6 9 -10.5t10 -13.5zM2433 260l1 1l44 1v-219h-37v160l-6 -10v-6q-9 -19 -15.5 -38.5t-15.5 -33.5 q-6 -19 -12 -35.5t-14 -36.5h-37l-55 139q-5 3 -5 11l-4 6v-156h-41v219h39q5 0 7 -1t4 -1q2 -2 3 -2t3 -2l8 -4q0 -2 2 -4t2 -4q4 -17 11 -32t16 -34q6 -16 12 -32.5t12 -30.5v-13l6 13l9 14l45 115l4 8l6 4q2 2 4 2t4 2zM1329 262h38v-219h-36l-100 147l-4 3v2 q-5 10 -7.5 12t-5.5 2v-166h-39v219h35q4 0 8.5 -1t4.5 -3q3 -2 5.5 -2t4.5 -2l22 -33q5 -9 10 -17.5t11 -17.5q14 -14 24.5 -29.5t24.5 -29.5q0 -2 1 -5t1 -7l2 -5v152zM672 262l94 -219h-25q-9 0 -16 4q-2 2 -4 7t-6 9l-13 27h-100l-10 -27q0 -6 -4 -6l-8 -10 q-2 0 -3.5 -1t-5.5 -1l-30 -2l96 219h35zM260 262h139v-39h-100v-49h82v-41h-82v-51h100v-39h-139v219zM74 262h159v-24l-8 -15l-106 -143h2l2 2h108v-39h-165v14q0 10 2 11q0 2 6 8v4l2 4l4 4t2 6l94 129h-102v39zM838 659q1 6 2.5 10.5t1.5 9.5q0 13 -4 23q0 5 -3.5 9 t-5.5 10q-2 3 -5 6.5t-7 7.5l-7 6q-2 3 -9 9l-8 4q-2 1 -5 2l-6 2h-41q-11 -4 -18 -8q-4 -5 -8 -8t-8 -7q-12 -9 -13 -14q-4 -6 -5 -10t-3 -9q-1 -5 -1.5 -10.5t-0.5 -12.5q0 -16 6.5 -29t16.5 -25q12 -15 26 -15q12 -6 29 -6h20q6 2 11 4t8 4q12 5 16 13q7 7 12 16 q2 4 5.5 9t3.5 9zM1966 659v43q-2 5 -3.5 9.5t-4.5 9.5q-5 6 -15 14q-1 4 -5.5 7t-8.5 8q-2 1 -4.5 2t-5.5 2l-8 4h-41q-5 -2 -10.5 -4t-10.5 -4q-3 -5 -6.5 -8t-7.5 -7q-3 -4 -6.5 -7t-5.5 -7q-2 -6 -5 -10t-3 -9q-5 -11 -5 -23q0 -5 2.5 -13.5t6.5 -14.5q5 -16 16 -26 q9 -15 25 -15q12 -6 30 -6h21q3 2 8.5 4t9.5 4q4 3 8.5 6t5.5 7q10 5 15 16zM1839 203q-7 -7 -14 -25q-2 -4 -4 -10t-2 -14q0 -10 6 -27.5t14 -24.5q10 -10 23 -16q13 -4 28 -4q5 0 10 1t11 1q3 2 8.5 5t9.5 7q2 0 8 2h13q2 0 8 -2q2 -1 8 -6l6 -8l-6 -8t-8 -8q-6 -3 -11 -6 t-12 -7q-5 -3 -16.5 -6.5t-17.5 -3.5h-11q-12 0 -23.5 2t-21.5 4q-21 10 -35 27q-16 15 -22 35q-4 10 -7 20t-3 23q0 9 1 14.5t3 13.5q2 17 10 25l9 13.5t9 10.5l25 19l27 10q5 0 12.5 1t15.5 1h13q4 0 16 -3t16 -5l23 -14q4 -4 7.5 -8.5t6.5 -8.5l-14 -16h-15q-7 0 -14 4 q-3 2 -8.5 5t-9.5 5q-9 2 -11 2h-10q-16 0 -28 -6q-16 -2 -23 -14zM1700 133q5 -9 6 -20q0 -15 -8 -29l-8 -13q-3 -5 -9 -8q-6 -6 -11 -10t-13 -6q-5 -2 -14 -3t-15 -1q-12 0 -33 4q-10 4 -22 19q-4 1 -6 5l-4 9q-6 2 -7 10l7 4l8 2l2 2h10q13 -3 14 -4q5 -4 9 -6t6 -4 q2 0 6 -1t10 -1h5q9 2 13 3.5t7 4.5q2 2 4.5 4t3.5 4q2 4 4 7.5t2 7.5q0 6 -6 10q-4 6 -8 6q-2 4 -6.5 5t-7.5 3q-5 0 -13 6q-5 0 -9.5 1t-10.5 6q-10 3 -13.5 6.5l-7.5 7.5q-12 4 -12 14q-6 12 -6 25q0 19 6 26q1 4 6 11l8 10q4 2 9.5 4t13.5 6q6 0 11 1t13 1q4 0 8.5 -1 t10.5 -1l16 -6q3 -4 6.5 -7t7.5 -7q3 -2 7 -5.5t4 -7.5l-14 -8l-21 -4l-6 2q-3 1 -6 4q-2 0 -3.5 1t-4.5 1h-17q-2 0 -3 -1t-5 -3l-7 -6q-1 -3 -1 -10q3 -6 4.5 -9.5t3.5 -7.5h6q9 -2 14 -5t11 -5l8 -2q5 -4 9.5 -5.5t10.5 -4.5q6 -2 16.5 -13.5t10.5 -17.5zM1579 336 q-12 9 -16 20q-6 15 -7 31v16l11 19q2 2 4.5 6t7.5 8q6 9 12 10q3 5 9 6t10 3q4 0 8 2t10 2q4 0 10.5 -2t10.5 -2q4 -2 8 -3t8 -6l12 -10l13 -14q2 -4 4 -8.5t4 -10.5q0 -4 1 -9t1 -7q0 -6 -1 -14t-5 -17q-4 -13 -17 -20q-4 -4 -9 -8t-13 -9q-11 -2 -27 -2h-15q-4 0 -11 2 q-16 4 -23 17zM2165 127q5 13 6 27q0 16 -6 24q-3 14 -14 24.5t-25 14.5q-4 4 -11.5 5t-17.5 1q-11 0 -26 -6q-7 -1 -12 -4.5t-11 -9.5q-9 -6 -16 -25q0 -4 -1 -10t-1 -14q0 -9 1 -15t1 -12q9 -17 16 -25q6 -4 11 -8t12 -8q7 -2 14.5 -3t11.5 -1q21 0 29 4q29 11 39 41z M2284 336q-6 -4 -12.5 -8t-12.5 -9q-9 -2 -13 -2h-29q-4 0 -13 2q-12 4 -23 17q-7 7 -14 20q-2 9 -4 17t-2 14q0 2 1 7t1 9q2 4 3 9.5t5 9.5q2 3 5 6.5t5 7.5q7 5 17 10q3 5 8.5 6t7.5 3q5 0 8.5 2t11.5 2q2 0 7.5 -2t11.5 -2q4 -2 8 -3t6 -6q4 -2 9 -5t8 -5q1 -2 2 -3.5 t2 -3.5l4 -7q6 -11 8 -19q2 -4 3 -9t1 -7q0 -6 -1 -14t-5 -17q0 -6 -6 -11zM1108 154q0 15 -4 24q-4 18 -19 25q-2 6 -8 9t-12 5q-11 6 -29 6q-14 0 -26 -6q-11 -1 -23 -14q-9 -5 -14 -25q-5 -5 -6 -11v-28q0 -4 6 -12q5 -15 13.5 -24t23.5 -17q10 -4 26 -4q19 0 29 4 q15 7 20 16q14 5 18.5 22t4.5 30zM774 262h139v-39h-100v-56h82v-38h-82v-86h-39v219zM571 223h-59v-180h-43v180h-63v39h165v-39zM1389 262h165v-39h-65v-180h-39v180h-61v39zM1366 1315q17 -9 36 -21t36 -23h-324q36 30 74 44q39 18 88 18q47 0 90 -18zM1188 864 q-19 7 -37 19t-35 26h322q-17 -14 -36 -26t-36 -19q-23 -6 -45.5 -11t-44.5 -5q-25 0 -46 5t-42 11zM559 604l-47 68q4 0 12 4q7 3 8 10q9 6 9 12v25q-6 15 -13 20q-5 9 -14 9q-2 4 -7 5t-9 1h-56v-154h23v64h24l39 -56q1 -4 7 -6zM1169 604l-67 154h-21l-67 -154h12 q7 0 10 2q0 2 6 6l11 27h77l11 -27q1 -4 6 -6q2 -2 8 -2h14zM1931 721q2 -2 6.5 -8t5.5 -11q4 -7 5 -23q0 -13 -5 -22q-1 -4 -6 -10l-6 -6q-5 -4 -9.5 -7t-8.5 -7q-9 -4 -23 -4q-15 0 -22 4q-5 4 -10 7t-9 7q-3 2 -6.5 7t-3.5 9q-4 6 -5 11.5t-1 10.5q0 12 6 23q0 5 3 11 t7 8q9 9 19.5 12.5t21.5 3.5q13 0 23 -4zM801 721q6 -2 9 -8t5 -11q4 -7 4 -23q0 -11 -4 -22q-2 -4 -5 -9t-9 -7q-5 -10 -17 -14t-22 -4q-11 0 -23 4q-4 4 -9 7t-9 7q-2 2 -6 7t-6 9q-4 12 -4 22q0 21 9 32.5t25 21.5q5 2 12 3t11 1q14 0 22 -4q13 -5 17 -12zM295 690 q5 13 6 19q0 10 -6 20q0 2 -4 6l-6 6q-2 3 -5.5 7t-9.5 4q-2 4 -8 5t-10 1h-53v-154h18v58h35q4 0 10 0.5t8 3.5q11 4 15 10q4 2 7 6t3 8zM2218 332h31l6 3q5 4 9.5 6t8.5 5l3 6q3 6 6.5 11.5t3.5 9.5v34q-2 6 -6.5 10.5t-6.5 8.5q-6 2 -10 5t-8 7h-43q-6 -4 -10 -7t-9 -5 q-7 -5 -12 -19q-2 -9 -2 -12v-22q0 -4 1 -9t5 -8l4 -4q3 -3 4 -6l6 -4q7 -5 11.5 -6.5t7.5 -3.5zM2126 758h-21v-119l-2.5 5t-3.5 5l-74 103l-4 6h-24v-154h22v121l90 -121h17v154zM1579 407q-3 -6 -4.5 -12t-1.5 -8v-8q3 -15 8 -23q0 -2 2 -4t4 -6l6 -4q2 -2 9 -2 q2 -4 6 -5t6 -3h28q5 2 8 3t7 5l10 6q2 4 5 6t3 4q2 3 3 8t3 9q0 2 1 6t1 8q0 2 -1 8t-5 12q0 6 -4 10.5t-6 8.5q-3 1 -8 6l-10 6h-43q-4 -4 -9.5 -7t-9.5 -5q-2 -3 -5 -8t-3 -11zM997 758h-18v-119l-78 113q-4 0 -6 6h-25v-154h21v125h2l2 -2v-4l86 -119h16v154zM2114 381 q-4 -1 -7.5 -2t-5.5 -2l45 -60h-12q-7 2 -8.5 3.5t-1.5 5.5l-39 51h-27v-60h-16v138h57q3 0 10 -2q2 -2 5.5 -4.5t4.5 -4.5q4 -2 5.5 -6t7.5 -8v-27q-4 -4 -5 -8t-3 -6zM1343 381q-3 -3 -12 -4l47 -60h-15q-10 3 -9 9l-39 51h-28v-60h-13v138h56q10 -2 14.5 -4.5t9.5 -6.5 q0 -2 3 -6t3 -8l2 -20q-3 -17 -6 -21l-6 -4q-2 -2 -7 -4zM412 758h-97v-154h97v21h-74v47h59v18h-59v45h74v23zM1722 758h-94v-154h94v21h-71v47h59v18h-59v45h71v23zM2460 453l18 2v-138h-12v113l-2 -2v-2q-4 -7 -7 -17t-8 -14q-4 -7 -6 -13.5t-8 -14.5q-2 -9 -3 -15 t-5 -10q-3 -9 -6.5 -13.5t-5.5 -11.5h-15q-10 13 -15 26t-11 28q-4 12 -11.5 26.5t-11.5 28.5v2h-4v-111h-14v138h14l8 -4v-5l49 -106l3 -2v4q0 1 8 6l40 98q2 5 3.5 5t1.5 2zM1479 758h-21v-103q0 -3 -2 -8q-1 -7 -10 -12q0 -2 -4 -4t-6 -6l-9 -2h-8q-7 0 -14 2 q-5 4 -8.5 6t-5.5 4l-11 12q0 3 -1 7.5t-1 11.5v92h-20v-92q0 -7 1.5 -17.5t6.5 -15.5q2 -6 10 -12q2 -3 4.5 -6t8.5 -5q2 -2 6 -3t8 -3q4 0 7 -1t9 -1q4 0 7.5 1t11.5 1q2 2 5 3t7 3q9 6 12 11q3 2 5.5 5t5.5 7q0 4 3 7t3 7v111zM663 631q2 5 3.5 8.5t1.5 9.5q0 11 -5.5 19 t-11.5 14q-2 0 -4 2t-6 4l-4 2h-4q-4 3 -6.5 3.5t-3.5 1.5q-7 2 -9 3.5t-6 3.5q-6 3 -9 3l-3 22q9 7 12 8l15 2q11 -3 12 -6l6 -2q10 0 14 4l4 2l-6 8q-2 1 -5 4t-7 5q-2 0 -4 2t-6 4h-29q-5 -2 -7.5 -4t-6.5 -4q-2 -5 -6 -8t-7 -7q0 -4 -2 -7t-2 -9q0 -7 4 -17l5 -8l6 -4 q2 -2 6 -5t7 -3l8 -5q2 -1 7 -1q1 -2 6 -2t7 -2l6 -2q5 -4 5.5 -5.5t2.5 -5.5l2 -16q-4 -5 -4 -7.5t-2 -4.5q-1 -3 -7 -5l-3 -1q-4 0 -8 -1t-5 -1q-5 0 -11.5 1.5t-6.5 6.5l-4 2q-4 4 -12 4h-5l-10 -4l10 -18h3q7 -7 16.5 -9t19.5 -2h9q5 0 12 2q4 2 9 4t7 5q4 2 7.5 6 t4.5 10zM1597 631q7 7 7 18t-4.5 19t-12.5 14q-6 5 -6 6h-4l-39 17l-6 6q0 1 -1 3.5t-1 4.5q0 4 4 8q5 4 6.5 6t5.5 2q2 2 10 2l3 -1q5 -2 8 -3l6 -2q6 -2 8 -2q7 0 8 4l6 2q0 2 -3 4t-5 4q0 1 -3 4l-5 5q-3 0 -5.5 2t-6.5 4h-6l-5 1q-6 0 -10 -0.5t-8 -0.5l-14 -8l-11 -15 q-1 -4 -3.5 -7t-2.5 -9q0 -4 2 -8t4 -9q2 -4 4.5 -7t4.5 -5q4 -2 7 -5t7 -3q9 -5 14 -6q4 -2 6.5 -2t6.5 -2q5 0 10.5 -3.5t5.5 -9.5l2 -15q-2 -7 -4 -9l-4 -4q-12 -9 -23 -8q-2 0 -6 1t-6 1q-3 1 -8 6l-3 2q-4 4 -9 4h-7l-10 -4l8 -10v-2q7 -5 9 -6q6 -7 14 -9t18 -2h12 q3 0 11 2q2 2 6 4t8 5l6 8q3 3 4 8zM1741 317h-17v138h19l82 -113v113h14v-138h-12l-82 113v4h-4v-117zM78 350q-4 4 -5.5 8t-2.5 9q-2 6 -3 10t-1 10t4 16q1 4 2.5 9.5t5.5 9.5l9 14q2 2 6.5 5t6.5 5q5 5 10 6t9 3q3 0 8.5 2t11.5 2q16 0 27 -8q14 -4 22 -15l-5 -6h-13 q-3 2 -6.5 5t-7.5 3h-37l-21 -12q-4 -3 -7.5 -7.5t-4.5 -11.5q-2 -6 -3 -12t-1 -8q0 -10 4 -14q0 -4 0.5 -9t0.5 -8l5 -4q5 -1 6 -6l8 -5q2 -1 7 -1q2 -4 5 -5t7 -3h33q2 2 7 3t9 5v29h-14v2l-6 4h-3l-1 8h38v-51q-2 -5 -4 -6.5t-6 -6.5h-12q-9 -2 -12 -2h-35q-5 0 -19 9 q-7 0 -13 10zM240 438v-43h55v-16h-55v-47h67v-15h-84v138h84v-17h-67zM1171 438v-43h60v-16h-60v-47h68v-15h-84v138h84v-17h-68zM2374 758h-19q-5 0 -9.5 -4t-4.5 -9l-37 -47h-4l-39 47q-3 14 -16 13h-17l58 -76v-3l4 -3v-72h21v70l5 5v3zM2253 625h-68v133h-22v-154h90 v21zM641 455v-84q0 -6 2 -9.5t6 -5.5q0 -6 3 -9.5t5 -4.5q0 -2 4.5 -4t6.5 -4q6 -2 8 -2h16q9 4 13 6l8 4q4 1 8 14q4 3 4 15v84h14v-84q0 -10 -3.5 -22t-12.5 -17q-5 -13 -16 -13q-6 -1 -12 -1.5t-11 -0.5t-11 0.5t-14 1.5q-3 0 -16 13l-10 16q-1 6 -3.5 11.5t-2.5 11.5v84 h14zM1270 625h-66v133h-20v-154h86v21zM1452 336q1 2 2 3.5t2 3.5q2 2 3 6.5t1 6.5q0 18 -16 23q-3 0 -13 4t-12 6q-10 0 -14 8q-2 0 -4 3l-4 6v23q0 1 2 7q0 9 8 10l6 5l4 2l4 2q4 0 6.5 2t8.5 2l10 -4q3 0 4.5 -1t5.5 -3q6 0 6 -7q5 0 7 -3l1 -3l-2 -2q-6 -2 -10 -2h-6 l-25 4q-9 0 -8 -2q-5 -7 -6 -8q-4 0 -4 -8q0 -5 4 -6q0 -4 4 -7l6 -4q4 -4 7.5 -4t7.5 -2l6 -2q3 0 8 -6h4l6 -2q5 -4 8 -7l5 -5q1 -5 1.5 -9.5t0.5 -9.5v-10q-5 -9 -7.5 -13t-7.5 -7q-2 -2 -6 -4.5t-6 -2.5q-4 -2 -10 -2h-10q-10 0 -17.5 1t-13.5 8q-2 0 -3 3t-5 5v4l-2 2 l4 2h6q1 0 3.5 -1t4.5 -1q4 -4 7 -5t5 -3h21q8 0 12 4zM1069 317l-59 138h5q11 0 15 -9l43 -104v-2h2l2 2q5 14 13 27.5t12 25.5q4 15 10 27l12 24q0 5 1.5 5t1.5 2l18 2q-7 -17 -15 -34.5t-16 -33.5q-4 -9 -7.5 -18.5t-6.5 -18.5l-15 -33h-16zM532 438v-49h60v-12h-60v-60 h-16v138h86v-17h-70zM1958 438v-49h55v-12h-55v-60h-16v138h83v-17h-67zM879 455v-123h63v-15h-80v138h17zM371 317v121h-47v17h106v-17h-47v-121h-12zM784 455v-123h64v-15h-80v138h16zM270 729q2 -1 3 -4.5t3 -5.5q3 -4 3 -10v-4q0 -2 -3 -7q-2 -2 -3 -5t-3 -3 q-1 -2 -3 -4t-5 -4h-45v53h35q4 0 10 -2zM1325 389q5 0 6 4q4 4 10 4l2 4q5 11 5 17q0 2 -1 3t-1 5q-3 2 -4 3t-1 5q-5 0 -10 4h-44v-49h38zM2101 393q4 4 8 4q5 7 5 9q2 4 2 12q0 3 -2 8q0 1 -5 8q-3 0 -8 4h-43v-49h35q4 1 8 4zM518 702l-4 -8q-2 0 -3 -2t-3 -2 q-2 -2 -10 -2h-33v47h33q3 0 10 -2l6 -4l2 -4l2 -4q3 -1 4 -10q-1 -6 -4 -9zM1524 455v-138h-17v138h17zM684 129l-29 74h-2l-30 -74h61zM1092 727v-4l28 -64h-59l29 64v6zM1755 82q6 0 6 -6l2 -10q0 -7 -2 -9q0 -4 -6 -10l-24 -4q-4 4 -9 4q0 2 -6 10q-2 2 -2 9v4l8 12 q7 4 9 4l15 4z" />
<glyph unicode="4" d="M2478 1092v-586h-2404v586h911q0 30 5 59t20 53q12 29 26.5 52.5t36.5 41.5q38 42 92 62q27 12 54.5 17t56.5 5q33 0 61.5 -6t53.5 -16q59 -29 94.5 -64.5t62.5 -95.5q19 -52 19 -108h911zM1010 1092q0 -61 18.5 -103t56.5 -88q38 -37 87 -58.5t104 -21.5q53 0 102 19 t85 59q21 19 35.5 40.5t25.5 43.5q21 54 22 109q0 46 -14.5 87.5t-44.5 77.5q-14 19 -29.5 32.5t-34.5 25.5q-18 7 -37.5 17.5t-39.5 17.5l-32.5 6.5t-37.5 3.5q-59 0 -107 -25q-49 -17 -84 -57q-36 -36 -55.5 -85.5t-19.5 -100.5zM1141 935l315 318q62 -78 62 -161 q0 -23 -3.5 -44.5t-11.5 -41.5q-14 -37 -41 -71h-321zM1094 928q-28 36 -43 76q-9 18 -12 40.5t-3 47.5q0 19 3 40t12 42q4 19 14 36t25 33h319zM2195 207q3 -4 6 -10.5t5 -14.5q4 -7 4 -15v-30q0 -7 -4 -12q-2 -7 -5 -15t-6 -14q-4 -7 -16 -20l-12 -10t-13 -9 q-5 -5 -12.5 -7.5l-13.5 -4.5q-9 -2 -14 -2h-17q-20 0 -43 6q-9 6 -16.5 12.5t-16.5 14.5q-9 6 -14.5 14t-7.5 21q-6 10 -8 20t-2 23q0 9 1 14.5t1 13.5q3 7 6.5 14t7.5 11q2 9 6 13.5t10 10.5q3 4 10 8.5t13 10.5q4 2 11 4t13 6q11 0 17 1t12 1q10 0 17.5 -1t13.5 -1 q6 -4 13 -6t13 -4q14 -11 25 -19q2 -6 8 -10.5t8 -13.5zM1135 207q2 -4 4 -10.5t6 -14.5q2 -11 2 -15v-30q0 -5 -2 -12q-3 -7 -5.5 -15t-4.5 -14q-5 -4 -10 -10t-9 -10q-15 -15 -23 -19.5t-26 -11.5q-4 -1 -7.5 -1.5t-7.5 -0.5h-16q-10 0 -20 2t-23 4q-12 6 -19 12.5 t-16 14.5q-16 15 -23 35.5t-7 42.5v13q0 4 2 15q5 18 12 25q4 9 8 13.5t8 10.5q7 4 12 8.5t11 10.5l29 10q4 0 11 1t15 1q9 0 16 -1t15 -1q6 -4 13 -6l14 -4l22 -19q4 -6 9 -10.5t10 -13.5zM2433 260l1 1l44 1v-219h-37v160l-6 -10v-6q-9 -19 -15.5 -38.5t-15.5 -33.5 q-6 -19 -12 -35.5t-14 -36.5h-37l-55 139q-5 3 -5 11l-4 6v-156h-41v219h39q5 0 7 -1t4 -1q2 -2 3 -2t3 -2l8 -4q0 -2 2 -4t2 -4q4 -17 11 -32t16 -34q6 -16 12 -32.5t12 -30.5v-13l6 13l9 14l45 115l4 8l6 4q2 2 4 2t4 2zM1329 262h38v-219h-36l-100 147l-4 3v2 q-5 10 -7.5 12t-5.5 2v-166h-39v219h35q4 0 8.5 -1t4.5 -3q3 -2 5.5 -2t4.5 -2l22 -33q5 -9 10 -17.5t11 -17.5q14 -14 24.5 -29.5t24.5 -29.5q0 -2 1 -5t1 -7l2 -5v152zM672 262l94 -219h-25q-9 0 -16 4q-2 2 -4 7t-6 9l-13 27h-100l-10 -27q0 -6 -4 -6l-8 -10 q-2 0 -3.5 -1t-5.5 -1l-30 -2l96 219h35zM260 262h139v-39h-100v-49h82v-41h-82v-51h100v-39h-139v219zM74 262h159v-24l-8 -15l-106 -143h2l2 2h108v-39h-165v14q0 10 2 11q0 2 6 8v4l2 4l4 4t2 6l94 129h-102v39zM838 659q1 6 2.5 10.5t1.5 9.5q0 13 -4 23q0 5 -3.5 9 t-5.5 10q-2 3 -5 6.5t-7 7.5l-7 6q-2 3 -9 9l-8 4q-2 1 -5 2l-6 2h-41q-11 -4 -18 -8q-4 -5 -8 -8t-8 -7q-12 -9 -13 -14q-4 -6 -5 -10t-3 -9q-1 -5 -1.5 -10.5t-0.5 -12.5q0 -16 6.5 -29t16.5 -25q12 -15 26 -15q12 -6 29 -6h20q6 2 11 4t8 4q12 5 16 13q7 7 12 16 q2 4 5.5 9t3.5 9zM1966 659v43q-2 5 -3.5 9.5t-4.5 9.5q-5 6 -15 14q-1 4 -5.5 7t-8.5 8q-2 1 -4.5 2t-5.5 2l-8 4h-41q-5 -2 -10.5 -4t-10.5 -4q-3 -5 -6.5 -8t-7.5 -7q-3 -4 -6.5 -7t-5.5 -7q-2 -6 -5 -10t-3 -9q-5 -11 -5 -23q0 -5 2.5 -13.5t6.5 -14.5q5 -16 16 -26 q9 -15 25 -15q12 -6 30 -6h21q3 2 8.5 4t9.5 4q4 3 8.5 6t5.5 7q10 5 15 16zM1839 203q-7 -7 -14 -25q-2 -4 -4 -10t-2 -14q0 -10 6 -27.5t14 -24.5q10 -10 23 -16q13 -4 28 -4q5 0 10 1t11 1q3 2 8.5 5t9.5 7q2 0 8 2h13q2 0 8 -2q2 -1 8 -6l6 -8l-6 -8t-8 -8q-6 -3 -11 -6 t-12 -7q-5 -3 -16.5 -6.5t-17.5 -3.5h-11q-12 0 -23.5 2t-21.5 4q-21 10 -35 27q-16 15 -22 35q-4 10 -7 20t-3 23q0 9 1 14.5t3 13.5q2 17 10 25l9 13.5t9 10.5l25 19l27 10q5 0 12.5 1t15.5 1h13q4 0 16 -3t16 -5l23 -14q4 -4 7.5 -8.5t6.5 -8.5l-14 -16h-15q-7 0 -14 4 q-3 2 -8.5 5t-9.5 5q-9 2 -11 2h-10q-16 0 -28 -6q-16 -2 -23 -14zM1700 133q5 -9 6 -20q0 -15 -8 -29l-8 -13q-3 -5 -9 -8q-6 -6 -11 -10t-13 -6q-5 -2 -14 -3t-15 -1q-12 0 -33 4q-10 4 -22 19q-4 1 -6 5l-4 9q-6 2 -7 10l7 4l8 2l2 2h10q13 -3 14 -4q5 -4 9 -6t6 -4 q2 0 6 -1t10 -1h5q9 2 13 3.5t7 4.5q2 2 4.5 4t3.5 4q2 4 4 7.5t2 7.5q0 6 -6 10q-4 6 -8 6q-2 4 -6.5 5t-7.5 3q-5 0 -13 6q-5 0 -9.5 1t-10.5 6q-10 3 -13.5 6.5l-7.5 7.5q-12 4 -12 14q-6 12 -6 25q0 19 6 26q1 4 6 11l8 10q4 2 9.5 4t13.5 6q6 0 11 1t13 1q4 0 8.5 -1 t10.5 -1l16 -6q3 -4 6.5 -7t7.5 -7q3 -2 7 -5.5t4 -7.5l-14 -8l-21 -4l-6 2q-3 1 -6 4q-2 0 -3.5 1t-4.5 1h-17q-2 0 -3 -1t-5 -3l-7 -6q-1 -3 -1 -10q3 -6 4.5 -9.5t3.5 -7.5h6q9 -2 14 -5t11 -5l8 -2q5 -4 9.5 -5.5t10.5 -4.5q6 -2 16.5 -13.5t10.5 -17.5zM1579 336 q-12 9 -16 20q-6 15 -7 31v16l11 19q2 2 4.5 6t7.5 8q6 9 12 10q3 5 9 6t10 3q4 0 8 2t10 2q4 0 10.5 -2t10.5 -2q4 -2 8 -3t8 -6l12 -10l13 -14q2 -4 4 -8.5t4 -10.5q0 -4 1 -9t1 -7q0 -6 -1 -14t-5 -17q-4 -13 -17 -20q-4 -4 -9 -8t-13 -9q-11 -2 -27 -2h-15q-4 0 -11 2 q-16 4 -23 17zM2165 127q5 13 6 27q0 16 -6 24q-3 14 -14 24.5t-25 14.5q-4 4 -11.5 5t-17.5 1q-11 0 -26 -6q-7 -1 -12 -4.5t-11 -9.5q-9 -6 -16 -25q0 -4 -1 -10t-1 -14q0 -9 1 -15t1 -12q9 -17 16 -25q6 -4 11 -8t12 -8q7 -2 14.5 -3t11.5 -1q21 0 29 4q29 11 39 41z M2284 336q-6 -4 -12.5 -8t-12.5 -9q-9 -2 -13 -2h-29q-4 0 -13 2q-12 4 -23 17q-7 7 -14 20q-2 9 -4 17t-2 14q0 2 1 7t1 9q2 4 3 9.5t5 9.5q2 3 5 6.5t5 7.5q7 5 17 10q3 5 8.5 6t7.5 3q5 0 8.5 2t11.5 2q2 0 7.5 -2t11.5 -2q4 -2 8 -3t6 -6q4 -2 9 -5t8 -5q1 -2 2 -3.5 t2 -3.5l4 -7q6 -11 8 -19q2 -4 3 -9t1 -7q0 -6 -1 -14t-5 -17q0 -6 -6 -11zM1108 154q0 15 -4 24q-4 18 -19 25q-2 6 -8 9t-12 5q-11 6 -29 6q-14 0 -26 -6q-11 -1 -23 -14q-9 -5 -14 -25q-5 -5 -6 -11v-28q0 -4 6 -12q5 -15 13.5 -24t23.5 -17q10 -4 26 -4q19 0 29 4 q15 7 20 16q14 5 18.5 22t4.5 30zM774 262h139v-39h-100v-56h82v-38h-82v-86h-39v219zM571 223h-59v-180h-43v180h-63v39h165v-39zM1389 262h165v-39h-65v-180h-39v180h-61v39zM1366 1315q17 -9 36 -21t36 -23h-324q36 30 74 44q39 18 88 18q47 0 90 -18zM1188 864 q-19 7 -37 19t-35 26h322q-17 -14 -36 -26t-36 -19q-23 -6 -45.5 -11t-44.5 -5q-25 0 -46 5t-42 11zM559 604l-47 68q4 0 12 4q7 3 8 10q9 6 9 12v25q-6 15 -13 20q-5 9 -14 9q-2 4 -7 5t-9 1h-56v-154h23v64h24l39 -56q1 -4 7 -6zM1169 604l-67 154h-21l-67 -154h12 q7 0 10 2q0 2 6 6l11 27h77l11 -27q1 -4 6 -6q2 -2 8 -2h14zM1931 721q2 -2 6.5 -8t5.5 -11q4 -7 5 -23q0 -13 -5 -22q-1 -4 -6 -10l-6 -6q-5 -4 -9.5 -7t-8.5 -7q-9 -4 -23 -4q-15 0 -22 4q-5 4 -10 7t-9 7q-3 2 -6.5 7t-3.5 9q-4 6 -5 11.5t-1 10.5q0 12 6 23q0 5 3 11 t7 8q9 9 19.5 12.5t21.5 3.5q13 0 23 -4zM801 721q6 -2 9 -8t5 -11q4 -7 4 -23q0 -11 -4 -22q-2 -4 -5 -9t-9 -7q-5 -10 -17 -14t-22 -4q-11 0 -23 4q-4 4 -9 7t-9 7q-2 2 -6 7t-6 9q-4 12 -4 22q0 21 9 32.5t25 21.5q5 2 12 3t11 1q14 0 22 -4q13 -5 17 -12zM295 690 q5 13 6 19q0 10 -6 20q0 2 -4 6l-6 6q-2 3 -5.5 7t-9.5 4q-2 4 -8 5t-10 1h-53v-154h18v58h35q4 0 10 0.5t8 3.5q11 4 15 10q4 2 7 6t3 8zM2218 332h31l6 3q5 4 9.5 6t8.5 5l3 6q3 6 6.5 11.5t3.5 9.5v34q-2 6 -6.5 10.5t-6.5 8.5q-6 2 -10 5t-8 7h-43q-6 -4 -10 -7t-9 -5 q-7 -5 -12 -19q-2 -9 -2 -12v-22q0 -4 1 -9t5 -8l4 -4q3 -3 4 -6l6 -4q7 -5 11.5 -6.5t7.5 -3.5zM2126 758h-21v-119l-2.5 5t-3.5 5l-74 103l-4 6h-24v-154h22v121l90 -121h17v154zM1579 407q-3 -6 -4.5 -12t-1.5 -8v-8q3 -15 8 -23q0 -2 2 -4t4 -6l6 -4q2 -2 9 -2 q2 -4 6 -5t6 -3h28q5 2 8 3t7 5l10 6q2 4 5 6t3 4q2 3 3 8t3 9q0 2 1 6t1 8q0 2 -1 8t-5 12q0 6 -4 10.5t-6 8.5q-3 1 -8 6l-10 6h-43q-4 -4 -9.5 -7t-9.5 -5q-2 -3 -5 -8t-3 -11zM997 758h-18v-119l-78 113q-4 0 -6 6h-25v-154h21v125h2l2 -2v-4l86 -119h16v154zM2114 381 q-4 -1 -7.5 -2t-5.5 -2l45 -60h-12q-7 2 -8.5 3.5t-1.5 5.5l-39 51h-27v-60h-16v138h57q3 0 10 -2q2 -2 5.5 -4.5t4.5 -4.5q4 -2 5.5 -6t7.5 -8v-27q-4 -4 -5 -8t-3 -6zM1343 381q-3 -3 -12 -4l47 -60h-15q-10 3 -9 9l-39 51h-28v-60h-13v138h56q10 -2 14.5 -4.5t9.5 -6.5 q0 -2 3 -6t3 -8l2 -20q-3 -17 -6 -21l-6 -4q-2 -2 -7 -4zM412 758h-97v-154h97v21h-74v47h59v18h-59v45h74v23zM1722 758h-94v-154h94v21h-71v47h59v18h-59v45h71v23zM2460 453l18 2v-138h-12v113l-2 -2v-2q-4 -7 -7 -17t-8 -14q-4 -7 -6 -13.5t-8 -14.5q-2 -9 -3 -15 t-5 -10q-3 -9 -6.5 -13.5t-5.5 -11.5h-15q-10 13 -15 26t-11 28q-4 12 -11.5 26.5t-11.5 28.5v2h-4v-111h-14v138h14l8 -4v-5l49 -106l3 -2v4q0 1 8 6l40 98q2 5 3.5 5t1.5 2zM1479 758h-21v-103q0 -3 -2 -8q-1 -7 -10 -12q0 -2 -4 -4t-6 -6l-9 -2h-8q-7 0 -14 2 q-5 4 -8.5 6t-5.5 4l-11 12q0 3 -1 7.5t-1 11.5v92h-20v-92q0 -7 1.5 -17.5t6.5 -15.5q2 -6 10 -12q2 -3 4.5 -6t8.5 -5q2 -2 6 -3t8 -3q4 0 7 -1t9 -1q4 0 7.5 1t11.5 1q2 2 5 3t7 3q9 6 12 11q3 2 5.5 5t5.5 7q0 4 3 7t3 7v111zM663 631q2 5 3.5 8.5t1.5 9.5q0 11 -5.5 19 t-11.5 14q-2 0 -4 2t-6 4l-4 2h-4q-4 3 -6.5 3.5t-3.5 1.5q-7 2 -9 3.5t-6 3.5q-6 3 -9 3l-3 22q9 7 12 8l15 2q11 -3 12 -6l6 -2q10 0 14 4l4 2l-6 8q-2 1 -5 4t-7 5q-2 0 -4 2t-6 4h-29q-5 -2 -7.5 -4t-6.5 -4q-2 -5 -6 -8t-7 -7q0 -4 -2 -7t-2 -9q0 -7 4 -17l5 -8l6 -4 q2 -2 6 -5t7 -3l8 -5q2 -1 7 -1q1 -2 6 -2t7 -2l6 -2q5 -4 5.5 -5.5t2.5 -5.5l2 -16q-4 -5 -4 -7.5t-2 -4.5q-1 -3 -7 -5l-3 -1q-4 0 -8 -1t-5 -1q-5 0 -11.5 1.5t-6.5 6.5l-4 2q-4 4 -12 4h-5l-10 -4l10 -18h3q7 -7 16.5 -9t19.5 -2h9q5 0 12 2q4 2 9 4t7 5q4 2 7.5 6 t4.5 10zM1597 631q7 7 7 18t-4.5 19t-12.5 14q-6 5 -6 6h-4l-39 17l-6 6q0 1 -1 3.5t-1 4.5q0 4 4 8q5 4 6.5 6t5.5 2q2 2 10 2l3 -1q5 -2 8 -3l6 -2q6 -2 8 -2q7 0 8 4l6 2q0 2 -3 4t-5 4q0 1 -3 4l-5 5q-3 0 -5.5 2t-6.5 4h-6l-5 1q-6 0 -10 -0.5t-8 -0.5l-14 -8l-11 -15 q-1 -4 -3.5 -7t-2.5 -9q0 -4 2 -8t4 -9q2 -4 4.5 -7t4.5 -5q4 -2 7 -5t7 -3q9 -5 14 -6q4 -2 6.5 -2t6.5 -2q5 0 10.5 -3.5t5.5 -9.5l2 -15q-2 -7 -4 -9l-4 -4q-12 -9 -23 -8q-2 0 -6 1t-6 1q-3 1 -8 6l-3 2q-4 4 -9 4h-7l-10 -4l8 -10v-2q7 -5 9 -6q6 -7 14 -9t18 -2h12 q3 0 11 2q2 2 6 4t8 5l6 8q3 3 4 8zM1741 317h-17v138h19l82 -113v113h14v-138h-12l-82 113v4h-4v-117zM78 350q-4 4 -5.5 8t-2.5 9q-2 6 -3 10t-1 10t4 16q1 4 2.5 9.5t5.5 9.5l9 14q2 2 6.5 5t6.5 5q5 5 10 6t9 3q3 0 8.5 2t11.5 2q16 0 27 -8q14 -4 22 -15l-5 -6h-13 q-3 2 -6.5 5t-7.5 3h-37l-21 -12q-4 -3 -7.5 -7.5t-4.5 -11.5q-2 -6 -3 -12t-1 -8q0 -10 4 -14q0 -4 0.5 -9t0.5 -8l5 -4q5 -1 6 -6l8 -5q2 -1 7 -1q2 -4 5 -5t7 -3h33q2 2 7 3t9 5v29h-14v2l-6 4h-3l-1 8h38v-51q-2 -5 -4 -6.5t-6 -6.5h-12q-9 -2 -12 -2h-35q-5 0 -19 9 q-7 0 -13 10zM240 438v-43h55v-16h-55v-47h67v-15h-84v138h84v-17h-67zM1171 438v-43h60v-16h-60v-47h68v-15h-84v138h84v-17h-68zM2374 758h-19q-5 0 -9.5 -4t-4.5 -9l-37 -47h-4l-39 47q-3 14 -16 13h-17l58 -76v-3l4 -3v-72h21v70l5 5v3zM2253 625h-68v133h-22v-154h90 v21zM641 455v-84q0 -6 2 -9.5t6 -5.5q0 -6 3 -9.5t5 -4.5q0 -2 4.5 -4t6.5 -4q6 -2 8 -2h16q9 4 13 6l8 4q4 1 8 14q4 3 4 15v84h14v-84q0 -10 -3.5 -22t-12.5 -17q-5 -13 -16 -13q-6 -1 -12 -1.5t-11 -0.5t-11 0.5t-14 1.5q-3 0 -16 13l-10 16q-1 6 -3.5 11.5t-2.5 11.5v84 h14zM1270 625h-66v133h-20v-154h86v21zM1452 336q1 2 2 3.5t2 3.5q2 2 3 6.5t1 6.5q0 18 -16 23q-3 0 -13 4t-12 6q-10 0 -14 8q-2 0 -4 3l-4 6v23q0 1 2 7q0 9 8 10l6 5l4 2l4 2q4 0 6.5 2t8.5 2l10 -4q3 0 4.5 -1t5.5 -3q6 0 6 -7q5 0 7 -3l1 -3l-2 -2q-6 -2 -10 -2h-6 l-25 4q-9 0 -8 -2q-5 -7 -6 -8q-4 0 -4 -8q0 -5 4 -6q0 -4 4 -7l6 -4q4 -4 7.5 -4t7.5 -2l6 -2q3 0 8 -6h4l6 -2q5 -4 8 -7l5 -5q1 -5 1.5 -9.5t0.5 -9.5v-10q-5 -9 -7.5 -13t-7.5 -7q-2 -2 -6 -4.5t-6 -2.5q-4 -2 -10 -2h-10q-10 0 -17.5 1t-13.5 8q-2 0 -3 3t-5 5v4l-2 2 l4 2h6q1 0 3.5 -1t4.5 -1q4 -4 7 -5t5 -3h21q8 0 12 4zM1069 317l-59 138h5q11 0 15 -9l43 -104v-2h2l2 2q5 14 13 27.5t12 25.5q4 15 10 27l12 24q0 5 1.5 5t1.5 2l18 2q-7 -17 -15 -34.5t-16 -33.5q-4 -9 -7.5 -18.5t-6.5 -18.5l-15 -33h-16zM532 438v-49h60v-12h-60v-60 h-16v138h86v-17h-70zM1958 438v-49h55v-12h-55v-60h-16v138h83v-17h-67zM879 455v-123h63v-15h-80v138h17zM371 317v121h-47v17h106v-17h-47v-121h-12zM784 455v-123h64v-15h-80v138h16zM270 729q2 -1 3 -4.5t3 -5.5q3 -4 3 -10v-4q0 -2 -3 -7q-2 -2 -3 -5t-3 -3 q-1 -2 -3 -4t-5 -4h-45v53h35q4 0 10 -2zM1325 389q5 0 6 4q4 4 10 4l2 4q5 11 5 17q0 2 -1 3t-1 5q-3 2 -4 3t-1 5q-5 0 -10 4h-44v-49h38zM2101 393q4 4 8 4q5 7 5 9q2 4 2 12q0 3 -2 8q0 1 -5 8q-3 0 -8 4h-43v-49h35q4 1 8 4zM518 702l-4 -8q-2 0 -3 -2t-3 -2 q-2 -2 -10 -2h-33v47h33q3 0 10 -2l6 -4l2 -4l2 -4q3 -1 4 -10q-1 -6 -4 -9zM1524 455v-138h-17v138h17zM684 129l-29 74h-2l-30 -74h61zM1092 727v-4l28 -64h-59l29 64v6zM1755 82q6 0 6 -6l2 -10q0 -7 -2 -9q0 -4 -6 -10l-24 -4q-4 4 -9 4q0 2 -6 10q-2 2 -2 9v4l8 12 q7 4 9 4l15 4z" />
<glyph unicode="5" d="M2478 1092v-586h-2404v586h911q0 30 5 59t20 53q12 29 26.5 52.5t36.5 41.5q38 42 92 62q27 12 54.5 17t56.5 5q33 0 61.5 -6t53.5 -16q59 -29 94.5 -64.5t62.5 -95.5q19 -52 19 -108h911zM1010 1092q0 -61 18.5 -103t56.5 -88q38 -37 87 -58.5t104 -21.5q53 0 102 19 t85 59q21 19 35.5 40.5t25.5 43.5q21 54 22 109q0 46 -14.5 87.5t-44.5 77.5q-14 19 -29.5 32.5t-34.5 25.5q-18 7 -37.5 17.5t-39.5 17.5l-32.5 6.5t-37.5 3.5q-59 0 -107 -25q-49 -17 -84 -57q-36 -36 -55.5 -85.5t-19.5 -100.5zM1141 935l315 318q62 -78 62 -161 q0 -23 -3.5 -44.5t-11.5 -41.5q-14 -37 -41 -71h-321zM1094 928q-28 36 -43 76q-9 18 -12 40.5t-3 47.5q0 19 3 40t12 42q4 19 14 36t25 33h319zM2195 207q3 -4 6 -10.5t5 -14.5q4 -7 4 -15v-30q0 -7 -4 -12q-2 -7 -5 -15t-6 -14q-4 -7 -16 -20l-12 -10t-13 -9 q-5 -5 -12.5 -7.5l-13.5 -4.5q-9 -2 -14 -2h-17q-20 0 -43 6q-9 6 -16.5 12.5t-16.5 14.5q-9 6 -14.5 14t-7.5 21q-6 10 -8 20t-2 23q0 9 1 14.5t1 13.5q3 7 6.5 14t7.5 11q2 9 6 13.5t10 10.5q3 4 10 8.5t13 10.5q4 2 11 4t13 6q11 0 17 1t12 1q10 0 17.5 -1t13.5 -1 q6 -4 13 -6t13 -4q14 -11 25 -19q2 -6 8 -10.5t8 -13.5zM1135 207q2 -4 4 -10.5t6 -14.5q2 -11 2 -15v-30q0 -5 -2 -12q-3 -7 -5.5 -15t-4.5 -14q-5 -4 -10 -10t-9 -10q-15 -15 -23 -19.5t-26 -11.5q-4 -1 -7.5 -1.5t-7.5 -0.5h-16q-10 0 -20 2t-23 4q-12 6 -19 12.5 t-16 14.5q-16 15 -23 35.5t-7 42.5v13q0 4 2 15q5 18 12 25q4 9 8 13.5t8 10.5q7 4 12 8.5t11 10.5l29 10q4 0 11 1t15 1q9 0 16 -1t15 -1q6 -4 13 -6l14 -4l22 -19q4 -6 9 -10.5t10 -13.5zM2433 260l1 1l44 1v-219h-37v160l-6 -10v-6q-9 -19 -15.5 -38.5t-15.5 -33.5 q-6 -19 -12 -35.5t-14 -36.5h-37l-55 139q-5 3 -5 11l-4 6v-156h-41v219h39q5 0 7 -1t4 -1q2 -2 3 -2t3 -2l8 -4q0 -2 2 -4t2 -4q4 -17 11 -32t16 -34q6 -16 12 -32.5t12 -30.5v-13l6 13l9 14l45 115l4 8l6 4q2 2 4 2t4 2zM1329 262h38v-219h-36l-100 147l-4 3v2 q-5 10 -7.5 12t-5.5 2v-166h-39v219h35q4 0 8.5 -1t4.5 -3q3 -2 5.5 -2t4.5 -2l22 -33q5 -9 10 -17.5t11 -17.5q14 -14 24.5 -29.5t24.5 -29.5q0 -2 1 -5t1 -7l2 -5v152zM672 262l94 -219h-25q-9 0 -16 4q-2 2 -4 7t-6 9l-13 27h-100l-10 -27q0 -6 -4 -6l-8 -10 q-2 0 -3.5 -1t-5.5 -1l-30 -2l96 219h35zM260 262h139v-39h-100v-49h82v-41h-82v-51h100v-39h-139v219zM74 262h159v-24l-8 -15l-106 -143h2l2 2h108v-39h-165v14q0 10 2 11q0 2 6 8v4l2 4l4 4t2 6l94 129h-102v39zM838 659q1 6 2.5 10.5t1.5 9.5q0 13 -4 23q0 5 -3.5 9 t-5.5 10q-2 3 -5 6.5t-7 7.5l-7 6q-2 3 -9 9l-8 4q-2 1 -5 2l-6 2h-41q-11 -4 -18 -8q-4 -5 -8 -8t-8 -7q-12 -9 -13 -14q-4 -6 -5 -10t-3 -9q-1 -5 -1.5 -10.5t-0.5 -12.5q0 -16 6.5 -29t16.5 -25q12 -15 26 -15q12 -6 29 -6h20q6 2 11 4t8 4q12 5 16 13q7 7 12 16 q2 4 5.5 9t3.5 9zM1966 659v43q-2 5 -3.5 9.5t-4.5 9.5q-5 6 -15 14q-1 4 -5.5 7t-8.5 8q-2 1 -4.5 2t-5.5 2l-8 4h-41q-5 -2 -10.5 -4t-10.5 -4q-3 -5 -6.5 -8t-7.5 -7q-3 -4 -6.5 -7t-5.5 -7q-2 -6 -5 -10t-3 -9q-5 -11 -5 -23q0 -5 2.5 -13.5t6.5 -14.5q5 -16 16 -26 q9 -15 25 -15q12 -6 30 -6h21q3 2 8.5 4t9.5 4q4 3 8.5 6t5.5 7q10 5 15 16zM1839 203q-7 -7 -14 -25q-2 -4 -4 -10t-2 -14q0 -10 6 -27.5t14 -24.5q10 -10 23 -16q13 -4 28 -4q5 0 10 1t11 1q3 2 8.5 5t9.5 7q2 0 8 2h13q2 0 8 -2q2 -1 8 -6l6 -8l-6 -8t-8 -8q-6 -3 -11 -6 t-12 -7q-5 -3 -16.5 -6.5t-17.5 -3.5h-11q-12 0 -23.5 2t-21.5 4q-21 10 -35 27q-16 15 -22 35q-4 10 -7 20t-3 23q0 9 1 14.5t3 13.5q2 17 10 25l9 13.5t9 10.5l25 19l27 10q5 0 12.5 1t15.5 1h13q4 0 16 -3t16 -5l23 -14q4 -4 7.5 -8.5t6.5 -8.5l-14 -16h-15q-7 0 -14 4 q-3 2 -8.5 5t-9.5 5q-9 2 -11 2h-10q-16 0 -28 -6q-16 -2 -23 -14zM1700 133q5 -9 6 -20q0 -15 -8 -29l-8 -13q-3 -5 -9 -8q-6 -6 -11 -10t-13 -6q-5 -2 -14 -3t-15 -1q-12 0 -33 4q-10 4 -22 19q-4 1 -6 5l-4 9q-6 2 -7 10l7 4l8 2l2 2h10q13 -3 14 -4q5 -4 9 -6t6 -4 q2 0 6 -1t10 -1h5q9 2 13 3.5t7 4.5q2 2 4.5 4t3.5 4q2 4 4 7.5t2 7.5q0 6 -6 10q-4 6 -8 6q-2 4 -6.5 5t-7.5 3q-5 0 -13 6q-5 0 -9.5 1t-10.5 6q-10 3 -13.5 6.5l-7.5 7.5q-12 4 -12 14q-6 12 -6 25q0 19 6 26q1 4 6 11l8 10q4 2 9.5 4t13.5 6q6 0 11 1t13 1q4 0 8.5 -1 t10.5 -1l16 -6q3 -4 6.5 -7t7.5 -7q3 -2 7 -5.5t4 -7.5l-14 -8l-21 -4l-6 2q-3 1 -6 4q-2 0 -3.5 1t-4.5 1h-17q-2 0 -3 -1t-5 -3l-7 -6q-1 -3 -1 -10q3 -6 4.5 -9.5t3.5 -7.5h6q9 -2 14 -5t11 -5l8 -2q5 -4 9.5 -5.5t10.5 -4.5q6 -2 16.5 -13.5t10.5 -17.5zM1579 336 q-12 9 -16 20q-6 15 -7 31v16l11 19q2 2 4.5 6t7.5 8q6 9 12 10q3 5 9 6t10 3q4 0 8 2t10 2q4 0 10.5 -2t10.5 -2q4 -2 8 -3t8 -6l12 -10l13 -14q2 -4 4 -8.5t4 -10.5q0 -4 1 -9t1 -7q0 -6 -1 -14t-5 -17q-4 -13 -17 -20q-4 -4 -9 -8t-13 -9q-11 -2 -27 -2h-15q-4 0 -11 2 q-16 4 -23 17zM2165 127q5 13 6 27q0 16 -6 24q-3 14 -14 24.5t-25 14.5q-4 4 -11.5 5t-17.5 1q-11 0 -26 -6q-7 -1 -12 -4.5t-11 -9.5q-9 -6 -16 -25q0 -4 -1 -10t-1 -14q0 -9 1 -15t1 -12q9 -17 16 -25q6 -4 11 -8t12 -8q7 -2 14.5 -3t11.5 -1q21 0 29 4q29 11 39 41z M2284 336q-6 -4 -12.5 -8t-12.5 -9q-9 -2 -13 -2h-29q-4 0 -13 2q-12 4 -23 17q-7 7 -14 20q-2 9 -4 17t-2 14q0 2 1 7t1 9q2 4 3 9.5t5 9.5q2 3 5 6.5t5 7.5q7 5 17 10q3 5 8.5 6t7.5 3q5 0 8.5 2t11.5 2q2 0 7.5 -2t11.5 -2q4 -2 8 -3t6 -6q4 -2 9 -5t8 -5q1 -2 2 -3.5 t2 -3.5l4 -7q6 -11 8 -19q2 -4 3 -9t1 -7q0 -6 -1 -14t-5 -17q0 -6 -6 -11zM1108 154q0 15 -4 24q-4 18 -19 25q-2 6 -8 9t-12 5q-11 6 -29 6q-14 0 -26 -6q-11 -1 -23 -14q-9 -5 -14 -25q-5 -5 -6 -11v-28q0 -4 6 -12q5 -15 13.5 -24t23.5 -17q10 -4 26 -4q19 0 29 4 q15 7 20 16q14 5 18.5 22t4.5 30zM774 262h139v-39h-100v-56h82v-38h-82v-86h-39v219zM571 223h-59v-180h-43v180h-63v39h165v-39zM1389 262h165v-39h-65v-180h-39v180h-61v39zM1366 1315q17 -9 36 -21t36 -23h-324q36 30 74 44q39 18 88 18q47 0 90 -18zM1188 864 q-19 7 -37 19t-35 26h322q-17 -14 -36 -26t-36 -19q-23 -6 -45.5 -11t-44.5 -5q-25 0 -46 5t-42 11zM559 604l-47 68q4 0 12 4q7 3 8 10q9 6 9 12v25q-6 15 -13 20q-5 9 -14 9q-2 4 -7 5t-9 1h-56v-154h23v64h24l39 -56q1 -4 7 -6zM1169 604l-67 154h-21l-67 -154h12 q7 0 10 2q0 2 6 6l11 27h77l11 -27q1 -4 6 -6q2 -2 8 -2h14zM1931 721q2 -2 6.5 -8t5.5 -11q4 -7 5 -23q0 -13 -5 -22q-1 -4 -6 -10l-6 -6q-5 -4 -9.5 -7t-8.5 -7q-9 -4 -23 -4q-15 0 -22 4q-5 4 -10 7t-9 7q-3 2 -6.5 7t-3.5 9q-4 6 -5 11.5t-1 10.5q0 12 6 23q0 5 3 11 t7 8q9 9 19.5 12.5t21.5 3.5q13 0 23 -4zM801 721q6 -2 9 -8t5 -11q4 -7 4 -23q0 -11 -4 -22q-2 -4 -5 -9t-9 -7q-5 -10 -17 -14t-22 -4q-11 0 -23 4q-4 4 -9 7t-9 7q-2 2 -6 7t-6 9q-4 12 -4 22q0 21 9 32.5t25 21.5q5 2 12 3t11 1q14 0 22 -4q13 -5 17 -12zM295 690 q5 13 6 19q0 10 -6 20q0 2 -4 6l-6 6q-2 3 -5.5 7t-9.5 4q-2 4 -8 5t-10 1h-53v-154h18v58h35q4 0 10 0.5t8 3.5q11 4 15 10q4 2 7 6t3 8zM2218 332h31l6 3q5 4 9.5 6t8.5 5l3 6q3 6 6.5 11.5t3.5 9.5v34q-2 6 -6.5 10.5t-6.5 8.5q-6 2 -10 5t-8 7h-43q-6 -4 -10 -7t-9 -5 q-7 -5 -12 -19q-2 -9 -2 -12v-22q0 -4 1 -9t5 -8l4 -4q3 -3 4 -6l6 -4q7 -5 11.5 -6.5t7.5 -3.5zM2126 758h-21v-119l-2.5 5t-3.5 5l-74 103l-4 6h-24v-154h22v121l90 -121h17v154zM1579 407q-3 -6 -4.5 -12t-1.5 -8v-8q3 -15 8 -23q0 -2 2 -4t4 -6l6 -4q2 -2 9 -2 q2 -4 6 -5t6 -3h28q5 2 8 3t7 5l10 6q2 4 5 6t3 4q2 3 3 8t3 9q0 2 1 6t1 8q0 2 -1 8t-5 12q0 6 -4 10.5t-6 8.5q-3 1 -8 6l-10 6h-43q-4 -4 -9.5 -7t-9.5 -5q-2 -3 -5 -8t-3 -11zM997 758h-18v-119l-78 113q-4 0 -6 6h-25v-154h21v125h2l2 -2v-4l86 -119h16v154zM2114 381 q-4 -1 -7.5 -2t-5.5 -2l45 -60h-12q-7 2 -8.5 3.5t-1.5 5.5l-39 51h-27v-60h-16v138h57q3 0 10 -2q2 -2 5.5 -4.5t4.5 -4.5q4 -2 5.5 -6t7.5 -8v-27q-4 -4 -5 -8t-3 -6zM1343 381q-3 -3 -12 -4l47 -60h-15q-10 3 -9 9l-39 51h-28v-60h-13v138h56q10 -2 14.5 -4.5t9.5 -6.5 q0 -2 3 -6t3 -8l2 -20q-3 -17 -6 -21l-6 -4q-2 -2 -7 -4zM412 758h-97v-154h97v21h-74v47h59v18h-59v45h74v23zM1722 758h-94v-154h94v21h-71v47h59v18h-59v45h71v23zM2460 453l18 2v-138h-12v113l-2 -2v-2q-4 -7 -7 -17t-8 -14q-4 -7 -6 -13.5t-8 -14.5q-2 -9 -3 -15 t-5 -10q-3 -9 -6.5 -13.5t-5.5 -11.5h-15q-10 13 -15 26t-11 28q-4 12 -11.5 26.5t-11.5 28.5v2h-4v-111h-14v138h14l8 -4v-5l49 -106l3 -2v4q0 1 8 6l40 98q2 5 3.5 5t1.5 2zM1479 758h-21v-103q0 -3 -2 -8q-1 -7 -10 -12q0 -2 -4 -4t-6 -6l-9 -2h-8q-7 0 -14 2 q-5 4 -8.5 6t-5.5 4l-11 12q0 3 -1 7.5t-1 11.5v92h-20v-92q0 -7 1.5 -17.5t6.5 -15.5q2 -6 10 -12q2 -3 4.5 -6t8.5 -5q2 -2 6 -3t8 -3q4 0 7 -1t9 -1q4 0 7.5 1t11.5 1q2 2 5 3t7 3q9 6 12 11q3 2 5.5 5t5.5 7q0 4 3 7t3 7v111zM663 631q2 5 3.5 8.5t1.5 9.5q0 11 -5.5 19 t-11.5 14q-2 0 -4 2t-6 4l-4 2h-4q-4 3 -6.5 3.5t-3.5 1.5q-7 2 -9 3.5t-6 3.5q-6 3 -9 3l-3 22q9 7 12 8l15 2q11 -3 12 -6l6 -2q10 0 14 4l4 2l-6 8q-2 1 -5 4t-7 5q-2 0 -4 2t-6 4h-29q-5 -2 -7.5 -4t-6.5 -4q-2 -5 -6 -8t-7 -7q0 -4 -2 -7t-2 -9q0 -7 4 -17l5 -8l6 -4 q2 -2 6 -5t7 -3l8 -5q2 -1 7 -1q1 -2 6 -2t7 -2l6 -2q5 -4 5.5 -5.5t2.5 -5.5l2 -16q-4 -5 -4 -7.5t-2 -4.5q-1 -3 -7 -5l-3 -1q-4 0 -8 -1t-5 -1q-5 0 -11.5 1.5t-6.5 6.5l-4 2q-4 4 -12 4h-5l-10 -4l10 -18h3q7 -7 16.5 -9t19.5 -2h9q5 0 12 2q4 2 9 4t7 5q4 2 7.5 6 t4.5 10zM1597 631q7 7 7 18t-4.5 19t-12.5 14q-6 5 -6 6h-4l-39 17l-6 6q0 1 -1 3.5t-1 4.5q0 4 4 8q5 4 6.5 6t5.5 2q2 2 10 2l3 -1q5 -2 8 -3l6 -2q6 -2 8 -2q7 0 8 4l6 2q0 2 -3 4t-5 4q0 1 -3 4l-5 5q-3 0 -5.5 2t-6.5 4h-6l-5 1q-6 0 -10 -0.5t-8 -0.5l-14 -8l-11 -15 q-1 -4 -3.5 -7t-2.5 -9q0 -4 2 -8t4 -9q2 -4 4.5 -7t4.5 -5q4 -2 7 -5t7 -3q9 -5 14 -6q4 -2 6.5 -2t6.5 -2q5 0 10.5 -3.5t5.5 -9.5l2 -15q-2 -7 -4 -9l-4 -4q-12 -9 -23 -8q-2 0 -6 1t-6 1q-3 1 -8 6l-3 2q-4 4 -9 4h-7l-10 -4l8 -10v-2q7 -5 9 -6q6 -7 14 -9t18 -2h12 q3 0 11 2q2 2 6 4t8 5l6 8q3 3 4 8zM1741 317h-17v138h19l82 -113v113h14v-138h-12l-82 113v4h-4v-117zM78 350q-4 4 -5.5 8t-2.5 9q-2 6 -3 10t-1 10t4 16q1 4 2.5 9.5t5.5 9.5l9 14q2 2 6.5 5t6.5 5q5 5 10 6t9 3q3 0 8.5 2t11.5 2q16 0 27 -8q14 -4 22 -15l-5 -6h-13 q-3 2 -6.5 5t-7.5 3h-37l-21 -12q-4 -3 -7.5 -7.5t-4.5 -11.5q-2 -6 -3 -12t-1 -8q0 -10 4 -14q0 -4 0.5 -9t0.5 -8l5 -4q5 -1 6 -6l8 -5q2 -1 7 -1q2 -4 5 -5t7 -3h33q2 2 7 3t9 5v29h-14v2l-6 4h-3l-1 8h38v-51q-2 -5 -4 -6.5t-6 -6.5h-12q-9 -2 -12 -2h-35q-5 0 -19 9 q-7 0 -13 10zM240 438v-43h55v-16h-55v-47h67v-15h-84v138h84v-17h-67zM1171 438v-43h60v-16h-60v-47h68v-15h-84v138h84v-17h-68zM2374 758h-19q-5 0 -9.5 -4t-4.5 -9l-37 -47h-4l-39 47q-3 14 -16 13h-17l58 -76v-3l4 -3v-72h21v70l5 5v3zM2253 625h-68v133h-22v-154h90 v21zM641 455v-84q0 -6 2 -9.5t6 -5.5q0 -6 3 -9.5t5 -4.5q0 -2 4.5 -4t6.5 -4q6 -2 8 -2h16q9 4 13 6l8 4q4 1 8 14q4 3 4 15v84h14v-84q0 -10 -3.5 -22t-12.5 -17q-5 -13 -16 -13q-6 -1 -12 -1.5t-11 -0.5t-11 0.5t-14 1.5q-3 0 -16 13l-10 16q-1 6 -3.5 11.5t-2.5 11.5v84 h14zM1270 625h-66v133h-20v-154h86v21zM1452 336q1 2 2 3.5t2 3.5q2 2 3 6.5t1 6.5q0 18 -16 23q-3 0 -13 4t-12 6q-10 0 -14 8q-2 0 -4 3l-4 6v23q0 1 2 7q0 9 8 10l6 5l4 2l4 2q4 0 6.5 2t8.5 2l10 -4q3 0 4.5 -1t5.5 -3q6 0 6 -7q5 0 7 -3l1 -3l-2 -2q-6 -2 -10 -2h-6 l-25 4q-9 0 -8 -2q-5 -7 -6 -8q-4 0 -4 -8q0 -5 4 -6q0 -4 4 -7l6 -4q4 -4 7.5 -4t7.5 -2l6 -2q3 0 8 -6h4l6 -2q5 -4 8 -7l5 -5q1 -5 1.5 -9.5t0.5 -9.5v-10q-5 -9 -7.5 -13t-7.5 -7q-2 -2 -6 -4.5t-6 -2.5q-4 -2 -10 -2h-10q-10 0 -17.5 1t-13.5 8q-2 0 -3 3t-5 5v4l-2 2 l4 2h6q1 0 3.5 -1t4.5 -1q4 -4 7 -5t5 -3h21q8 0 12 4zM1069 317l-59 138h5q11 0 15 -9l43 -104v-2h2l2 2q5 14 13 27.5t12 25.5q4 15 10 27l12 24q0 5 1.5 5t1.5 2l18 2q-7 -17 -15 -34.5t-16 -33.5q-4 -9 -7.5 -18.5t-6.5 -18.5l-15 -33h-16zM532 438v-49h60v-12h-60v-60 h-16v138h86v-17h-70zM1958 438v-49h55v-12h-55v-60h-16v138h83v-17h-67zM879 455v-123h63v-15h-80v138h17zM371 317v121h-47v17h106v-17h-47v-121h-12zM784 455v-123h64v-15h-80v138h16zM270 729q2 -1 3 -4.5t3 -5.5q3 -4 3 -10v-4q0 -2 -3 -7q-2 -2 -3 -5t-3 -3 q-1 -2 -3 -4t-5 -4h-45v53h35q4 0 10 -2zM1325 389q5 0 6 4q4 4 10 4l2 4q5 11 5 17q0 2 -1 3t-1 5q-3 2 -4 3t-1 5q-5 0 -10 4h-44v-49h38zM2101 393q4 4 8 4q5 7 5 9q2 4 2 12q0 3 -2 8q0 1 -5 8q-3 0 -8 4h-43v-49h35q4 1 8 4zM518 702l-4 -8q-2 0 -3 -2t-3 -2 q-2 -2 -10 -2h-33v47h33q3 0 10 -2l6 -4l2 -4l2 -4q3 -1 4 -10q-1 -6 -4 -9zM1524 455v-138h-17v138h17zM684 129l-29 74h-2l-30 -74h61zM1092 727v-4l28 -64h-59l29 64v6zM1755 82q6 0 6 -6l2 -10q0 -7 -2 -9q0 -4 -6 -10l-24 -4q-4 4 -9 4q0 2 -6 10q-2 2 -2 9v4l8 12 q7 4 9 4l15 4z" />
<glyph unicode="6" d="M2478 1092v-586h-2404v586h911q0 30 5 59t20 53q12 29 26.5 52.5t36.5 41.5q38 42 92 62q27 12 54.5 17t56.5 5q33 0 61.5 -6t53.5 -16q59 -29 94.5 -64.5t62.5 -95.5q19 -52 19 -108h911zM1010 1092q0 -61 18.5 -103t56.5 -88q38 -37 87 -58.5t104 -21.5q53 0 102 19 t85 59q21 19 35.5 40.5t25.5 43.5q21 54 22 109q0 46 -14.5 87.5t-44.5 77.5q-14 19 -29.5 32.5t-34.5 25.5q-18 7 -37.5 17.5t-39.5 17.5l-32.5 6.5t-37.5 3.5q-59 0 -107 -25q-49 -17 -84 -57q-36 -36 -55.5 -85.5t-19.5 -100.5zM1141 935l315 318q62 -78 62 -161 q0 -23 -3.5 -44.5t-11.5 -41.5q-14 -37 -41 -71h-321zM1094 928q-28 36 -43 76q-9 18 -12 40.5t-3 47.5q0 19 3 40t12 42q4 19 14 36t25 33h319zM2195 207q3 -4 6 -10.5t5 -14.5q4 -7 4 -15v-30q0 -7 -4 -12q-2 -7 -5 -15t-6 -14q-4 -7 -16 -20l-12 -10t-13 -9 q-5 -5 -12.5 -7.5l-13.5 -4.5q-9 -2 -14 -2h-17q-20 0 -43 6q-9 6 -16.5 12.5t-16.5 14.5q-9 6 -14.5 14t-7.5 21q-6 10 -8 20t-2 23q0 9 1 14.5t1 13.5q3 7 6.5 14t7.5 11q2 9 6 13.5t10 10.5q3 4 10 8.5t13 10.5q4 2 11 4t13 6q11 0 17 1t12 1q10 0 17.5 -1t13.5 -1 q6 -4 13 -6t13 -4q14 -11 25 -19q2 -6 8 -10.5t8 -13.5zM1135 207q2 -4 4 -10.5t6 -14.5q2 -11 2 -15v-30q0 -5 -2 -12q-3 -7 -5.5 -15t-4.5 -14q-5 -4 -10 -10t-9 -10q-15 -15 -23 -19.5t-26 -11.5q-4 -1 -7.5 -1.5t-7.5 -0.5h-16q-10 0 -20 2t-23 4q-12 6 -19 12.5 t-16 14.5q-16 15 -23 35.5t-7 42.5v13q0 4 2 15q5 18 12 25q4 9 8 13.5t8 10.5q7 4 12 8.5t11 10.5l29 10q4 0 11 1t15 1q9 0 16 -1t15 -1q6 -4 13 -6l14 -4l22 -19q4 -6 9 -10.5t10 -13.5zM2433 260l1 1l44 1v-219h-37v160l-6 -10v-6q-9 -19 -15.5 -38.5t-15.5 -33.5 q-6 -19 -12 -35.5t-14 -36.5h-37l-55 139q-5 3 -5 11l-4 6v-156h-41v219h39q5 0 7 -1t4 -1q2 -2 3 -2t3 -2l8 -4q0 -2 2 -4t2 -4q4 -17 11 -32t16 -34q6 -16 12 -32.5t12 -30.5v-13l6 13l9 14l45 115l4 8l6 4q2 2 4 2t4 2zM1329 262h38v-219h-36l-100 147l-4 3v2 q-5 10 -7.5 12t-5.5 2v-166h-39v219h35q4 0 8.5 -1t4.5 -3q3 -2 5.5 -2t4.5 -2l22 -33q5 -9 10 -17.5t11 -17.5q14 -14 24.5 -29.5t24.5 -29.5q0 -2 1 -5t1 -7l2 -5v152zM672 262l94 -219h-25q-9 0 -16 4q-2 2 -4 7t-6 9l-13 27h-100l-10 -27q0 -6 -4 -6l-8 -10 q-2 0 -3.5 -1t-5.5 -1l-30 -2l96 219h35zM260 262h139v-39h-100v-49h82v-41h-82v-51h100v-39h-139v219zM74 262h159v-24l-8 -15l-106 -143h2l2 2h108v-39h-165v14q0 10 2 11q0 2 6 8v4l2 4l4 4t2 6l94 129h-102v39zM838 659q1 6 2.5 10.5t1.5 9.5q0 13 -4 23q0 5 -3.5 9 t-5.5 10q-2 3 -5 6.5t-7 7.5l-7 6q-2 3 -9 9l-8 4q-2 1 -5 2l-6 2h-41q-11 -4 -18 -8q-4 -5 -8 -8t-8 -7q-12 -9 -13 -14q-4 -6 -5 -10t-3 -9q-1 -5 -1.5 -10.5t-0.5 -12.5q0 -16 6.5 -29t16.5 -25q12 -15 26 -15q12 -6 29 -6h20q6 2 11 4t8 4q12 5 16 13q7 7 12 16 q2 4 5.5 9t3.5 9zM1966 659v43q-2 5 -3.5 9.5t-4.5 9.5q-5 6 -15 14q-1 4 -5.5 7t-8.5 8q-2 1 -4.5 2t-5.5 2l-8 4h-41q-5 -2 -10.5 -4t-10.5 -4q-3 -5 -6.5 -8t-7.5 -7q-3 -4 -6.5 -7t-5.5 -7q-2 -6 -5 -10t-3 -9q-5 -11 -5 -23q0 -5 2.5 -13.5t6.5 -14.5q5 -16 16 -26 q9 -15 25 -15q12 -6 30 -6h21q3 2 8.5 4t9.5 4q4 3 8.5 6t5.5 7q10 5 15 16zM1839 203q-7 -7 -14 -25q-2 -4 -4 -10t-2 -14q0 -10 6 -27.5t14 -24.5q10 -10 23 -16q13 -4 28 -4q5 0 10 1t11 1q3 2 8.5 5t9.5 7q2 0 8 2h13q2 0 8 -2q2 -1 8 -6l6 -8l-6 -8t-8 -8q-6 -3 -11 -6 t-12 -7q-5 -3 -16.5 -6.5t-17.5 -3.5h-11q-12 0 -23.5 2t-21.5 4q-21 10 -35 27q-16 15 -22 35q-4 10 -7 20t-3 23q0 9 1 14.5t3 13.5q2 17 10 25l9 13.5t9 10.5l25 19l27 10q5 0 12.5 1t15.5 1h13q4 0 16 -3t16 -5l23 -14q4 -4 7.5 -8.5t6.5 -8.5l-14 -16h-15q-7 0 -14 4 q-3 2 -8.5 5t-9.5 5q-9 2 -11 2h-10q-16 0 -28 -6q-16 -2 -23 -14zM1700 133q5 -9 6 -20q0 -15 -8 -29l-8 -13q-3 -5 -9 -8q-6 -6 -11 -10t-13 -6q-5 -2 -14 -3t-15 -1q-12 0 -33 4q-10 4 -22 19q-4 1 -6 5l-4 9q-6 2 -7 10l7 4l8 2l2 2h10q13 -3 14 -4q5 -4 9 -6t6 -4 q2 0 6 -1t10 -1h5q9 2 13 3.5t7 4.5q2 2 4.5 4t3.5 4q2 4 4 7.5t2 7.5q0 6 -6 10q-4 6 -8 6q-2 4 -6.5 5t-7.5 3q-5 0 -13 6q-5 0 -9.5 1t-10.5 6q-10 3 -13.5 6.5l-7.5 7.5q-12 4 -12 14q-6 12 -6 25q0 19 6 26q1 4 6 11l8 10q4 2 9.5 4t13.5 6q6 0 11 1t13 1q4 0 8.5 -1 t10.5 -1l16 -6q3 -4 6.5 -7t7.5 -7q3 -2 7 -5.5t4 -7.5l-14 -8l-21 -4l-6 2q-3 1 -6 4q-2 0 -3.5 1t-4.5 1h-17q-2 0 -3 -1t-5 -3l-7 -6q-1 -3 -1 -10q3 -6 4.5 -9.5t3.5 -7.5h6q9 -2 14 -5t11 -5l8 -2q5 -4 9.5 -5.5t10.5 -4.5q6 -2 16.5 -13.5t10.5 -17.5zM1579 336 q-12 9 -16 20q-6 15 -7 31v16l11 19q2 2 4.5 6t7.5 8q6 9 12 10q3 5 9 6t10 3q4 0 8 2t10 2q4 0 10.5 -2t10.5 -2q4 -2 8 -3t8 -6l12 -10l13 -14q2 -4 4 -8.5t4 -10.5q0 -4 1 -9t1 -7q0 -6 -1 -14t-5 -17q-4 -13 -17 -20q-4 -4 -9 -8t-13 -9q-11 -2 -27 -2h-15q-4 0 -11 2 q-16 4 -23 17zM2165 127q5 13 6 27q0 16 -6 24q-3 14 -14 24.5t-25 14.5q-4 4 -11.5 5t-17.5 1q-11 0 -26 -6q-7 -1 -12 -4.5t-11 -9.5q-9 -6 -16 -25q0 -4 -1 -10t-1 -14q0 -9 1 -15t1 -12q9 -17 16 -25q6 -4 11 -8t12 -8q7 -2 14.5 -3t11.5 -1q21 0 29 4q29 11 39 41z M2284 336q-6 -4 -12.5 -8t-12.5 -9q-9 -2 -13 -2h-29q-4 0 -13 2q-12 4 -23 17q-7 7 -14 20q-2 9 -4 17t-2 14q0 2 1 7t1 9q2 4 3 9.5t5 9.5q2 3 5 6.5t5 7.5q7 5 17 10q3 5 8.5 6t7.5 3q5 0 8.5 2t11.5 2q2 0 7.5 -2t11.5 -2q4 -2 8 -3t6 -6q4 -2 9 -5t8 -5q1 -2 2 -3.5 t2 -3.5l4 -7q6 -11 8 -19q2 -4 3 -9t1 -7q0 -6 -1 -14t-5 -17q0 -6 -6 -11zM1108 154q0 15 -4 24q-4 18 -19 25q-2 6 -8 9t-12 5q-11 6 -29 6q-14 0 -26 -6q-11 -1 -23 -14q-9 -5 -14 -25q-5 -5 -6 -11v-28q0 -4 6 -12q5 -15 13.5 -24t23.5 -17q10 -4 26 -4q19 0 29 4 q15 7 20 16q14 5 18.5 22t4.5 30zM774 262h139v-39h-100v-56h82v-38h-82v-86h-39v219zM571 223h-59v-180h-43v180h-63v39h165v-39zM1389 262h165v-39h-65v-180h-39v180h-61v39zM1366 1315q17 -9 36 -21t36 -23h-324q36 30 74 44q39 18 88 18q47 0 90 -18zM1188 864 q-19 7 -37 19t-35 26h322q-17 -14 -36 -26t-36 -19q-23 -6 -45.5 -11t-44.5 -5q-25 0 -46 5t-42 11zM559 604l-47 68q4 0 12 4q7 3 8 10q9 6 9 12v25q-6 15 -13 20q-5 9 -14 9q-2 4 -7 5t-9 1h-56v-154h23v64h24l39 -56q1 -4 7 -6zM1169 604l-67 154h-21l-67 -154h12 q7 0 10 2q0 2 6 6l11 27h77l11 -27q1 -4 6 -6q2 -2 8 -2h14zM1931 721q2 -2 6.5 -8t5.5 -11q4 -7 5 -23q0 -13 -5 -22q-1 -4 -6 -10l-6 -6q-5 -4 -9.5 -7t-8.5 -7q-9 -4 -23 -4q-15 0 -22 4q-5 4 -10 7t-9 7q-3 2 -6.5 7t-3.5 9q-4 6 -5 11.5t-1 10.5q0 12 6 23q0 5 3 11 t7 8q9 9 19.5 12.5t21.5 3.5q13 0 23 -4zM801 721q6 -2 9 -8t5 -11q4 -7 4 -23q0 -11 -4 -22q-2 -4 -5 -9t-9 -7q-5 -10 -17 -14t-22 -4q-11 0 -23 4q-4 4 -9 7t-9 7q-2 2 -6 7t-6 9q-4 12 -4 22q0 21 9 32.5t25 21.5q5 2 12 3t11 1q14 0 22 -4q13 -5 17 -12zM295 690 q5 13 6 19q0 10 -6 20q0 2 -4 6l-6 6q-2 3 -5.5 7t-9.5 4q-2 4 -8 5t-10 1h-53v-154h18v58h35q4 0 10 0.5t8 3.5q11 4 15 10q4 2 7 6t3 8zM2218 332h31l6 3q5 4 9.5 6t8.5 5l3 6q3 6 6.5 11.5t3.5 9.5v34q-2 6 -6.5 10.5t-6.5 8.5q-6 2 -10 5t-8 7h-43q-6 -4 -10 -7t-9 -5 q-7 -5 -12 -19q-2 -9 -2 -12v-22q0 -4 1 -9t5 -8l4 -4q3 -3 4 -6l6 -4q7 -5 11.5 -6.5t7.5 -3.5zM2126 758h-21v-119l-2.5 5t-3.5 5l-74 103l-4 6h-24v-154h22v121l90 -121h17v154zM1579 407q-3 -6 -4.5 -12t-1.5 -8v-8q3 -15 8 -23q0 -2 2 -4t4 -6l6 -4q2 -2 9 -2 q2 -4 6 -5t6 -3h28q5 2 8 3t7 5l10 6q2 4 5 6t3 4q2 3 3 8t3 9q0 2 1 6t1 8q0 2 -1 8t-5 12q0 6 -4 10.5t-6 8.5q-3 1 -8 6l-10 6h-43q-4 -4 -9.5 -7t-9.5 -5q-2 -3 -5 -8t-3 -11zM997 758h-18v-119l-78 113q-4 0 -6 6h-25v-154h21v125h2l2 -2v-4l86 -119h16v154zM2114 381 q-4 -1 -7.5 -2t-5.5 -2l45 -60h-12q-7 2 -8.5 3.5t-1.5 5.5l-39 51h-27v-60h-16v138h57q3 0 10 -2q2 -2 5.5 -4.5t4.5 -4.5q4 -2 5.5 -6t7.5 -8v-27q-4 -4 -5 -8t-3 -6zM1343 381q-3 -3 -12 -4l47 -60h-15q-10 3 -9 9l-39 51h-28v-60h-13v138h56q10 -2 14.5 -4.5t9.5 -6.5 q0 -2 3 -6t3 -8l2 -20q-3 -17 -6 -21l-6 -4q-2 -2 -7 -4zM412 758h-97v-154h97v21h-74v47h59v18h-59v45h74v23zM1722 758h-94v-154h94v21h-71v47h59v18h-59v45h71v23zM2460 453l18 2v-138h-12v113l-2 -2v-2q-4 -7 -7 -17t-8 -14q-4 -7 -6 -13.5t-8 -14.5q-2 -9 -3 -15 t-5 -10q-3 -9 -6.5 -13.5t-5.5 -11.5h-15q-10 13 -15 26t-11 28q-4 12 -11.5 26.5t-11.5 28.5v2h-4v-111h-14v138h14l8 -4v-5l49 -106l3 -2v4q0 1 8 6l40 98q2 5 3.5 5t1.5 2zM1479 758h-21v-103q0 -3 -2 -8q-1 -7 -10 -12q0 -2 -4 -4t-6 -6l-9 -2h-8q-7 0 -14 2 q-5 4 -8.5 6t-5.5 4l-11 12q0 3 -1 7.5t-1 11.5v92h-20v-92q0 -7 1.5 -17.5t6.5 -15.5q2 -6 10 -12q2 -3 4.5 -6t8.5 -5q2 -2 6 -3t8 -3q4 0 7 -1t9 -1q4 0 7.5 1t11.5 1q2 2 5 3t7 3q9 6 12 11q3 2 5.5 5t5.5 7q0 4 3 7t3 7v111zM663 631q2 5 3.5 8.5t1.5 9.5q0 11 -5.5 19 t-11.5 14q-2 0 -4 2t-6 4l-4 2h-4q-4 3 -6.5 3.5t-3.5 1.5q-7 2 -9 3.5t-6 3.5q-6 3 -9 3l-3 22q9 7 12 8l15 2q11 -3 12 -6l6 -2q10 0 14 4l4 2l-6 8q-2 1 -5 4t-7 5q-2 0 -4 2t-6 4h-29q-5 -2 -7.5 -4t-6.5 -4q-2 -5 -6 -8t-7 -7q0 -4 -2 -7t-2 -9q0 -7 4 -17l5 -8l6 -4 q2 -2 6 -5t7 -3l8 -5q2 -1 7 -1q1 -2 6 -2t7 -2l6 -2q5 -4 5.5 -5.5t2.5 -5.5l2 -16q-4 -5 -4 -7.5t-2 -4.5q-1 -3 -7 -5l-3 -1q-4 0 -8 -1t-5 -1q-5 0 -11.5 1.5t-6.5 6.5l-4 2q-4 4 -12 4h-5l-10 -4l10 -18h3q7 -7 16.5 -9t19.5 -2h9q5 0 12 2q4 2 9 4t7 5q4 2 7.5 6 t4.5 10zM1597 631q7 7 7 18t-4.5 19t-12.5 14q-6 5 -6 6h-4l-39 17l-6 6q0 1 -1 3.5t-1 4.5q0 4 4 8q5 4 6.5 6t5.5 2q2 2 10 2l3 -1q5 -2 8 -3l6 -2q6 -2 8 -2q7 0 8 4l6 2q0 2 -3 4t-5 4q0 1 -3 4l-5 5q-3 0 -5.5 2t-6.5 4h-6l-5 1q-6 0 -10 -0.5t-8 -0.5l-14 -8l-11 -15 q-1 -4 -3.5 -7t-2.5 -9q0 -4 2 -8t4 -9q2 -4 4.5 -7t4.5 -5q4 -2 7 -5t7 -3q9 -5 14 -6q4 -2 6.5 -2t6.5 -2q5 0 10.5 -3.5t5.5 -9.5l2 -15q-2 -7 -4 -9l-4 -4q-12 -9 -23 -8q-2 0 -6 1t-6 1q-3 1 -8 6l-3 2q-4 4 -9 4h-7l-10 -4l8 -10v-2q7 -5 9 -6q6 -7 14 -9t18 -2h12 q3 0 11 2q2 2 6 4t8 5l6 8q3 3 4 8zM1741 317h-17v138h19l82 -113v113h14v-138h-12l-82 113v4h-4v-117zM78 350q-4 4 -5.5 8t-2.5 9q-2 6 -3 10t-1 10t4 16q1 4 2.5 9.5t5.5 9.5l9 14q2 2 6.5 5t6.5 5q5 5 10 6t9 3q3 0 8.5 2t11.5 2q16 0 27 -8q14 -4 22 -15l-5 -6h-13 q-3 2 -6.5 5t-7.5 3h-37l-21 -12q-4 -3 -7.5 -7.5t-4.5 -11.5q-2 -6 -3 -12t-1 -8q0 -10 4 -14q0 -4 0.5 -9t0.5 -8l5 -4q5 -1 6 -6l8 -5q2 -1 7 -1q2 -4 5 -5t7 -3h33q2 2 7 3t9 5v29h-14v2l-6 4h-3l-1 8h38v-51q-2 -5 -4 -6.5t-6 -6.5h-12q-9 -2 -12 -2h-35q-5 0 -19 9 q-7 0 -13 10zM240 438v-43h55v-16h-55v-47h67v-15h-84v138h84v-17h-67zM1171 438v-43h60v-16h-60v-47h68v-15h-84v138h84v-17h-68zM2374 758h-19q-5 0 -9.5 -4t-4.5 -9l-37 -47h-4l-39 47q-3 14 -16 13h-17l58 -76v-3l4 -3v-72h21v70l5 5v3zM2253 625h-68v133h-22v-154h90 v21zM641 455v-84q0 -6 2 -9.5t6 -5.5q0 -6 3 -9.5t5 -4.5q0 -2 4.5 -4t6.5 -4q6 -2 8 -2h16q9 4 13 6l8 4q4 1 8 14q4 3 4 15v84h14v-84q0 -10 -3.5 -22t-12.5 -17q-5 -13 -16 -13q-6 -1 -12 -1.5t-11 -0.5t-11 0.5t-14 1.5q-3 0 -16 13l-10 16q-1 6 -3.5 11.5t-2.5 11.5v84 h14zM1270 625h-66v133h-20v-154h86v21zM1452 336q1 2 2 3.5t2 3.5q2 2 3 6.5t1 6.5q0 18 -16 23q-3 0 -13 4t-12 6q-10 0 -14 8q-2 0 -4 3l-4 6v23q0 1 2 7q0 9 8 10l6 5l4 2l4 2q4 0 6.5 2t8.5 2l10 -4q3 0 4.5 -1t5.5 -3q6 0 6 -7q5 0 7 -3l1 -3l-2 -2q-6 -2 -10 -2h-6 l-25 4q-9 0 -8 -2q-5 -7 -6 -8q-4 0 -4 -8q0 -5 4 -6q0 -4 4 -7l6 -4q4 -4 7.5 -4t7.5 -2l6 -2q3 0 8 -6h4l6 -2q5 -4 8 -7l5 -5q1 -5 1.5 -9.5t0.5 -9.5v-10q-5 -9 -7.5 -13t-7.5 -7q-2 -2 -6 -4.5t-6 -2.5q-4 -2 -10 -2h-10q-10 0 -17.5 1t-13.5 8q-2 0 -3 3t-5 5v4l-2 2 l4 2h6q1 0 3.5 -1t4.5 -1q4 -4 7 -5t5 -3h21q8 0 12 4zM1069 317l-59 138h5q11 0 15 -9l43 -104v-2h2l2 2q5 14 13 27.5t12 25.5q4 15 10 27l12 24q0 5 1.5 5t1.5 2l18 2q-7 -17 -15 -34.5t-16 -33.5q-4 -9 -7.5 -18.5t-6.5 -18.5l-15 -33h-16zM532 438v-49h60v-12h-60v-60 h-16v138h86v-17h-70zM1958 438v-49h55v-12h-55v-60h-16v138h83v-17h-67zM879 455v-123h63v-15h-80v138h17zM371 317v121h-47v17h106v-17h-47v-121h-12zM784 455v-123h64v-15h-80v138h16zM270 729q2 -1 3 -4.5t3 -5.5q3 -4 3 -10v-4q0 -2 -3 -7q-2 -2 -3 -5t-3 -3 q-1 -2 -3 -4t-5 -4h-45v53h35q4 0 10 -2zM1325 389q5 0 6 4q4 4 10 4l2 4q5 11 5 17q0 2 -1 3t-1 5q-3 2 -4 3t-1 5q-5 0 -10 4h-44v-49h38zM2101 393q4 4 8 4q5 7 5 9q2 4 2 12q0 3 -2 8q0 1 -5 8q-3 0 -8 4h-43v-49h35q4 1 8 4zM518 702l-4 -8q-2 0 -3 -2t-3 -2 q-2 -2 -10 -2h-33v47h33q3 0 10 -2l6 -4l2 -4l2 -4q3 -1 4 -10q-1 -6 -4 -9zM1524 455v-138h-17v138h17zM684 129l-29 74h-2l-30 -74h61zM1092 727v-4l28 -64h-59l29 64v6zM1755 82q6 0 6 -6l2 -10q0 -7 -2 -9q0 -4 -6 -10l-24 -4q-4 4 -9 4q0 2 -6 10q-2 2 -2 9v4l8 12 q7 4 9 4l15 4z" />
<glyph unicode="7" d="M2478 1092v-586h-2404v586h911q0 30 5 59t20 53q12 29 26.5 52.5t36.5 41.5q38 42 92 62q27 12 54.5 17t56.5 5q33 0 61.5 -6t53.5 -16q59 -29 94.5 -64.5t62.5 -95.5q19 -52 19 -108h911zM1010 1092q0 -61 18.5 -103t56.5 -88q38 -37 87 -58.5t104 -21.5q53 0 102 19 t85 59q21 19 35.5 40.5t25.5 43.5q21 54 22 109q0 46 -14.5 87.5t-44.5 77.5q-14 19 -29.5 32.5t-34.5 25.5q-18 7 -37.5 17.5t-39.5 17.5l-32.5 6.5t-37.5 3.5q-59 0 -107 -25q-49 -17 -84 -57q-36 -36 -55.5 -85.5t-19.5 -100.5zM1141 935l315 318q62 -78 62 -161 q0 -23 -3.5 -44.5t-11.5 -41.5q-14 -37 -41 -71h-321zM1094 928q-28 36 -43 76q-9 18 -12 40.5t-3 47.5q0 19 3 40t12 42q4 19 14 36t25 33h319zM2195 207q3 -4 6 -10.5t5 -14.5q4 -7 4 -15v-30q0 -7 -4 -12q-2 -7 -5 -15t-6 -14q-4 -7 -16 -20l-12 -10t-13 -9 q-5 -5 -12.5 -7.5l-13.5 -4.5q-9 -2 -14 -2h-17q-20 0 -43 6q-9 6 -16.5 12.5t-16.5 14.5q-9 6 -14.5 14t-7.5 21q-6 10 -8 20t-2 23q0 9 1 14.5t1 13.5q3 7 6.5 14t7.5 11q2 9 6 13.5t10 10.5q3 4 10 8.5t13 10.5q4 2 11 4t13 6q11 0 17 1t12 1q10 0 17.5 -1t13.5 -1 q6 -4 13 -6t13 -4q14 -11 25 -19q2 -6 8 -10.5t8 -13.5zM1135 207q2 -4 4 -10.5t6 -14.5q2 -11 2 -15v-30q0 -5 -2 -12q-3 -7 -5.5 -15t-4.5 -14q-5 -4 -10 -10t-9 -10q-15 -15 -23 -19.5t-26 -11.5q-4 -1 -7.5 -1.5t-7.5 -0.5h-16q-10 0 -20 2t-23 4q-12 6 -19 12.5 t-16 14.5q-16 15 -23 35.5t-7 42.5v13q0 4 2 15q5 18 12 25q4 9 8 13.5t8 10.5q7 4 12 8.5t11 10.5l29 10q4 0 11 1t15 1q9 0 16 -1t15 -1q6 -4 13 -6l14 -4l22 -19q4 -6 9 -10.5t10 -13.5zM2433 260l1 1l44 1v-219h-37v160l-6 -10v-6q-9 -19 -15.5 -38.5t-15.5 -33.5 q-6 -19 -12 -35.5t-14 -36.5h-37l-55 139q-5 3 -5 11l-4 6v-156h-41v219h39q5 0 7 -1t4 -1q2 -2 3 -2t3 -2l8 -4q0 -2 2 -4t2 -4q4 -17 11 -32t16 -34q6 -16 12 -32.5t12 -30.5v-13l6 13l9 14l45 115l4 8l6 4q2 2 4 2t4 2zM1329 262h38v-219h-36l-100 147l-4 3v2 q-5 10 -7.5 12t-5.5 2v-166h-39v219h35q4 0 8.5 -1t4.5 -3q3 -2 5.5 -2t4.5 -2l22 -33q5 -9 10 -17.5t11 -17.5q14 -14 24.5 -29.5t24.5 -29.5q0 -2 1 -5t1 -7l2 -5v152zM672 262l94 -219h-25q-9 0 -16 4q-2 2 -4 7t-6 9l-13 27h-100l-10 -27q0 -6 -4 -6l-8 -10 q-2 0 -3.5 -1t-5.5 -1l-30 -2l96 219h35zM260 262h139v-39h-100v-49h82v-41h-82v-51h100v-39h-139v219zM74 262h159v-24l-8 -15l-106 -143h2l2 2h108v-39h-165v14q0 10 2 11q0 2 6 8v4l2 4l4 4t2 6l94 129h-102v39zM838 659q1 6 2.5 10.5t1.5 9.5q0 13 -4 23q0 5 -3.5 9 t-5.5 10q-2 3 -5 6.5t-7 7.5l-7 6q-2 3 -9 9l-8 4q-2 1 -5 2l-6 2h-41q-11 -4 -18 -8q-4 -5 -8 -8t-8 -7q-12 -9 -13 -14q-4 -6 -5 -10t-3 -9q-1 -5 -1.5 -10.5t-0.5 -12.5q0 -16 6.5 -29t16.5 -25q12 -15 26 -15q12 -6 29 -6h20q6 2 11 4t8 4q12 5 16 13q7 7 12 16 q2 4 5.5 9t3.5 9zM1966 659v43q-2 5 -3.5 9.5t-4.5 9.5q-5 6 -15 14q-1 4 -5.5 7t-8.5 8q-2 1 -4.5 2t-5.5 2l-8 4h-41q-5 -2 -10.5 -4t-10.5 -4q-3 -5 -6.5 -8t-7.5 -7q-3 -4 -6.5 -7t-5.5 -7q-2 -6 -5 -10t-3 -9q-5 -11 -5 -23q0 -5 2.5 -13.5t6.5 -14.5q5 -16 16 -26 q9 -15 25 -15q12 -6 30 -6h21q3 2 8.5 4t9.5 4q4 3 8.5 6t5.5 7q10 5 15 16zM1839 203q-7 -7 -14 -25q-2 -4 -4 -10t-2 -14q0 -10 6 -27.5t14 -24.5q10 -10 23 -16q13 -4 28 -4q5 0 10 1t11 1q3 2 8.5 5t9.5 7q2 0 8 2h13q2 0 8 -2q2 -1 8 -6l6 -8l-6 -8t-8 -8q-6 -3 -11 -6 t-12 -7q-5 -3 -16.5 -6.5t-17.5 -3.5h-11q-12 0 -23.5 2t-21.5 4q-21 10 -35 27q-16 15 -22 35q-4 10 -7 20t-3 23q0 9 1 14.5t3 13.5q2 17 10 25l9 13.5t9 10.5l25 19l27 10q5 0 12.5 1t15.5 1h13q4 0 16 -3t16 -5l23 -14q4 -4 7.5 -8.5t6.5 -8.5l-14 -16h-15q-7 0 -14 4 q-3 2 -8.5 5t-9.5 5q-9 2 -11 2h-10q-16 0 -28 -6q-16 -2 -23 -14zM1700 133q5 -9 6 -20q0 -15 -8 -29l-8 -13q-3 -5 -9 -8q-6 -6 -11 -10t-13 -6q-5 -2 -14 -3t-15 -1q-12 0 -33 4q-10 4 -22 19q-4 1 -6 5l-4 9q-6 2 -7 10l7 4l8 2l2 2h10q13 -3 14 -4q5 -4 9 -6t6 -4 q2 0 6 -1t10 -1h5q9 2 13 3.5t7 4.5q2 2 4.5 4t3.5 4q2 4 4 7.5t2 7.5q0 6 -6 10q-4 6 -8 6q-2 4 -6.5 5t-7.5 3q-5 0 -13 6q-5 0 -9.5 1t-10.5 6q-10 3 -13.5 6.5l-7.5 7.5q-12 4 -12 14q-6 12 -6 25q0 19 6 26q1 4 6 11l8 10q4 2 9.5 4t13.5 6q6 0 11 1t13 1q4 0 8.5 -1 t10.5 -1l16 -6q3 -4 6.5 -7t7.5 -7q3 -2 7 -5.5t4 -7.5l-14 -8l-21 -4l-6 2q-3 1 -6 4q-2 0 -3.5 1t-4.5 1h-17q-2 0 -3 -1t-5 -3l-7 -6q-1 -3 -1 -10q3 -6 4.5 -9.5t3.5 -7.5h6q9 -2 14 -5t11 -5l8 -2q5 -4 9.5 -5.5t10.5 -4.5q6 -2 16.5 -13.5t10.5 -17.5zM1579 336 q-12 9 -16 20q-6 15 -7 31v16l11 19q2 2 4.5 6t7.5 8q6 9 12 10q3 5 9 6t10 3q4 0 8 2t10 2q4 0 10.5 -2t10.5 -2q4 -2 8 -3t8 -6l12 -10l13 -14q2 -4 4 -8.5t4 -10.5q0 -4 1 -9t1 -7q0 -6 -1 -14t-5 -17q-4 -13 -17 -20q-4 -4 -9 -8t-13 -9q-11 -2 -27 -2h-15q-4 0 -11 2 q-16 4 -23 17zM2165 127q5 13 6 27q0 16 -6 24q-3 14 -14 24.5t-25 14.5q-4 4 -11.5 5t-17.5 1q-11 0 -26 -6q-7 -1 -12 -4.5t-11 -9.5q-9 -6 -16 -25q0 -4 -1 -10t-1 -14q0 -9 1 -15t1 -12q9 -17 16 -25q6 -4 11 -8t12 -8q7 -2 14.5 -3t11.5 -1q21 0 29 4q29 11 39 41z M2284 336q-6 -4 -12.5 -8t-12.5 -9q-9 -2 -13 -2h-29q-4 0 -13 2q-12 4 -23 17q-7 7 -14 20q-2 9 -4 17t-2 14q0 2 1 7t1 9q2 4 3 9.5t5 9.5q2 3 5 6.5t5 7.5q7 5 17 10q3 5 8.5 6t7.5 3q5 0 8.5 2t11.5 2q2 0 7.5 -2t11.5 -2q4 -2 8 -3t6 -6q4 -2 9 -5t8 -5q1 -2 2 -3.5 t2 -3.5l4 -7q6 -11 8 -19q2 -4 3 -9t1 -7q0 -6 -1 -14t-5 -17q0 -6 -6 -11zM1108 154q0 15 -4 24q-4 18 -19 25q-2 6 -8 9t-12 5q-11 6 -29 6q-14 0 -26 -6q-11 -1 -23 -14q-9 -5 -14 -25q-5 -5 -6 -11v-28q0 -4 6 -12q5 -15 13.5 -24t23.5 -17q10 -4 26 -4q19 0 29 4 q15 7 20 16q14 5 18.5 22t4.5 30zM774 262h139v-39h-100v-56h82v-38h-82v-86h-39v219zM571 223h-59v-180h-43v180h-63v39h165v-39zM1389 262h165v-39h-65v-180h-39v180h-61v39zM1366 1315q17 -9 36 -21t36 -23h-324q36 30 74 44q39 18 88 18q47 0 90 -18zM1188 864 q-19 7 -37 19t-35 26h322q-17 -14 -36 -26t-36 -19q-23 -6 -45.5 -11t-44.5 -5q-25 0 -46 5t-42 11zM559 604l-47 68q4 0 12 4q7 3 8 10q9 6 9 12v25q-6 15 -13 20q-5 9 -14 9q-2 4 -7 5t-9 1h-56v-154h23v64h24l39 -56q1 -4 7 -6zM1169 604l-67 154h-21l-67 -154h12 q7 0 10 2q0 2 6 6l11 27h77l11 -27q1 -4 6 -6q2 -2 8 -2h14zM1931 721q2 -2 6.5 -8t5.5 -11q4 -7 5 -23q0 -13 -5 -22q-1 -4 -6 -10l-6 -6q-5 -4 -9.5 -7t-8.5 -7q-9 -4 -23 -4q-15 0 -22 4q-5 4 -10 7t-9 7q-3 2 -6.5 7t-3.5 9q-4 6 -5 11.5t-1 10.5q0 12 6 23q0 5 3 11 t7 8q9 9 19.5 12.5t21.5 3.5q13 0 23 -4zM801 721q6 -2 9 -8t5 -11q4 -7 4 -23q0 -11 -4 -22q-2 -4 -5 -9t-9 -7q-5 -10 -17 -14t-22 -4q-11 0 -23 4q-4 4 -9 7t-9 7q-2 2 -6 7t-6 9q-4 12 -4 22q0 21 9 32.5t25 21.5q5 2 12 3t11 1q14 0 22 -4q13 -5 17 -12zM295 690 q5 13 6 19q0 10 -6 20q0 2 -4 6l-6 6q-2 3 -5.5 7t-9.5 4q-2 4 -8 5t-10 1h-53v-154h18v58h35q4 0 10 0.5t8 3.5q11 4 15 10q4 2 7 6t3 8zM2218 332h31l6 3q5 4 9.5 6t8.5 5l3 6q3 6 6.5 11.5t3.5 9.5v34q-2 6 -6.5 10.5t-6.5 8.5q-6 2 -10 5t-8 7h-43q-6 -4 -10 -7t-9 -5 q-7 -5 -12 -19q-2 -9 -2 -12v-22q0 -4 1 -9t5 -8l4 -4q3 -3 4 -6l6 -4q7 -5 11.5 -6.5t7.5 -3.5zM2126 758h-21v-119l-2.5 5t-3.5 5l-74 103l-4 6h-24v-154h22v121l90 -121h17v154zM1579 407q-3 -6 -4.5 -12t-1.5 -8v-8q3 -15 8 -23q0 -2 2 -4t4 -6l6 -4q2 -2 9 -2 q2 -4 6 -5t6 -3h28q5 2 8 3t7 5l10 6q2 4 5 6t3 4q2 3 3 8t3 9q0 2 1 6t1 8q0 2 -1 8t-5 12q0 6 -4 10.5t-6 8.5q-3 1 -8 6l-10 6h-43q-4 -4 -9.5 -7t-9.5 -5q-2 -3 -5 -8t-3 -11zM997 758h-18v-119l-78 113q-4 0 -6 6h-25v-154h21v125h2l2 -2v-4l86 -119h16v154zM2114 381 q-4 -1 -7.5 -2t-5.5 -2l45 -60h-12q-7 2 -8.5 3.5t-1.5 5.5l-39 51h-27v-60h-16v138h57q3 0 10 -2q2 -2 5.5 -4.5t4.5 -4.5q4 -2 5.5 -6t7.5 -8v-27q-4 -4 -5 -8t-3 -6zM1343 381q-3 -3 -12 -4l47 -60h-15q-10 3 -9 9l-39 51h-28v-60h-13v138h56q10 -2 14.5 -4.5t9.5 -6.5 q0 -2 3 -6t3 -8l2 -20q-3 -17 -6 -21l-6 -4q-2 -2 -7 -4zM412 758h-97v-154h97v21h-74v47h59v18h-59v45h74v23zM1722 758h-94v-154h94v21h-71v47h59v18h-59v45h71v23zM2460 453l18 2v-138h-12v113l-2 -2v-2q-4 -7 -7 -17t-8 -14q-4 -7 -6 -13.5t-8 -14.5q-2 -9 -3 -15 t-5 -10q-3 -9 -6.5 -13.5t-5.5 -11.5h-15q-10 13 -15 26t-11 28q-4 12 -11.5 26.5t-11.5 28.5v2h-4v-111h-14v138h14l8 -4v-5l49 -106l3 -2v4q0 1 8 6l40 98q2 5 3.5 5t1.5 2zM1479 758h-21v-103q0 -3 -2 -8q-1 -7 -10 -12q0 -2 -4 -4t-6 -6l-9 -2h-8q-7 0 -14 2 q-5 4 -8.5 6t-5.5 4l-11 12q0 3 -1 7.5t-1 11.5v92h-20v-92q0 -7 1.5 -17.5t6.5 -15.5q2 -6 10 -12q2 -3 4.5 -6t8.5 -5q2 -2 6 -3t8 -3q4 0 7 -1t9 -1q4 0 7.5 1t11.5 1q2 2 5 3t7 3q9 6 12 11q3 2 5.5 5t5.5 7q0 4 3 7t3 7v111zM663 631q2 5 3.5 8.5t1.5 9.5q0 11 -5.5 19 t-11.5 14q-2 0 -4 2t-6 4l-4 2h-4q-4 3 -6.5 3.5t-3.5 1.5q-7 2 -9 3.5t-6 3.5q-6 3 -9 3l-3 22q9 7 12 8l15 2q11 -3 12 -6l6 -2q10 0 14 4l4 2l-6 8q-2 1 -5 4t-7 5q-2 0 -4 2t-6 4h-29q-5 -2 -7.5 -4t-6.5 -4q-2 -5 -6 -8t-7 -7q0 -4 -2 -7t-2 -9q0 -7 4 -17l5 -8l6 -4 q2 -2 6 -5t7 -3l8 -5q2 -1 7 -1q1 -2 6 -2t7 -2l6 -2q5 -4 5.5 -5.5t2.5 -5.5l2 -16q-4 -5 -4 -7.5t-2 -4.5q-1 -3 -7 -5l-3 -1q-4 0 -8 -1t-5 -1q-5 0 -11.5 1.5t-6.5 6.5l-4 2q-4 4 -12 4h-5l-10 -4l10 -18h3q7 -7 16.5 -9t19.5 -2h9q5 0 12 2q4 2 9 4t7 5q4 2 7.5 6 t4.5 10zM1597 631q7 7 7 18t-4.5 19t-12.5 14q-6 5 -6 6h-4l-39 17l-6 6q0 1 -1 3.5t-1 4.5q0 4 4 8q5 4 6.5 6t5.5 2q2 2 10 2l3 -1q5 -2 8 -3l6 -2q6 -2 8 -2q7 0 8 4l6 2q0 2 -3 4t-5 4q0 1 -3 4l-5 5q-3 0 -5.5 2t-6.5 4h-6l-5 1q-6 0 -10 -0.5t-8 -0.5l-14 -8l-11 -15 q-1 -4 -3.5 -7t-2.5 -9q0 -4 2 -8t4 -9q2 -4 4.5 -7t4.5 -5q4 -2 7 -5t7 -3q9 -5 14 -6q4 -2 6.5 -2t6.5 -2q5 0 10.5 -3.5t5.5 -9.5l2 -15q-2 -7 -4 -9l-4 -4q-12 -9 -23 -8q-2 0 -6 1t-6 1q-3 1 -8 6l-3 2q-4 4 -9 4h-7l-10 -4l8 -10v-2q7 -5 9 -6q6 -7 14 -9t18 -2h12 q3 0 11 2q2 2 6 4t8 5l6 8q3 3 4 8zM1741 317h-17v138h19l82 -113v113h14v-138h-12l-82 113v4h-4v-117zM78 350q-4 4 -5.5 8t-2.5 9q-2 6 -3 10t-1 10t4 16q1 4 2.5 9.5t5.5 9.5l9 14q2 2 6.5 5t6.5 5q5 5 10 6t9 3q3 0 8.5 2t11.5 2q16 0 27 -8q14 -4 22 -15l-5 -6h-13 q-3 2 -6.5 5t-7.5 3h-37l-21 -12q-4 -3 -7.5 -7.5t-4.5 -11.5q-2 -6 -3 -12t-1 -8q0 -10 4 -14q0 -4 0.5 -9t0.5 -8l5 -4q5 -1 6 -6l8 -5q2 -1 7 -1q2 -4 5 -5t7 -3h33q2 2 7 3t9 5v29h-14v2l-6 4h-3l-1 8h38v-51q-2 -5 -4 -6.5t-6 -6.5h-12q-9 -2 -12 -2h-35q-5 0 -19 9 q-7 0 -13 10zM240 438v-43h55v-16h-55v-47h67v-15h-84v138h84v-17h-67zM1171 438v-43h60v-16h-60v-47h68v-15h-84v138h84v-17h-68zM2374 758h-19q-5 0 -9.5 -4t-4.5 -9l-37 -47h-4l-39 47q-3 14 -16 13h-17l58 -76v-3l4 -3v-72h21v70l5 5v3zM2253 625h-68v133h-22v-154h90 v21zM641 455v-84q0 -6 2 -9.5t6 -5.5q0 -6 3 -9.5t5 -4.5q0 -2 4.5 -4t6.5 -4q6 -2 8 -2h16q9 4 13 6l8 4q4 1 8 14q4 3 4 15v84h14v-84q0 -10 -3.5 -22t-12.5 -17q-5 -13 -16 -13q-6 -1 -12 -1.5t-11 -0.5t-11 0.5t-14 1.5q-3 0 -16 13l-10 16q-1 6 -3.5 11.5t-2.5 11.5v84 h14zM1270 625h-66v133h-20v-154h86v21zM1452 336q1 2 2 3.5t2 3.5q2 2 3 6.5t1 6.5q0 18 -16 23q-3 0 -13 4t-12 6q-10 0 -14 8q-2 0 -4 3l-4 6v23q0 1 2 7q0 9 8 10l6 5l4 2l4 2q4 0 6.5 2t8.5 2l10 -4q3 0 4.5 -1t5.5 -3q6 0 6 -7q5 0 7 -3l1 -3l-2 -2q-6 -2 -10 -2h-6 l-25 4q-9 0 -8 -2q-5 -7 -6 -8q-4 0 -4 -8q0 -5 4 -6q0 -4 4 -7l6 -4q4 -4 7.5 -4t7.5 -2l6 -2q3 0 8 -6h4l6 -2q5 -4 8 -7l5 -5q1 -5 1.5 -9.5t0.5 -9.5v-10q-5 -9 -7.5 -13t-7.5 -7q-2 -2 -6 -4.5t-6 -2.5q-4 -2 -10 -2h-10q-10 0 -17.5 1t-13.5 8q-2 0 -3 3t-5 5v4l-2 2 l4 2h6q1 0 3.5 -1t4.5 -1q4 -4 7 -5t5 -3h21q8 0 12 4zM1069 317l-59 138h5q11 0 15 -9l43 -104v-2h2l2 2q5 14 13 27.5t12 25.5q4 15 10 27l12 24q0 5 1.5 5t1.5 2l18 2q-7 -17 -15 -34.5t-16 -33.5q-4 -9 -7.5 -18.5t-6.5 -18.5l-15 -33h-16zM532 438v-49h60v-12h-60v-60 h-16v138h86v-17h-70zM1958 438v-49h55v-12h-55v-60h-16v138h83v-17h-67zM879 455v-123h63v-15h-80v138h17zM371 317v121h-47v17h106v-17h-47v-121h-12zM784 455v-123h64v-15h-80v138h16zM270 729q2 -1 3 -4.5t3 -5.5q3 -4 3 -10v-4q0 -2 -3 -7q-2 -2 -3 -5t-3 -3 q-1 -2 -3 -4t-5 -4h-45v53h35q4 0 10 -2zM1325 389q5 0 6 4q4 4 10 4l2 4q5 11 5 17q0 2 -1 3t-1 5q-3 2 -4 3t-1 5q-5 0 -10 4h-44v-49h38zM2101 393q4 4 8 4q5 7 5 9q2 4 2 12q0 3 -2 8q0 1 -5 8q-3 0 -8 4h-43v-49h35q4 1 8 4zM518 702l-4 -8q-2 0 -3 -2t-3 -2 q-2 -2 -10 -2h-33v47h33q3 0 10 -2l6 -4l2 -4l2 -4q3 -1 4 -10q-1 -6 -4 -9zM1524 455v-138h-17v138h17zM684 129l-29 74h-2l-30 -74h61zM1092 727v-4l28 -64h-59l29 64v6zM1755 82q6 0 6 -6l2 -10q0 -7 -2 -9q0 -4 -6 -10l-24 -4q-4 4 -9 4q0 2 -6 10q-2 2 -2 9v4l8 12 q7 4 9 4l15 4z" />
<glyph unicode="8" d="M2478 1092v-586h-2404v586h911q0 30 5 59t20 53q12 29 26.5 52.5t36.5 41.5q38 42 92 62q27 12 54.5 17t56.5 5q33 0 61.5 -6t53.5 -16q59 -29 94.5 -64.5t62.5 -95.5q19 -52 19 -108h911zM1010 1092q0 -61 18.5 -103t56.5 -88q38 -37 87 -58.5t104 -21.5q53 0 102 19 t85 59q21 19 35.5 40.5t25.5 43.5q21 54 22 109q0 46 -14.5 87.5t-44.5 77.5q-14 19 -29.5 32.5t-34.5 25.5q-18 7 -37.5 17.5t-39.5 17.5l-32.5 6.5t-37.5 3.5q-59 0 -107 -25q-49 -17 -84 -57q-36 -36 -55.5 -85.5t-19.5 -100.5zM1141 935l315 318q62 -78 62 -161 q0 -23 -3.5 -44.5t-11.5 -41.5q-14 -37 -41 -71h-321zM1094 928q-28 36 -43 76q-9 18 -12 40.5t-3 47.5q0 19 3 40t12 42q4 19 14 36t25 33h319zM2195 207q3 -4 6 -10.5t5 -14.5q4 -7 4 -15v-30q0 -7 -4 -12q-2 -7 -5 -15t-6 -14q-4 -7 -16 -20l-12 -10t-13 -9 q-5 -5 -12.5 -7.5l-13.5 -4.5q-9 -2 -14 -2h-17q-20 0 -43 6q-9 6 -16.5 12.5t-16.5 14.5q-9 6 -14.5 14t-7.5 21q-6 10 -8 20t-2 23q0 9 1 14.5t1 13.5q3 7 6.5 14t7.5 11q2 9 6 13.5t10 10.5q3 4 10 8.5t13 10.5q4 2 11 4t13 6q11 0 17 1t12 1q10 0 17.5 -1t13.5 -1 q6 -4 13 -6t13 -4q14 -11 25 -19q2 -6 8 -10.5t8 -13.5zM1135 207q2 -4 4 -10.5t6 -14.5q2 -11 2 -15v-30q0 -5 -2 -12q-3 -7 -5.5 -15t-4.5 -14q-5 -4 -10 -10t-9 -10q-15 -15 -23 -19.5t-26 -11.5q-4 -1 -7.5 -1.5t-7.5 -0.5h-16q-10 0 -20 2t-23 4q-12 6 -19 12.5 t-16 14.5q-16 15 -23 35.5t-7 42.5v13q0 4 2 15q5 18 12 25q4 9 8 13.5t8 10.5q7 4 12 8.5t11 10.5l29 10q4 0 11 1t15 1q9 0 16 -1t15 -1q6 -4 13 -6l14 -4l22 -19q4 -6 9 -10.5t10 -13.5zM2433 260l1 1l44 1v-219h-37v160l-6 -10v-6q-9 -19 -15.5 -38.5t-15.5 -33.5 q-6 -19 -12 -35.5t-14 -36.5h-37l-55 139q-5 3 -5 11l-4 6v-156h-41v219h39q5 0 7 -1t4 -1q2 -2 3 -2t3 -2l8 -4q0 -2 2 -4t2 -4q4 -17 11 -32t16 -34q6 -16 12 -32.5t12 -30.5v-13l6 13l9 14l45 115l4 8l6 4q2 2 4 2t4 2zM1329 262h38v-219h-36l-100 147l-4 3v2 q-5 10 -7.5 12t-5.5 2v-166h-39v219h35q4 0 8.5 -1t4.5 -3q3 -2 5.5 -2t4.5 -2l22 -33q5 -9 10 -17.5t11 -17.5q14 -14 24.5 -29.5t24.5 -29.5q0 -2 1 -5t1 -7l2 -5v152zM672 262l94 -219h-25q-9 0 -16 4q-2 2 -4 7t-6 9l-13 27h-100l-10 -27q0 -6 -4 -6l-8 -10 q-2 0 -3.5 -1t-5.5 -1l-30 -2l96 219h35zM260 262h139v-39h-100v-49h82v-41h-82v-51h100v-39h-139v219zM74 262h159v-24l-8 -15l-106 -143h2l2 2h108v-39h-165v14q0 10 2 11q0 2 6 8v4l2 4l4 4t2 6l94 129h-102v39zM838 659q1 6 2.5 10.5t1.5 9.5q0 13 -4 23q0 5 -3.5 9 t-5.5 10q-2 3 -5 6.5t-7 7.5l-7 6q-2 3 -9 9l-8 4q-2 1 -5 2l-6 2h-41q-11 -4 -18 -8q-4 -5 -8 -8t-8 -7q-12 -9 -13 -14q-4 -6 -5 -10t-3 -9q-1 -5 -1.5 -10.5t-0.5 -12.5q0 -16 6.5 -29t16.5 -25q12 -15 26 -15q12 -6 29 -6h20q6 2 11 4t8 4q12 5 16 13q7 7 12 16 q2 4 5.5 9t3.5 9zM1966 659v43q-2 5 -3.5 9.5t-4.5 9.5q-5 6 -15 14q-1 4 -5.5 7t-8.5 8q-2 1 -4.5 2t-5.5 2l-8 4h-41q-5 -2 -10.5 -4t-10.5 -4q-3 -5 -6.5 -8t-7.5 -7q-3 -4 -6.5 -7t-5.5 -7q-2 -6 -5 -10t-3 -9q-5 -11 -5 -23q0 -5 2.5 -13.5t6.5 -14.5q5 -16 16 -26 q9 -15 25 -15q12 -6 30 -6h21q3 2 8.5 4t9.5 4q4 3 8.5 6t5.5 7q10 5 15 16zM1839 203q-7 -7 -14 -25q-2 -4 -4 -10t-2 -14q0 -10 6 -27.5t14 -24.5q10 -10 23 -16q13 -4 28 -4q5 0 10 1t11 1q3 2 8.5 5t9.5 7q2 0 8 2h13q2 0 8 -2q2 -1 8 -6l6 -8l-6 -8t-8 -8q-6 -3 -11 -6 t-12 -7q-5 -3 -16.5 -6.5t-17.5 -3.5h-11q-12 0 -23.5 2t-21.5 4q-21 10 -35 27q-16 15 -22 35q-4 10 -7 20t-3 23q0 9 1 14.5t3 13.5q2 17 10 25l9 13.5t9 10.5l25 19l27 10q5 0 12.5 1t15.5 1h13q4 0 16 -3t16 -5l23 -14q4 -4 7.5 -8.5t6.5 -8.5l-14 -16h-15q-7 0 -14 4 q-3 2 -8.5 5t-9.5 5q-9 2 -11 2h-10q-16 0 -28 -6q-16 -2 -23 -14zM1700 133q5 -9 6 -20q0 -15 -8 -29l-8 -13q-3 -5 -9 -8q-6 -6 -11 -10t-13 -6q-5 -2 -14 -3t-15 -1q-12 0 -33 4q-10 4 -22 19q-4 1 -6 5l-4 9q-6 2 -7 10l7 4l8 2l2 2h10q13 -3 14 -4q5 -4 9 -6t6 -4 q2 0 6 -1t10 -1h5q9 2 13 3.5t7 4.5q2 2 4.5 4t3.5 4q2 4 4 7.5t2 7.5q0 6 -6 10q-4 6 -8 6q-2 4 -6.5 5t-7.5 3q-5 0 -13 6q-5 0 -9.5 1t-10.5 6q-10 3 -13.5 6.5l-7.5 7.5q-12 4 -12 14q-6 12 -6 25q0 19 6 26q1 4 6 11l8 10q4 2 9.5 4t13.5 6q6 0 11 1t13 1q4 0 8.5 -1 t10.5 -1l16 -6q3 -4 6.5 -7t7.5 -7q3 -2 7 -5.5t4 -7.5l-14 -8l-21 -4l-6 2q-3 1 -6 4q-2 0 -3.5 1t-4.5 1h-17q-2 0 -3 -1t-5 -3l-7 -6q-1 -3 -1 -10q3 -6 4.5 -9.5t3.5 -7.5h6q9 -2 14 -5t11 -5l8 -2q5 -4 9.5 -5.5t10.5 -4.5q6 -2 16.5 -13.5t10.5 -17.5zM1579 336 q-12 9 -16 20q-6 15 -7 31v16l11 19q2 2 4.5 6t7.5 8q6 9 12 10q3 5 9 6t10 3q4 0 8 2t10 2q4 0 10.5 -2t10.5 -2q4 -2 8 -3t8 -6l12 -10l13 -14q2 -4 4 -8.5t4 -10.5q0 -4 1 -9t1 -7q0 -6 -1 -14t-5 -17q-4 -13 -17 -20q-4 -4 -9 -8t-13 -9q-11 -2 -27 -2h-15q-4 0 -11 2 q-16 4 -23 17zM2165 127q5 13 6 27q0 16 -6 24q-3 14 -14 24.5t-25 14.5q-4 4 -11.5 5t-17.5 1q-11 0 -26 -6q-7 -1 -12 -4.5t-11 -9.5q-9 -6 -16 -25q0 -4 -1 -10t-1 -14q0 -9 1 -15t1 -12q9 -17 16 -25q6 -4 11 -8t12 -8q7 -2 14.5 -3t11.5 -1q21 0 29 4q29 11 39 41z M2284 336q-6 -4 -12.5 -8t-12.5 -9q-9 -2 -13 -2h-29q-4 0 -13 2q-12 4 -23 17q-7 7 -14 20q-2 9 -4 17t-2 14q0 2 1 7t1 9q2 4 3 9.5t5 9.5q2 3 5 6.5t5 7.5q7 5 17 10q3 5 8.5 6t7.5 3q5 0 8.5 2t11.5 2q2 0 7.5 -2t11.5 -2q4 -2 8 -3t6 -6q4 -2 9 -5t8 -5q1 -2 2 -3.5 t2 -3.5l4 -7q6 -11 8 -19q2 -4 3 -9t1 -7q0 -6 -1 -14t-5 -17q0 -6 -6 -11zM1108 154q0 15 -4 24q-4 18 -19 25q-2 6 -8 9t-12 5q-11 6 -29 6q-14 0 -26 -6q-11 -1 -23 -14q-9 -5 -14 -25q-5 -5 -6 -11v-28q0 -4 6 -12q5 -15 13.5 -24t23.5 -17q10 -4 26 -4q19 0 29 4 q15 7 20 16q14 5 18.5 22t4.5 30zM774 262h139v-39h-100v-56h82v-38h-82v-86h-39v219zM571 223h-59v-180h-43v180h-63v39h165v-39zM1389 262h165v-39h-65v-180h-39v180h-61v39zM1366 1315q17 -9 36 -21t36 -23h-324q36 30 74 44q39 18 88 18q47 0 90 -18zM1188 864 q-19 7 -37 19t-35 26h322q-17 -14 -36 -26t-36 -19q-23 -6 -45.5 -11t-44.5 -5q-25 0 -46 5t-42 11zM559 604l-47 68q4 0 12 4q7 3 8 10q9 6 9 12v25q-6 15 -13 20q-5 9 -14 9q-2 4 -7 5t-9 1h-56v-154h23v64h24l39 -56q1 -4 7 -6zM1169 604l-67 154h-21l-67 -154h12 q7 0 10 2q0 2 6 6l11 27h77l11 -27q1 -4 6 -6q2 -2 8 -2h14zM1931 721q2 -2 6.5 -8t5.5 -11q4 -7 5 -23q0 -13 -5 -22q-1 -4 -6 -10l-6 -6q-5 -4 -9.5 -7t-8.5 -7q-9 -4 -23 -4q-15 0 -22 4q-5 4 -10 7t-9 7q-3 2 -6.5 7t-3.5 9q-4 6 -5 11.5t-1 10.5q0 12 6 23q0 5 3 11 t7 8q9 9 19.5 12.5t21.5 3.5q13 0 23 -4zM801 721q6 -2 9 -8t5 -11q4 -7 4 -23q0 -11 -4 -22q-2 -4 -5 -9t-9 -7q-5 -10 -17 -14t-22 -4q-11 0 -23 4q-4 4 -9 7t-9 7q-2 2 -6 7t-6 9q-4 12 -4 22q0 21 9 32.5t25 21.5q5 2 12 3t11 1q14 0 22 -4q13 -5 17 -12zM295 690 q5 13 6 19q0 10 -6 20q0 2 -4 6l-6 6q-2 3 -5.5 7t-9.5 4q-2 4 -8 5t-10 1h-53v-154h18v58h35q4 0 10 0.5t8 3.5q11 4 15 10q4 2 7 6t3 8zM2218 332h31l6 3q5 4 9.5 6t8.5 5l3 6q3 6 6.5 11.5t3.5 9.5v34q-2 6 -6.5 10.5t-6.5 8.5q-6 2 -10 5t-8 7h-43q-6 -4 -10 -7t-9 -5 q-7 -5 -12 -19q-2 -9 -2 -12v-22q0 -4 1 -9t5 -8l4 -4q3 -3 4 -6l6 -4q7 -5 11.5 -6.5t7.5 -3.5zM2126 758h-21v-119l-2.5 5t-3.5 5l-74 103l-4 6h-24v-154h22v121l90 -121h17v154zM1579 407q-3 -6 -4.5 -12t-1.5 -8v-8q3 -15 8 -23q0 -2 2 -4t4 -6l6 -4q2 -2 9 -2 q2 -4 6 -5t6 -3h28q5 2 8 3t7 5l10 6q2 4 5 6t3 4q2 3 3 8t3 9q0 2 1 6t1 8q0 2 -1 8t-5 12q0 6 -4 10.5t-6 8.5q-3 1 -8 6l-10 6h-43q-4 -4 -9.5 -7t-9.5 -5q-2 -3 -5 -8t-3 -11zM997 758h-18v-119l-78 113q-4 0 -6 6h-25v-154h21v125h2l2 -2v-4l86 -119h16v154zM2114 381 q-4 -1 -7.5 -2t-5.5 -2l45 -60h-12q-7 2 -8.5 3.5t-1.5 5.5l-39 51h-27v-60h-16v138h57q3 0 10 -2q2 -2 5.5 -4.5t4.5 -4.5q4 -2 5.5 -6t7.5 -8v-27q-4 -4 -5 -8t-3 -6zM1343 381q-3 -3 -12 -4l47 -60h-15q-10 3 -9 9l-39 51h-28v-60h-13v138h56q10 -2 14.5 -4.5t9.5 -6.5 q0 -2 3 -6t3 -8l2 -20q-3 -17 -6 -21l-6 -4q-2 -2 -7 -4zM412 758h-97v-154h97v21h-74v47h59v18h-59v45h74v23zM1722 758h-94v-154h94v21h-71v47h59v18h-59v45h71v23zM2460 453l18 2v-138h-12v113l-2 -2v-2q-4 -7 -7 -17t-8 -14q-4 -7 -6 -13.5t-8 -14.5q-2 -9 -3 -15 t-5 -10q-3 -9 -6.5 -13.5t-5.5 -11.5h-15q-10 13 -15 26t-11 28q-4 12 -11.5 26.5t-11.5 28.5v2h-4v-111h-14v138h14l8 -4v-5l49 -106l3 -2v4q0 1 8 6l40 98q2 5 3.5 5t1.5 2zM1479 758h-21v-103q0 -3 -2 -8q-1 -7 -10 -12q0 -2 -4 -4t-6 -6l-9 -2h-8q-7 0 -14 2 q-5 4 -8.5 6t-5.5 4l-11 12q0 3 -1 7.5t-1 11.5v92h-20v-92q0 -7 1.5 -17.5t6.5 -15.5q2 -6 10 -12q2 -3 4.5 -6t8.5 -5q2 -2 6 -3t8 -3q4 0 7 -1t9 -1q4 0 7.5 1t11.5 1q2 2 5 3t7 3q9 6 12 11q3 2 5.5 5t5.5 7q0 4 3 7t3 7v111zM663 631q2 5 3.5 8.5t1.5 9.5q0 11 -5.5 19 t-11.5 14q-2 0 -4 2t-6 4l-4 2h-4q-4 3 -6.5 3.5t-3.5 1.5q-7 2 -9 3.5t-6 3.5q-6 3 -9 3l-3 22q9 7 12 8l15 2q11 -3 12 -6l6 -2q10 0 14 4l4 2l-6 8q-2 1 -5 4t-7 5q-2 0 -4 2t-6 4h-29q-5 -2 -7.5 -4t-6.5 -4q-2 -5 -6 -8t-7 -7q0 -4 -2 -7t-2 -9q0 -7 4 -17l5 -8l6 -4 q2 -2 6 -5t7 -3l8 -5q2 -1 7 -1q1 -2 6 -2t7 -2l6 -2q5 -4 5.5 -5.5t2.5 -5.5l2 -16q-4 -5 -4 -7.5t-2 -4.5q-1 -3 -7 -5l-3 -1q-4 0 -8 -1t-5 -1q-5 0 -11.5 1.5t-6.5 6.5l-4 2q-4 4 -12 4h-5l-10 -4l10 -18h3q7 -7 16.5 -9t19.5 -2h9q5 0 12 2q4 2 9 4t7 5q4 2 7.5 6 t4.5 10zM1597 631q7 7 7 18t-4.5 19t-12.5 14q-6 5 -6 6h-4l-39 17l-6 6q0 1 -1 3.5t-1 4.5q0 4 4 8q5 4 6.5 6t5.5 2q2 2 10 2l3 -1q5 -2 8 -3l6 -2q6 -2 8 -2q7 0 8 4l6 2q0 2 -3 4t-5 4q0 1 -3 4l-5 5q-3 0 -5.5 2t-6.5 4h-6l-5 1q-6 0 -10 -0.5t-8 -0.5l-14 -8l-11 -15 q-1 -4 -3.5 -7t-2.5 -9q0 -4 2 -8t4 -9q2 -4 4.5 -7t4.5 -5q4 -2 7 -5t7 -3q9 -5 14 -6q4 -2 6.5 -2t6.5 -2q5 0 10.5 -3.5t5.5 -9.5l2 -15q-2 -7 -4 -9l-4 -4q-12 -9 -23 -8q-2 0 -6 1t-6 1q-3 1 -8 6l-3 2q-4 4 -9 4h-7l-10 -4l8 -10v-2q7 -5 9 -6q6 -7 14 -9t18 -2h12 q3 0 11 2q2 2 6 4t8 5l6 8q3 3 4 8zM1741 317h-17v138h19l82 -113v113h14v-138h-12l-82 113v4h-4v-117zM78 350q-4 4 -5.5 8t-2.5 9q-2 6 -3 10t-1 10t4 16q1 4 2.5 9.5t5.5 9.5l9 14q2 2 6.5 5t6.5 5q5 5 10 6t9 3q3 0 8.5 2t11.5 2q16 0 27 -8q14 -4 22 -15l-5 -6h-13 q-3 2 -6.5 5t-7.5 3h-37l-21 -12q-4 -3 -7.5 -7.5t-4.5 -11.5q-2 -6 -3 -12t-1 -8q0 -10 4 -14q0 -4 0.5 -9t0.5 -8l5 -4q5 -1 6 -6l8 -5q2 -1 7 -1q2 -4 5 -5t7 -3h33q2 2 7 3t9 5v29h-14v2l-6 4h-3l-1 8h38v-51q-2 -5 -4 -6.5t-6 -6.5h-12q-9 -2 -12 -2h-35q-5 0 -19 9 q-7 0 -13 10zM240 438v-43h55v-16h-55v-47h67v-15h-84v138h84v-17h-67zM1171 438v-43h60v-16h-60v-47h68v-15h-84v138h84v-17h-68zM2374 758h-19q-5 0 -9.5 -4t-4.5 -9l-37 -47h-4l-39 47q-3 14 -16 13h-17l58 -76v-3l4 -3v-72h21v70l5 5v3zM2253 625h-68v133h-22v-154h90 v21zM641 455v-84q0 -6 2 -9.5t6 -5.5q0 -6 3 -9.5t5 -4.5q0 -2 4.5 -4t6.5 -4q6 -2 8 -2h16q9 4 13 6l8 4q4 1 8 14q4 3 4 15v84h14v-84q0 -10 -3.5 -22t-12.5 -17q-5 -13 -16 -13q-6 -1 -12 -1.5t-11 -0.5t-11 0.5t-14 1.5q-3 0 -16 13l-10 16q-1 6 -3.5 11.5t-2.5 11.5v84 h14zM1270 625h-66v133h-20v-154h86v21zM1452 336q1 2 2 3.5t2 3.5q2 2 3 6.5t1 6.5q0 18 -16 23q-3 0 -13 4t-12 6q-10 0 -14 8q-2 0 -4 3l-4 6v23q0 1 2 7q0 9 8 10l6 5l4 2l4 2q4 0 6.5 2t8.5 2l10 -4q3 0 4.5 -1t5.5 -3q6 0 6 -7q5 0 7 -3l1 -3l-2 -2q-6 -2 -10 -2h-6 l-25 4q-9 0 -8 -2q-5 -7 -6 -8q-4 0 -4 -8q0 -5 4 -6q0 -4 4 -7l6 -4q4 -4 7.5 -4t7.5 -2l6 -2q3 0 8 -6h4l6 -2q5 -4 8 -7l5 -5q1 -5 1.5 -9.5t0.5 -9.5v-10q-5 -9 -7.5 -13t-7.5 -7q-2 -2 -6 -4.5t-6 -2.5q-4 -2 -10 -2h-10q-10 0 -17.5 1t-13.5 8q-2 0 -3 3t-5 5v4l-2 2 l4 2h6q1 0 3.5 -1t4.5 -1q4 -4 7 -5t5 -3h21q8 0 12 4zM1069 317l-59 138h5q11 0 15 -9l43 -104v-2h2l2 2q5 14 13 27.5t12 25.5q4 15 10 27l12 24q0 5 1.5 5t1.5 2l18 2q-7 -17 -15 -34.5t-16 -33.5q-4 -9 -7.5 -18.5t-6.5 -18.5l-15 -33h-16zM532 438v-49h60v-12h-60v-60 h-16v138h86v-17h-70zM1958 438v-49h55v-12h-55v-60h-16v138h83v-17h-67zM879 455v-123h63v-15h-80v138h17zM371 317v121h-47v17h106v-17h-47v-121h-12zM784 455v-123h64v-15h-80v138h16zM270 729q2 -1 3 -4.5t3 -5.5q3 -4 3 -10v-4q0 -2 -3 -7q-2 -2 -3 -5t-3 -3 q-1 -2 -3 -4t-5 -4h-45v53h35q4 0 10 -2zM1325 389q5 0 6 4q4 4 10 4l2 4q5 11 5 17q0 2 -1 3t-1 5q-3 2 -4 3t-1 5q-5 0 -10 4h-44v-49h38zM2101 393q4 4 8 4q5 7 5 9q2 4 2 12q0 3 -2 8q0 1 -5 8q-3 0 -8 4h-43v-49h35q4 1 8 4zM518 702l-4 -8q-2 0 -3 -2t-3 -2 q-2 -2 -10 -2h-33v47h33q3 0 10 -2l6 -4l2 -4l2 -4q3 -1 4 -10q-1 -6 -4 -9zM1524 455v-138h-17v138h17zM684 129l-29 74h-2l-30 -74h61zM1092 727v-4l28 -64h-59l29 64v6zM1755 82q6 0 6 -6l2 -10q0 -7 -2 -9q0 -4 -6 -10l-24 -4q-4 4 -9 4q0 2 -6 10q-2 2 -2 9v4l8 12 q7 4 9 4l15 4z" />
<glyph unicode="9" d="M2478 1092v-586h-2404v586h911q0 30 5 59t20 53q12 29 26.5 52.5t36.5 41.5q38 42 92 62q27 12 54.5 17t56.5 5q33 0 61.5 -6t53.5 -16q59 -29 94.5 -64.5t62.5 -95.5q19 -52 19 -108h911zM1010 1092q0 -61 18.5 -103t56.5 -88q38 -37 87 -58.5t104 -21.5q53 0 102 19 t85 59q21 19 35.5 40.5t25.5 43.5q21 54 22 109q0 46 -14.5 87.5t-44.5 77.5q-14 19 -29.5 32.5t-34.5 25.5q-18 7 -37.5 17.5t-39.5 17.5l-32.5 6.5t-37.5 3.5q-59 0 -107 -25q-49 -17 -84 -57q-36 -36 -55.5 -85.5t-19.5 -100.5zM1141 935l315 318q62 -78 62 -161 q0 -23 -3.5 -44.5t-11.5 -41.5q-14 -37 -41 -71h-321zM1094 928q-28 36 -43 76q-9 18 -12 40.5t-3 47.5q0 19 3 40t12 42q4 19 14 36t25 33h319zM2195 207q3 -4 6 -10.5t5 -14.5q4 -7 4 -15v-30q0 -7 -4 -12q-2 -7 -5 -15t-6 -14q-4 -7 -16 -20l-12 -10t-13 -9 q-5 -5 -12.5 -7.5l-13.5 -4.5q-9 -2 -14 -2h-17q-20 0 -43 6q-9 6 -16.5 12.5t-16.5 14.5q-9 6 -14.5 14t-7.5 21q-6 10 -8 20t-2 23q0 9 1 14.5t1 13.5q3 7 6.5 14t7.5 11q2 9 6 13.5t10 10.5q3 4 10 8.5t13 10.5q4 2 11 4t13 6q11 0 17 1t12 1q10 0 17.5 -1t13.5 -1 q6 -4 13 -6t13 -4q14 -11 25 -19q2 -6 8 -10.5t8 -13.5zM1135 207q2 -4 4 -10.5t6 -14.5q2 -11 2 -15v-30q0 -5 -2 -12q-3 -7 -5.5 -15t-4.5 -14q-5 -4 -10 -10t-9 -10q-15 -15 -23 -19.5t-26 -11.5q-4 -1 -7.5 -1.5t-7.5 -0.5h-16q-10 0 -20 2t-23 4q-12 6 -19 12.5 t-16 14.5q-16 15 -23 35.5t-7 42.5v13q0 4 2 15q5 18 12 25q4 9 8 13.5t8 10.5q7 4 12 8.5t11 10.5l29 10q4 0 11 1t15 1q9 0 16 -1t15 -1q6 -4 13 -6l14 -4l22 -19q4 -6 9 -10.5t10 -13.5zM2433 260l1 1l44 1v-219h-37v160l-6 -10v-6q-9 -19 -15.5 -38.5t-15.5 -33.5 q-6 -19 -12 -35.5t-14 -36.5h-37l-55 139q-5 3 -5 11l-4 6v-156h-41v219h39q5 0 7 -1t4 -1q2 -2 3 -2t3 -2l8 -4q0 -2 2 -4t2 -4q4 -17 11 -32t16 -34q6 -16 12 -32.5t12 -30.5v-13l6 13l9 14l45 115l4 8l6 4q2 2 4 2t4 2zM1329 262h38v-219h-36l-100 147l-4 3v2 q-5 10 -7.5 12t-5.5 2v-166h-39v219h35q4 0 8.5 -1t4.5 -3q3 -2 5.5 -2t4.5 -2l22 -33q5 -9 10 -17.5t11 -17.5q14 -14 24.5 -29.5t24.5 -29.5q0 -2 1 -5t1 -7l2 -5v152zM672 262l94 -219h-25q-9 0 -16 4q-2 2 -4 7t-6 9l-13 27h-100l-10 -27q0 -6 -4 -6l-8 -10 q-2 0 -3.5 -1t-5.5 -1l-30 -2l96 219h35zM260 262h139v-39h-100v-49h82v-41h-82v-51h100v-39h-139v219zM74 262h159v-24l-8 -15l-106 -143h2l2 2h108v-39h-165v14q0 10 2 11q0 2 6 8v4l2 4l4 4t2 6l94 129h-102v39zM838 659q1 6 2.5 10.5t1.5 9.5q0 13 -4 23q0 5 -3.5 9 t-5.5 10q-2 3 -5 6.5t-7 7.5l-7 6q-2 3 -9 9l-8 4q-2 1 -5 2l-6 2h-41q-11 -4 -18 -8q-4 -5 -8 -8t-8 -7q-12 -9 -13 -14q-4 -6 -5 -10t-3 -9q-1 -5 -1.5 -10.5t-0.5 -12.5q0 -16 6.5 -29t16.5 -25q12 -15 26 -15q12 -6 29 -6h20q6 2 11 4t8 4q12 5 16 13q7 7 12 16 q2 4 5.5 9t3.5 9zM1966 659v43q-2 5 -3.5 9.5t-4.5 9.5q-5 6 -15 14q-1 4 -5.5 7t-8.5 8q-2 1 -4.5 2t-5.5 2l-8 4h-41q-5 -2 -10.5 -4t-10.5 -4q-3 -5 -6.5 -8t-7.5 -7q-3 -4 -6.5 -7t-5.5 -7q-2 -6 -5 -10t-3 -9q-5 -11 -5 -23q0 -5 2.5 -13.5t6.5 -14.5q5 -16 16 -26 q9 -15 25 -15q12 -6 30 -6h21q3 2 8.5 4t9.5 4q4 3 8.5 6t5.5 7q10 5 15 16zM1839 203q-7 -7 -14 -25q-2 -4 -4 -10t-2 -14q0 -10 6 -27.5t14 -24.5q10 -10 23 -16q13 -4 28 -4q5 0 10 1t11 1q3 2 8.5 5t9.5 7q2 0 8 2h13q2 0 8 -2q2 -1 8 -6l6 -8l-6 -8t-8 -8q-6 -3 -11 -6 t-12 -7q-5 -3 -16.5 -6.5t-17.5 -3.5h-11q-12 0 -23.5 2t-21.5 4q-21 10 -35 27q-16 15 -22 35q-4 10 -7 20t-3 23q0 9 1 14.5t3 13.5q2 17 10 25l9 13.5t9 10.5l25 19l27 10q5 0 12.5 1t15.5 1h13q4 0 16 -3t16 -5l23 -14q4 -4 7.5 -8.5t6.5 -8.5l-14 -16h-15q-7 0 -14 4 q-3 2 -8.5 5t-9.5 5q-9 2 -11 2h-10q-16 0 -28 -6q-16 -2 -23 -14zM1700 133q5 -9 6 -20q0 -15 -8 -29l-8 -13q-3 -5 -9 -8q-6 -6 -11 -10t-13 -6q-5 -2 -14 -3t-15 -1q-12 0 -33 4q-10 4 -22 19q-4 1 -6 5l-4 9q-6 2 -7 10l7 4l8 2l2 2h10q13 -3 14 -4q5 -4 9 -6t6 -4 q2 0 6 -1t10 -1h5q9 2 13 3.5t7 4.5q2 2 4.5 4t3.5 4q2 4 4 7.5t2 7.5q0 6 -6 10q-4 6 -8 6q-2 4 -6.5 5t-7.5 3q-5 0 -13 6q-5 0 -9.5 1t-10.5 6q-10 3 -13.5 6.5l-7.5 7.5q-12 4 -12 14q-6 12 -6 25q0 19 6 26q1 4 6 11l8 10q4 2 9.5 4t13.5 6q6 0 11 1t13 1q4 0 8.5 -1 t10.5 -1l16 -6q3 -4 6.5 -7t7.5 -7q3 -2 7 -5.5t4 -7.5l-14 -8l-21 -4l-6 2q-3 1 -6 4q-2 0 -3.5 1t-4.5 1h-17q-2 0 -3 -1t-5 -3l-7 -6q-1 -3 -1 -10q3 -6 4.5 -9.5t3.5 -7.5h6q9 -2 14 -5t11 -5l8 -2q5 -4 9.5 -5.5t10.5 -4.5q6 -2 16.5 -13.5t10.5 -17.5zM1579 336 q-12 9 -16 20q-6 15 -7 31v16l11 19q2 2 4.5 6t7.5 8q6 9 12 10q3 5 9 6t10 3q4 0 8 2t10 2q4 0 10.5 -2t10.5 -2q4 -2 8 -3t8 -6l12 -10l13 -14q2 -4 4 -8.5t4 -10.5q0 -4 1 -9t1 -7q0 -6 -1 -14t-5 -17q-4 -13 -17 -20q-4 -4 -9 -8t-13 -9q-11 -2 -27 -2h-15q-4 0 -11 2 q-16 4 -23 17zM2165 127q5 13 6 27q0 16 -6 24q-3 14 -14 24.5t-25 14.5q-4 4 -11.5 5t-17.5 1q-11 0 -26 -6q-7 -1 -12 -4.5t-11 -9.5q-9 -6 -16 -25q0 -4 -1 -10t-1 -14q0 -9 1 -15t1 -12q9 -17 16 -25q6 -4 11 -8t12 -8q7 -2 14.5 -3t11.5 -1q21 0 29 4q29 11 39 41z M2284 336q-6 -4 -12.5 -8t-12.5 -9q-9 -2 -13 -2h-29q-4 0 -13 2q-12 4 -23 17q-7 7 -14 20q-2 9 -4 17t-2 14q0 2 1 7t1 9q2 4 3 9.5t5 9.5q2 3 5 6.5t5 7.5q7 5 17 10q3 5 8.5 6t7.5 3q5 0 8.5 2t11.5 2q2 0 7.5 -2t11.5 -2q4 -2 8 -3t6 -6q4 -2 9 -5t8 -5q1 -2 2 -3.5 t2 -3.5l4 -7q6 -11 8 -19q2 -4 3 -9t1 -7q0 -6 -1 -14t-5 -17q0 -6 -6 -11zM1108 154q0 15 -4 24q-4 18 -19 25q-2 6 -8 9t-12 5q-11 6 -29 6q-14 0 -26 -6q-11 -1 -23 -14q-9 -5 -14 -25q-5 -5 -6 -11v-28q0 -4 6 -12q5 -15 13.5 -24t23.5 -17q10 -4 26 -4q19 0 29 4 q15 7 20 16q14 5 18.5 22t4.5 30zM774 262h139v-39h-100v-56h82v-38h-82v-86h-39v219zM571 223h-59v-180h-43v180h-63v39h165v-39zM1389 262h165v-39h-65v-180h-39v180h-61v39zM1366 1315q17 -9 36 -21t36 -23h-324q36 30 74 44q39 18 88 18q47 0 90 -18zM1188 864 q-19 7 -37 19t-35 26h322q-17 -14 -36 -26t-36 -19q-23 -6 -45.5 -11t-44.5 -5q-25 0 -46 5t-42 11zM559 604l-47 68q4 0 12 4q7 3 8 10q9 6 9 12v25q-6 15 -13 20q-5 9 -14 9q-2 4 -7 5t-9 1h-56v-154h23v64h24l39 -56q1 -4 7 -6zM1169 604l-67 154h-21l-67 -154h12 q7 0 10 2q0 2 6 6l11 27h77l11 -27q1 -4 6 -6q2 -2 8 -2h14zM1931 721q2 -2 6.5 -8t5.5 -11q4 -7 5 -23q0 -13 -5 -22q-1 -4 -6 -10l-6 -6q-5 -4 -9.5 -7t-8.5 -7q-9 -4 -23 -4q-15 0 -22 4q-5 4 -10 7t-9 7q-3 2 -6.5 7t-3.5 9q-4 6 -5 11.5t-1 10.5q0 12 6 23q0 5 3 11 t7 8q9 9 19.5 12.5t21.5 3.5q13 0 23 -4zM801 721q6 -2 9 -8t5 -11q4 -7 4 -23q0 -11 -4 -22q-2 -4 -5 -9t-9 -7q-5 -10 -17 -14t-22 -4q-11 0 -23 4q-4 4 -9 7t-9 7q-2 2 -6 7t-6 9q-4 12 -4 22q0 21 9 32.5t25 21.5q5 2 12 3t11 1q14 0 22 -4q13 -5 17 -12zM295 690 q5 13 6 19q0 10 -6 20q0 2 -4 6l-6 6q-2 3 -5.5 7t-9.5 4q-2 4 -8 5t-10 1h-53v-154h18v58h35q4 0 10 0.5t8 3.5q11 4 15 10q4 2 7 6t3 8zM2218 332h31l6 3q5 4 9.5 6t8.5 5l3 6q3 6 6.5 11.5t3.5 9.5v34q-2 6 -6.5 10.5t-6.5 8.5q-6 2 -10 5t-8 7h-43q-6 -4 -10 -7t-9 -5 q-7 -5 -12 -19q-2 -9 -2 -12v-22q0 -4 1 -9t5 -8l4 -4q3 -3 4 -6l6 -4q7 -5 11.5 -6.5t7.5 -3.5zM2126 758h-21v-119l-2.5 5t-3.5 5l-74 103l-4 6h-24v-154h22v121l90 -121h17v154zM1579 407q-3 -6 -4.5 -12t-1.5 -8v-8q3 -15 8 -23q0 -2 2 -4t4 -6l6 -4q2 -2 9 -2 q2 -4 6 -5t6 -3h28q5 2 8 3t7 5l10 6q2 4 5 6t3 4q2 3 3 8t3 9q0 2 1 6t1 8q0 2 -1 8t-5 12q0 6 -4 10.5t-6 8.5q-3 1 -8 6l-10 6h-43q-4 -4 -9.5 -7t-9.5 -5q-2 -3 -5 -8t-3 -11zM997 758h-18v-119l-78 113q-4 0 -6 6h-25v-154h21v125h2l2 -2v-4l86 -119h16v154zM2114 381 q-4 -1 -7.5 -2t-5.5 -2l45 -60h-12q-7 2 -8.5 3.5t-1.5 5.5l-39 51h-27v-60h-16v138h57q3 0 10 -2q2 -2 5.5 -4.5t4.5 -4.5q4 -2 5.5 -6t7.5 -8v-27q-4 -4 -5 -8t-3 -6zM1343 381q-3 -3 -12 -4l47 -60h-15q-10 3 -9 9l-39 51h-28v-60h-13v138h56q10 -2 14.5 -4.5t9.5 -6.5 q0 -2 3 -6t3 -8l2 -20q-3 -17 -6 -21l-6 -4q-2 -2 -7 -4zM412 758h-97v-154h97v21h-74v47h59v18h-59v45h74v23zM1722 758h-94v-154h94v21h-71v47h59v18h-59v45h71v23zM2460 453l18 2v-138h-12v113l-2 -2v-2q-4 -7 -7 -17t-8 -14q-4 -7 -6 -13.5t-8 -14.5q-2 -9 -3 -15 t-5 -10q-3 -9 -6.5 -13.5t-5.5 -11.5h-15q-10 13 -15 26t-11 28q-4 12 -11.5 26.5t-11.5 28.5v2h-4v-111h-14v138h14l8 -4v-5l49 -106l3 -2v4q0 1 8 6l40 98q2 5 3.5 5t1.5 2zM1479 758h-21v-103q0 -3 -2 -8q-1 -7 -10 -12q0 -2 -4 -4t-6 -6l-9 -2h-8q-7 0 -14 2 q-5 4 -8.5 6t-5.5 4l-11 12q0 3 -1 7.5t-1 11.5v92h-20v-92q0 -7 1.5 -17.5t6.5 -15.5q2 -6 10 -12q2 -3 4.5 -6t8.5 -5q2 -2 6 -3t8 -3q4 0 7 -1t9 -1q4 0 7.5 1t11.5 1q2 2 5 3t7 3q9 6 12 11q3 2 5.5 5t5.5 7q0 4 3 7t3 7v111zM663 631q2 5 3.5 8.5t1.5 9.5q0 11 -5.5 19 t-11.5 14q-2 0 -4 2t-6 4l-4 2h-4q-4 3 -6.5 3.5t-3.5 1.5q-7 2 -9 3.5t-6 3.5q-6 3 -9 3l-3 22q9 7 12 8l15 2q11 -3 12 -6l6 -2q10 0 14 4l4 2l-6 8q-2 1 -5 4t-7 5q-2 0 -4 2t-6 4h-29q-5 -2 -7.5 -4t-6.5 -4q-2 -5 -6 -8t-7 -7q0 -4 -2 -7t-2 -9q0 -7 4 -17l5 -8l6 -4 q2 -2 6 -5t7 -3l8 -5q2 -1 7 -1q1 -2 6 -2t7 -2l6 -2q5 -4 5.5 -5.5t2.5 -5.5l2 -16q-4 -5 -4 -7.5t-2 -4.5q-1 -3 -7 -5l-3 -1q-4 0 -8 -1t-5 -1q-5 0 -11.5 1.5t-6.5 6.5l-4 2q-4 4 -12 4h-5l-10 -4l10 -18h3q7 -7 16.5 -9t19.5 -2h9q5 0 12 2q4 2 9 4t7 5q4 2 7.5 6 t4.5 10zM1597 631q7 7 7 18t-4.5 19t-12.5 14q-6 5 -6 6h-4l-39 17l-6 6q0 1 -1 3.5t-1 4.5q0 4 4 8q5 4 6.5 6t5.5 2q2 2 10 2l3 -1q5 -2 8 -3l6 -2q6 -2 8 -2q7 0 8 4l6 2q0 2 -3 4t-5 4q0 1 -3 4l-5 5q-3 0 -5.5 2t-6.5 4h-6l-5 1q-6 0 -10 -0.5t-8 -0.5l-14 -8l-11 -15 q-1 -4 -3.5 -7t-2.5 -9q0 -4 2 -8t4 -9q2 -4 4.5 -7t4.5 -5q4 -2 7 -5t7 -3q9 -5 14 -6q4 -2 6.5 -2t6.5 -2q5 0 10.5 -3.5t5.5 -9.5l2 -15q-2 -7 -4 -9l-4 -4q-12 -9 -23 -8q-2 0 -6 1t-6 1q-3 1 -8 6l-3 2q-4 4 -9 4h-7l-10 -4l8 -10v-2q7 -5 9 -6q6 -7 14 -9t18 -2h12 q3 0 11 2q2 2 6 4t8 5l6 8q3 3 4 8zM1741 317h-17v138h19l82 -113v113h14v-138h-12l-82 113v4h-4v-117zM78 350q-4 4 -5.5 8t-2.5 9q-2 6 -3 10t-1 10t4 16q1 4 2.5 9.5t5.5 9.5l9 14q2 2 6.5 5t6.5 5q5 5 10 6t9 3q3 0 8.5 2t11.5 2q16 0 27 -8q14 -4 22 -15l-5 -6h-13 q-3 2 -6.5 5t-7.5 3h-37l-21 -12q-4 -3 -7.5 -7.5t-4.5 -11.5q-2 -6 -3 -12t-1 -8q0 -10 4 -14q0 -4 0.5 -9t0.5 -8l5 -4q5 -1 6 -6l8 -5q2 -1 7 -1q2 -4 5 -5t7 -3h33q2 2 7 3t9 5v29h-14v2l-6 4h-3l-1 8h38v-51q-2 -5 -4 -6.5t-6 -6.5h-12q-9 -2 -12 -2h-35q-5 0 -19 9 q-7 0 -13 10zM240 438v-43h55v-16h-55v-47h67v-15h-84v138h84v-17h-67zM1171 438v-43h60v-16h-60v-47h68v-15h-84v138h84v-17h-68zM2374 758h-19q-5 0 -9.5 -4t-4.5 -9l-37 -47h-4l-39 47q-3 14 -16 13h-17l58 -76v-3l4 -3v-72h21v70l5 5v3zM2253 625h-68v133h-22v-154h90 v21zM641 455v-84q0 -6 2 -9.5t6 -5.5q0 -6 3 -9.5t5 -4.5q0 -2 4.5 -4t6.5 -4q6 -2 8 -2h16q9 4 13 6l8 4q4 1 8 14q4 3 4 15v84h14v-84q0 -10 -3.5 -22t-12.5 -17q-5 -13 -16 -13q-6 -1 -12 -1.5t-11 -0.5t-11 0.5t-14 1.5q-3 0 -16 13l-10 16q-1 6 -3.5 11.5t-2.5 11.5v84 h14zM1270 625h-66v133h-20v-154h86v21zM1452 336q1 2 2 3.5t2 3.5q2 2 3 6.5t1 6.5q0 18 -16 23q-3 0 -13 4t-12 6q-10 0 -14 8q-2 0 -4 3l-4 6v23q0 1 2 7q0 9 8 10l6 5l4 2l4 2q4 0 6.5 2t8.5 2l10 -4q3 0 4.5 -1t5.5 -3q6 0 6 -7q5 0 7 -3l1 -3l-2 -2q-6 -2 -10 -2h-6 l-25 4q-9 0 -8 -2q-5 -7 -6 -8q-4 0 -4 -8q0 -5 4 -6q0 -4 4 -7l6 -4q4 -4 7.5 -4t7.5 -2l6 -2q3 0 8 -6h4l6 -2q5 -4 8 -7l5 -5q1 -5 1.5 -9.5t0.5 -9.5v-10q-5 -9 -7.5 -13t-7.5 -7q-2 -2 -6 -4.5t-6 -2.5q-4 -2 -10 -2h-10q-10 0 -17.5 1t-13.5 8q-2 0 -3 3t-5 5v4l-2 2 l4 2h6q1 0 3.5 -1t4.5 -1q4 -4 7 -5t5 -3h21q8 0 12 4zM1069 317l-59 138h5q11 0 15 -9l43 -104v-2h2l2 2q5 14 13 27.5t12 25.5q4 15 10 27l12 24q0 5 1.5 5t1.5 2l18 2q-7 -17 -15 -34.5t-16 -33.5q-4 -9 -7.5 -18.5t-6.5 -18.5l-15 -33h-16zM532 438v-49h60v-12h-60v-60 h-16v138h86v-17h-70zM1958 438v-49h55v-12h-55v-60h-16v138h83v-17h-67zM879 455v-123h63v-15h-80v138h17zM371 317v121h-47v17h106v-17h-47v-121h-12zM784 455v-123h64v-15h-80v138h16zM270 729q2 -1 3 -4.5t3 -5.5q3 -4 3 -10v-4q0 -2 -3 -7q-2 -2 -3 -5t-3 -3 q-1 -2 -3 -4t-5 -4h-45v53h35q4 0 10 -2zM1325 389q5 0 6 4q4 4 10 4l2 4q5 11 5 17q0 2 -1 3t-1 5q-3 2 -4 3t-1 5q-5 0 -10 4h-44v-49h38zM2101 393q4 4 8 4q5 7 5 9q2 4 2 12q0 3 -2 8q0 1 -5 8q-3 0 -8 4h-43v-49h35q4 1 8 4zM518 702l-4 -8q-2 0 -3 -2t-3 -2 q-2 -2 -10 -2h-33v47h33q3 0 10 -2l6 -4l2 -4l2 -4q3 -1 4 -10q-1 -6 -4 -9zM1524 455v-138h-17v138h17zM684 129l-29 74h-2l-30 -74h61zM1092 727v-4l28 -64h-59l29 64v6zM1755 82q6 0 6 -6l2 -10q0 -7 -2 -9q0 -4 -6 -10l-24 -4q-4 4 -9 4q0 2 -6 10q-2 2 -2 9v4l8 12 q7 4 9 4l15 4z" />
<glyph unicode=":" horiz-adv-x="577" d="M151 35q0 -21 13.5 -28t21.5 -7h204q9 0 22.5 7.5t13.5 28.5v201q0 9 -6.5 23t-30.5 14h-201q-15 0 -26 -9.5t-11 -28.5v-201zM151 1070q0 -21 13.5 -28.5t21.5 -7.5h204q9 0 22.5 7.5t13.5 28.5v200q0 9 -6.5 23.5t-30.5 14.5h-201q-15 0 -26 -9.5t-11 -28.5v-200z" />
<glyph unicode=";" horiz-adv-x="577" d="M154.023 45.0732q0 -46.9971 41.998 -46.9971h39.9971q11 0 13.999 -6.99902q3 -7 3 -13.999q0 -9 -1.5 -22.999t-8.49902 -32.498q-7 -18.499 -20.999 -40.9971q-13.999 -22.499 -39.9971 -48.4971q-4 -4 -8 -9.5q-4 -5.49902 -6.49902 -11.999q-2.5 -6.5 0 -14.499 q2.49902 -8 11.499 -15.999l51.9971 -48.9971q10.999 -9.99902 24.998 -9.99902t27.998 10.999q16.999 12.999 41.498 36.998q24.498 23.998 46.9971 63.9961q22.498 39.9971 38.4971 97.4941q15.999 57.4961 15.999 137.491v153.99q0 48.9971 -45.9971 48.9971h-182.988 q-17.999 0 -30.998 -11.499q-13 -11.499 -13 -39.498v-174.989zM151 1068q0 -21 13.5 -28t21.5 -7h204q9 0 22.5 7.5t13.5 28.5v201q0 9 -6.5 23t-30.5 14h-201q-15 0 -26 -9.5t-11 -28.5v-201z" />
<glyph unicode="&#x3c;" horiz-adv-x="903" d="M78 614q0 -9 2.5 -13t11.5 -12l517 -521q11 -13 29 -13q13 0 21 9l112 110q12 12 13 28.5t-12 28.5l-382 382l377 375q13 12 12 29t-13 28l-112 109q-10 10 -21 10q-9 0 -16.5 -4t-12.5 -9l-512 -512q-9 -9 -11.5 -12.5t-2.5 -12.5z" />
<glyph unicode="=" horiz-adv-x="1091" d="M876 325q20 0 30 14t10 29v159q0 18 -11.5 28.5t-28.5 10.5h-675q-12 0 -26.5 -7.5t-14.5 -36.5v-157q0 -39 41 -40h675zM876 706q20 0 30 13.5t10 29.5v158q0 19 -11.5 29.5t-28.5 10.5h-675q-12 0 -26.5 -8t-14.5 -37v-156q0 -39 41 -40h675z" />
<glyph unicode="&#x3e;" horiz-adv-x="903" d="M820.005 614q0 -9 -2.5 -13t-11.499 -12l-516.969 -521q-10.999 -13 -28.998 -13q-12.999 0 -20.999 9l-111.993 110q-11.999 12 -12.999 28.5t11.999 28.5l381.977 382l-376.977 375q-12.999 12 -11.999 29t12.999 28l111.993 109q9.99902 10 20.999 10 q8.99902 0 16.499 -4q7.49902 -4 12.499 -9l511.969 -512q8.99902 -9 11.499 -12.5t2.5 -12.5z" />
<glyph unicode="?" horiz-adv-x="1163" d="M702 625q0 34 14.5 60t36 47t48.5 38t51 33q50 34 93.5 68t75.5 78t50.5 105.5t18.5 148.5q0 97 -42 181.5t-112 147t-160 98t-186 35.5q-109 0 -204 -35t-165 -101.5t-110 -159.5t-40 -211q0 -17 10.5 -27t27.5 -10h179q25 0 35 9.5t10 40.5q0 41 17 84t49.5 78.5 t78.5 58t103 22.5q52 0 97.5 -18t79 -48t53 -69.5t19.5 -80.5q0 -48 -12 -82.5t-33.5 -61.5t-52 -49.5t-69.5 -47.5q-43 -29 -83.5 -60t-72.5 -65.5t-52 -73t-20 -81.5v-166q0 -22 7 -37.5t32 -15.5l182 2q26 0 36 12.5t10 40.5v112zM425 43q0 -23 14.5 -31t23.5 -8h209 q10 0 25.5 7.5t15.5 31.5v186q0 10 -8 25t-33 15h-209q-15 0 -26.5 -10t-11.5 -32v-184z" />
<glyph unicode="@" d="M2478 1092v-586h-2404v586h911q0 30 5 59t20 53q12 29 26.5 52.5t36.5 41.5q38 42 92 62q27 12 54.5 17t56.5 5q33 0 61.5 -6t53.5 -16q59 -29 94.5 -64.5t62.5 -95.5q19 -52 19 -108h911zM1010 1092q0 -61 18.5 -103t56.5 -88q38 -37 87 -58.5t104 -21.5q53 0 102 19 t85 59q21 19 35.5 40.5t25.5 43.5q21 54 22 109q0 46 -14.5 87.5t-44.5 77.5q-14 19 -29.5 32.5t-34.5 25.5q-18 7 -37.5 17.5t-39.5 17.5l-32.5 6.5t-37.5 3.5q-59 0 -107 -25q-49 -17 -84 -57q-36 -36 -55.5 -85.5t-19.5 -100.5zM1141 935l315 318q62 -78 62 -161 q0 -23 -3.5 -44.5t-11.5 -41.5q-14 -37 -41 -71h-321zM1094 928q-28 36 -43 76q-9 18 -12 40.5t-3 47.5q0 19 3 40t12 42q4 19 14 36t25 33h319zM2195 207q3 -4 6 -10.5t5 -14.5q4 -7 4 -15v-30q0 -7 -4 -12q-2 -7 -5 -15t-6 -14q-4 -7 -16 -20l-12 -10t-13 -9 q-5 -5 -12.5 -7.5l-13.5 -4.5q-9 -2 -14 -2h-17q-20 0 -43 6q-9 6 -16.5 12.5t-16.5 14.5q-9 6 -14.5 14t-7.5 21q-6 10 -8 20t-2 23q0 9 1 14.5t1 13.5q3 7 6.5 14t7.5 11q2 9 6 13.5t10 10.5q3 4 10 8.5t13 10.5q4 2 11 4t13 6q11 0 17 1t12 1q10 0 17.5 -1t13.5 -1 q6 -4 13 -6t13 -4q14 -11 25 -19q2 -6 8 -10.5t8 -13.5zM1135 207q2 -4 4 -10.5t6 -14.5q2 -11 2 -15v-30q0 -5 -2 -12q-3 -7 -5.5 -15t-4.5 -14q-5 -4 -10 -10t-9 -10q-15 -15 -23 -19.5t-26 -11.5q-4 -1 -7.5 -1.5t-7.5 -0.5h-16q-10 0 -20 2t-23 4q-12 6 -19 12.5 t-16 14.5q-16 15 -23 35.5t-7 42.5v13q0 4 2 15q5 18 12 25q4 9 8 13.5t8 10.5q7 4 12 8.5t11 10.5l29 10q4 0 11 1t15 1q9 0 16 -1t15 -1q6 -4 13 -6l14 -4l22 -19q4 -6 9 -10.5t10 -13.5zM2433 260l1 1l44 1v-219h-37v160l-6 -10v-6q-9 -19 -15.5 -38.5t-15.5 -33.5 q-6 -19 -12 -35.5t-14 -36.5h-37l-55 139q-5 3 -5 11l-4 6v-156h-41v219h39q5 0 7 -1t4 -1q2 -2 3 -2t3 -2l8 -4q0 -2 2 -4t2 -4q4 -17 11 -32t16 -34q6 -16 12 -32.5t12 -30.5v-13l6 13l9 14l45 115l4 8l6 4q2 2 4 2t4 2zM1329 262h38v-219h-36l-100 147l-4 3v2 q-5 10 -7.5 12t-5.5 2v-166h-39v219h35q4 0 8.5 -1t4.5 -3q3 -2 5.5 -2t4.5 -2l22 -33q5 -9 10 -17.5t11 -17.5q14 -14 24.5 -29.5t24.5 -29.5q0 -2 1 -5t1 -7l2 -5v152zM672 262l94 -219h-25q-9 0 -16 4q-2 2 -4 7t-6 9l-13 27h-100l-10 -27q0 -6 -4 -6l-8 -10 q-2 0 -3.5 -1t-5.5 -1l-30 -2l96 219h35zM260 262h139v-39h-100v-49h82v-41h-82v-51h100v-39h-139v219zM74 262h159v-24l-8 -15l-106 -143h2l2 2h108v-39h-165v14q0 10 2 11q0 2 6 8v4l2 4l4 4t2 6l94 129h-102v39zM838 659q1 6 2.5 10.5t1.5 9.5q0 13 -4 23q0 5 -3.5 9 t-5.5 10q-2 3 -5 6.5t-7 7.5l-7 6q-2 3 -9 9l-8 4q-2 1 -5 2l-6 2h-41q-11 -4 -18 -8q-4 -5 -8 -8t-8 -7q-12 -9 -13 -14q-4 -6 -5 -10t-3 -9q-1 -5 -1.5 -10.5t-0.5 -12.5q0 -16 6.5 -29t16.5 -25q12 -15 26 -15q12 -6 29 -6h20q6 2 11 4t8 4q12 5 16 13q7 7 12 16 q2 4 5.5 9t3.5 9zM1966 659v43q-2 5 -3.5 9.5t-4.5 9.5q-5 6 -15 14q-1 4 -5.5 7t-8.5 8q-2 1 -4.5 2t-5.5 2l-8 4h-41q-5 -2 -10.5 -4t-10.5 -4q-3 -5 -6.5 -8t-7.5 -7q-3 -4 -6.5 -7t-5.5 -7q-2 -6 -5 -10t-3 -9q-5 -11 -5 -23q0 -5 2.5 -13.5t6.5 -14.5q5 -16 16 -26 q9 -15 25 -15q12 -6 30 -6h21q3 2 8.5 4t9.5 4q4 3 8.5 6t5.5 7q10 5 15 16zM1839 203q-7 -7 -14 -25q-2 -4 -4 -10t-2 -14q0 -10 6 -27.5t14 -24.5q10 -10 23 -16q13 -4 28 -4q5 0 10 1t11 1q3 2 8.5 5t9.5 7q2 0 8 2h13q2 0 8 -2q2 -1 8 -6l6 -8l-6 -8t-8 -8q-6 -3 -11 -6 t-12 -7q-5 -3 -16.5 -6.5t-17.5 -3.5h-11q-12 0 -23.5 2t-21.5 4q-21 10 -35 27q-16 15 -22 35q-4 10 -7 20t-3 23q0 9 1 14.5t3 13.5q2 17 10 25l9 13.5t9 10.5l25 19l27 10q5 0 12.5 1t15.5 1h13q4 0 16 -3t16 -5l23 -14q4 -4 7.5 -8.5t6.5 -8.5l-14 -16h-15q-7 0 -14 4 q-3 2 -8.5 5t-9.5 5q-9 2 -11 2h-10q-16 0 -28 -6q-16 -2 -23 -14zM1700 133q5 -9 6 -20q0 -15 -8 -29l-8 -13q-3 -5 -9 -8q-6 -6 -11 -10t-13 -6q-5 -2 -14 -3t-15 -1q-12 0 -33 4q-10 4 -22 19q-4 1 -6 5l-4 9q-6 2 -7 10l7 4l8 2l2 2h10q13 -3 14 -4q5 -4 9 -6t6 -4 q2 0 6 -1t10 -1h5q9 2 13 3.5t7 4.5q2 2 4.5 4t3.5 4q2 4 4 7.5t2 7.5q0 6 -6 10q-4 6 -8 6q-2 4 -6.5 5t-7.5 3q-5 0 -13 6q-5 0 -9.5 1t-10.5 6q-10 3 -13.5 6.5l-7.5 7.5q-12 4 -12 14q-6 12 -6 25q0 19 6 26q1 4 6 11l8 10q4 2 9.5 4t13.5 6q6 0 11 1t13 1q4 0 8.5 -1 t10.5 -1l16 -6q3 -4 6.5 -7t7.5 -7q3 -2 7 -5.5t4 -7.5l-14 -8l-21 -4l-6 2q-3 1 -6 4q-2 0 -3.5 1t-4.5 1h-17q-2 0 -3 -1t-5 -3l-7 -6q-1 -3 -1 -10q3 -6 4.5 -9.5t3.5 -7.5h6q9 -2 14 -5t11 -5l8 -2q5 -4 9.5 -5.5t10.5 -4.5q6 -2 16.5 -13.5t10.5 -17.5zM1579 336 q-12 9 -16 20q-6 15 -7 31v16l11 19q2 2 4.5 6t7.5 8q6 9 12 10q3 5 9 6t10 3q4 0 8 2t10 2q4 0 10.5 -2t10.5 -2q4 -2 8 -3t8 -6l12 -10l13 -14q2 -4 4 -8.5t4 -10.5q0 -4 1 -9t1 -7q0 -6 -1 -14t-5 -17q-4 -13 -17 -20q-4 -4 -9 -8t-13 -9q-11 -2 -27 -2h-15q-4 0 -11 2 q-16 4 -23 17zM2165 127q5 13 6 27q0 16 -6 24q-3 14 -14 24.5t-25 14.5q-4 4 -11.5 5t-17.5 1q-11 0 -26 -6q-7 -1 -12 -4.5t-11 -9.5q-9 -6 -16 -25q0 -4 -1 -10t-1 -14q0 -9 1 -15t1 -12q9 -17 16 -25q6 -4 11 -8t12 -8q7 -2 14.5 -3t11.5 -1q21 0 29 4q29 11 39 41z M2284 336q-6 -4 -12.5 -8t-12.5 -9q-9 -2 -13 -2h-29q-4 0 -13 2q-12 4 -23 17q-7 7 -14 20q-2 9 -4 17t-2 14q0 2 1 7t1 9q2 4 3 9.5t5 9.5q2 3 5 6.5t5 7.5q7 5 17 10q3 5 8.5 6t7.5 3q5 0 8.5 2t11.5 2q2 0 7.5 -2t11.5 -2q4 -2 8 -3t6 -6q4 -2 9 -5t8 -5q1 -2 2 -3.5 t2 -3.5l4 -7q6 -11 8 -19q2 -4 3 -9t1 -7q0 -6 -1 -14t-5 -17q0 -6 -6 -11zM1108 154q0 15 -4 24q-4 18 -19 25q-2 6 -8 9t-12 5q-11 6 -29 6q-14 0 -26 -6q-11 -1 -23 -14q-9 -5 -14 -25q-5 -5 -6 -11v-28q0 -4 6 -12q5 -15 13.5 -24t23.5 -17q10 -4 26 -4q19 0 29 4 q15 7 20 16q14 5 18.5 22t4.5 30zM774 262h139v-39h-100v-56h82v-38h-82v-86h-39v219zM571 223h-59v-180h-43v180h-63v39h165v-39zM1389 262h165v-39h-65v-180h-39v180h-61v39zM1366 1315q17 -9 36 -21t36 -23h-324q36 30 74 44q39 18 88 18q47 0 90 -18zM1188 864 q-19 7 -37 19t-35 26h322q-17 -14 -36 -26t-36 -19q-23 -6 -45.5 -11t-44.5 -5q-25 0 -46 5t-42 11zM559 604l-47 68q4 0 12 4q7 3 8 10q9 6 9 12v25q-6 15 -13 20q-5 9 -14 9q-2 4 -7 5t-9 1h-56v-154h23v64h24l39 -56q1 -4 7 -6zM1169 604l-67 154h-21l-67 -154h12 q7 0 10 2q0 2 6 6l11 27h77l11 -27q1 -4 6 -6q2 -2 8 -2h14zM1931 721q2 -2 6.5 -8t5.5 -11q4 -7 5 -23q0 -13 -5 -22q-1 -4 -6 -10l-6 -6q-5 -4 -9.5 -7t-8.5 -7q-9 -4 -23 -4q-15 0 -22 4q-5 4 -10 7t-9 7q-3 2 -6.5 7t-3.5 9q-4 6 -5 11.5t-1 10.5q0 12 6 23q0 5 3 11 t7 8q9 9 19.5 12.5t21.5 3.5q13 0 23 -4zM801 721q6 -2 9 -8t5 -11q4 -7 4 -23q0 -11 -4 -22q-2 -4 -5 -9t-9 -7q-5 -10 -17 -14t-22 -4q-11 0 -23 4q-4 4 -9 7t-9 7q-2 2 -6 7t-6 9q-4 12 -4 22q0 21 9 32.5t25 21.5q5 2 12 3t11 1q14 0 22 -4q13 -5 17 -12zM295 690 q5 13 6 19q0 10 -6 20q0 2 -4 6l-6 6q-2 3 -5.5 7t-9.5 4q-2 4 -8 5t-10 1h-53v-154h18v58h35q4 0 10 0.5t8 3.5q11 4 15 10q4 2 7 6t3 8zM2218 332h31l6 3q5 4 9.5 6t8.5 5l3 6q3 6 6.5 11.5t3.5 9.5v34q-2 6 -6.5 10.5t-6.5 8.5q-6 2 -10 5t-8 7h-43q-6 -4 -10 -7t-9 -5 q-7 -5 -12 -19q-2 -9 -2 -12v-22q0 -4 1 -9t5 -8l4 -4q3 -3 4 -6l6 -4q7 -5 11.5 -6.5t7.5 -3.5zM2126 758h-21v-119l-2.5 5t-3.5 5l-74 103l-4 6h-24v-154h22v121l90 -121h17v154zM1579 407q-3 -6 -4.5 -12t-1.5 -8v-8q3 -15 8 -23q0 -2 2 -4t4 -6l6 -4q2 -2 9 -2 q2 -4 6 -5t6 -3h28q5 2 8 3t7 5l10 6q2 4 5 6t3 4q2 3 3 8t3 9q0 2 1 6t1 8q0 2 -1 8t-5 12q0 6 -4 10.5t-6 8.5q-3 1 -8 6l-10 6h-43q-4 -4 -9.5 -7t-9.5 -5q-2 -3 -5 -8t-3 -11zM997 758h-18v-119l-78 113q-4 0 -6 6h-25v-154h21v125h2l2 -2v-4l86 -119h16v154zM2114 381 q-4 -1 -7.5 -2t-5.5 -2l45 -60h-12q-7 2 -8.5 3.5t-1.5 5.5l-39 51h-27v-60h-16v138h57q3 0 10 -2q2 -2 5.5 -4.5t4.5 -4.5q4 -2 5.5 -6t7.5 -8v-27q-4 -4 -5 -8t-3 -6zM1343 381q-3 -3 -12 -4l47 -60h-15q-10 3 -9 9l-39 51h-28v-60h-13v138h56q10 -2 14.5 -4.5t9.5 -6.5 q0 -2 3 -6t3 -8l2 -20q-3 -17 -6 -21l-6 -4q-2 -2 -7 -4zM412 758h-97v-154h97v21h-74v47h59v18h-59v45h74v23zM1722 758h-94v-154h94v21h-71v47h59v18h-59v45h71v23zM2460 453l18 2v-138h-12v113l-2 -2v-2q-4 -7 -7 -17t-8 -14q-4 -7 -6 -13.5t-8 -14.5q-2 -9 -3 -15 t-5 -10q-3 -9 -6.5 -13.5t-5.5 -11.5h-15q-10 13 -15 26t-11 28q-4 12 -11.5 26.5t-11.5 28.5v2h-4v-111h-14v138h14l8 -4v-5l49 -106l3 -2v4q0 1 8 6l40 98q2 5 3.5 5t1.5 2zM1479 758h-21v-103q0 -3 -2 -8q-1 -7 -10 -12q0 -2 -4 -4t-6 -6l-9 -2h-8q-7 0 -14 2 q-5 4 -8.5 6t-5.5 4l-11 12q0 3 -1 7.5t-1 11.5v92h-20v-92q0 -7 1.5 -17.5t6.5 -15.5q2 -6 10 -12q2 -3 4.5 -6t8.5 -5q2 -2 6 -3t8 -3q4 0 7 -1t9 -1q4 0 7.5 1t11.5 1q2 2 5 3t7 3q9 6 12 11q3 2 5.5 5t5.5 7q0 4 3 7t3 7v111zM663 631q2 5 3.5 8.5t1.5 9.5q0 11 -5.5 19 t-11.5 14q-2 0 -4 2t-6 4l-4 2h-4q-4 3 -6.5 3.5t-3.5 1.5q-7 2 -9 3.5t-6 3.5q-6 3 -9 3l-3 22q9 7 12 8l15 2q11 -3 12 -6l6 -2q10 0 14 4l4 2l-6 8q-2 1 -5 4t-7 5q-2 0 -4 2t-6 4h-29q-5 -2 -7.5 -4t-6.5 -4q-2 -5 -6 -8t-7 -7q0 -4 -2 -7t-2 -9q0 -7 4 -17l5 -8l6 -4 q2 -2 6 -5t7 -3l8 -5q2 -1 7 -1q1 -2 6 -2t7 -2l6 -2q5 -4 5.5 -5.5t2.5 -5.5l2 -16q-4 -5 -4 -7.5t-2 -4.5q-1 -3 -7 -5l-3 -1q-4 0 -8 -1t-5 -1q-5 0 -11.5 1.5t-6.5 6.5l-4 2q-4 4 -12 4h-5l-10 -4l10 -18h3q7 -7 16.5 -9t19.5 -2h9q5 0 12 2q4 2 9 4t7 5q4 2 7.5 6 t4.5 10zM1597 631q7 7 7 18t-4.5 19t-12.5 14q-6 5 -6 6h-4l-39 17l-6 6q0 1 -1 3.5t-1 4.5q0 4 4 8q5 4 6.5 6t5.5 2q2 2 10 2l3 -1q5 -2 8 -3l6 -2q6 -2 8 -2q7 0 8 4l6 2q0 2 -3 4t-5 4q0 1 -3 4l-5 5q-3 0 -5.5 2t-6.5 4h-6l-5 1q-6 0 -10 -0.5t-8 -0.5l-14 -8l-11 -15 q-1 -4 -3.5 -7t-2.5 -9q0 -4 2 -8t4 -9q2 -4 4.5 -7t4.5 -5q4 -2 7 -5t7 -3q9 -5 14 -6q4 -2 6.5 -2t6.5 -2q5 0 10.5 -3.5t5.5 -9.5l2 -15q-2 -7 -4 -9l-4 -4q-12 -9 -23 -8q-2 0 -6 1t-6 1q-3 1 -8 6l-3 2q-4 4 -9 4h-7l-10 -4l8 -10v-2q7 -5 9 -6q6 -7 14 -9t18 -2h12 q3 0 11 2q2 2 6 4t8 5l6 8q3 3 4 8zM1741 317h-17v138h19l82 -113v113h14v-138h-12l-82 113v4h-4v-117zM78 350q-4 4 -5.5 8t-2.5 9q-2 6 -3 10t-1 10t4 16q1 4 2.5 9.5t5.5 9.5l9 14q2 2 6.5 5t6.5 5q5 5 10 6t9 3q3 0 8.5 2t11.5 2q16 0 27 -8q14 -4 22 -15l-5 -6h-13 q-3 2 -6.5 5t-7.5 3h-37l-21 -12q-4 -3 -7.5 -7.5t-4.5 -11.5q-2 -6 -3 -12t-1 -8q0 -10 4 -14q0 -4 0.5 -9t0.5 -8l5 -4q5 -1 6 -6l8 -5q2 -1 7 -1q2 -4 5 -5t7 -3h33q2 2 7 3t9 5v29h-14v2l-6 4h-3l-1 8h38v-51q-2 -5 -4 -6.5t-6 -6.5h-12q-9 -2 -12 -2h-35q-5 0 -19 9 q-7 0 -13 10zM240 438v-43h55v-16h-55v-47h67v-15h-84v138h84v-17h-67zM1171 438v-43h60v-16h-60v-47h68v-15h-84v138h84v-17h-68zM2374 758h-19q-5 0 -9.5 -4t-4.5 -9l-37 -47h-4l-39 47q-3 14 -16 13h-17l58 -76v-3l4 -3v-72h21v70l5 5v3zM2253 625h-68v133h-22v-154h90 v21zM641 455v-84q0 -6 2 -9.5t6 -5.5q0 -6 3 -9.5t5 -4.5q0 -2 4.5 -4t6.5 -4q6 -2 8 -2h16q9 4 13 6l8 4q4 1 8 14q4 3 4 15v84h14v-84q0 -10 -3.5 -22t-12.5 -17q-5 -13 -16 -13q-6 -1 -12 -1.5t-11 -0.5t-11 0.5t-14 1.5q-3 0 -16 13l-10 16q-1 6 -3.5 11.5t-2.5 11.5v84 h14zM1270 625h-66v133h-20v-154h86v21zM1452 336q1 2 2 3.5t2 3.5q2 2 3 6.5t1 6.5q0 18 -16 23q-3 0 -13 4t-12 6q-10 0 -14 8q-2 0 -4 3l-4 6v23q0 1 2 7q0 9 8 10l6 5l4 2l4 2q4 0 6.5 2t8.5 2l10 -4q3 0 4.5 -1t5.5 -3q6 0 6 -7q5 0 7 -3l1 -3l-2 -2q-6 -2 -10 -2h-6 l-25 4q-9 0 -8 -2q-5 -7 -6 -8q-4 0 -4 -8q0 -5 4 -6q0 -4 4 -7l6 -4q4 -4 7.5 -4t7.5 -2l6 -2q3 0 8 -6h4l6 -2q5 -4 8 -7l5 -5q1 -5 1.5 -9.5t0.5 -9.5v-10q-5 -9 -7.5 -13t-7.5 -7q-2 -2 -6 -4.5t-6 -2.5q-4 -2 -10 -2h-10q-10 0 -17.5 1t-13.5 8q-2 0 -3 3t-5 5v4l-2 2 l4 2h6q1 0 3.5 -1t4.5 -1q4 -4 7 -5t5 -3h21q8 0 12 4zM1069 317l-59 138h5q11 0 15 -9l43 -104v-2h2l2 2q5 14 13 27.5t12 25.5q4 15 10 27l12 24q0 5 1.5 5t1.5 2l18 2q-7 -17 -15 -34.5t-16 -33.5q-4 -9 -7.5 -18.5t-6.5 -18.5l-15 -33h-16zM532 438v-49h60v-12h-60v-60 h-16v138h86v-17h-70zM1958 438v-49h55v-12h-55v-60h-16v138h83v-17h-67zM879 455v-123h63v-15h-80v138h17zM371 317v121h-47v17h106v-17h-47v-121h-12zM784 455v-123h64v-15h-80v138h16zM270 729q2 -1 3 -4.5t3 -5.5q3 -4 3 -10v-4q0 -2 -3 -7q-2 -2 -3 -5t-3 -3 q-1 -2 -3 -4t-5 -4h-45v53h35q4 0 10 -2zM1325 389q5 0 6 4q4 4 10 4l2 4q5 11 5 17q0 2 -1 3t-1 5q-3 2 -4 3t-1 5q-5 0 -10 4h-44v-49h38zM2101 393q4 4 8 4q5 7 5 9q2 4 2 12q0 3 -2 8q0 1 -5 8q-3 0 -8 4h-43v-49h35q4 1 8 4zM518 702l-4 -8q-2 0 -3 -2t-3 -2 q-2 -2 -10 -2h-33v47h33q3 0 10 -2l6 -4l2 -4l2 -4q3 -1 4 -10q-1 -6 -4 -9zM1524 455v-138h-17v138h17zM684 129l-29 74h-2l-30 -74h61zM1092 727v-4l28 -64h-59l29 64v6zM1755 82q6 0 6 -6l2 -10q0 -7 -2 -9q0 -4 -6 -10l-24 -4q-4 4 -9 4q0 2 -6 10q-2 2 -2 9v4l8 12 q7 4 9 4l15 4z" />
<glyph unicode="A" horiz-adv-x="1536" d="M1003 547h-434l218 580zM71 44q-9 -21 -0.5 -32.5t28.5 -11.5h224q18 0 31 8.5t20 29.5l99 245h627l99 -246q14 -37 50 -37h224q20 0 28.5 11t0.5 33l-577 1438q-16 39 -52 39h-171q-35 0 -51 -39z" />
<glyph unicode="B" horiz-adv-x="1415" d="M847 668q38 0 74 -16.5t63 -45.5t43.5 -68.5t16.5 -85.5q0 -36 -12 -72.5t-36.5 -65t-61 -46.5t-83.5 -18h-388v418h384zM787 1274q44 0 80 -13.5t62 -37.5t39.5 -58t13.5 -76q0 -86 -53.5 -136t-143.5 -50h-322v371h324zM164 41q0 -41 40 -41h728q87 0 163 35.5 t132.5 96.5t89 141t32.5 169q0 57 -12.5 111t-37 102t-59 88.5t-77.5 69.5q59 51 87.5 123.5t28.5 160.5q0 90 -32 167t-88 134t-132 90t-163 33h-660q-39 0 -40 -40v-1440z" />
<glyph unicode="C" horiz-adv-x="1449" d="M1164 354q-55 -41 -130 -68t-158 -27q-103 0 -192 40t-153.5 108.5t-101 160t-36.5 195.5q0 105 36.5 194.5t101 157t153 106t192.5 38.5q83 0 151 -24.5t141 -69.5q17 -11 33 -11q17 0 25 12l108 183q5 9 5 24t-17 28q-90 66 -198.5 103.5t-247.5 37.5 q-163 0 -306 -60.5t-250 -166t-168.5 -247.5t-61.5 -305t61.5 -305.5t168.5 -249.5t250 -168t306 -61q140 0 248 38t195 104q19 15 23 28t-11 31l-103 175q-11 15 -27 15t-37 -16z" />
<glyph unicode="D" horiz-adv-x="1580" d="M1174 759q0 -100 -37.5 -188t-104 -153.5t-157 -103.5t-196.5 -38h-224v968h224q106 0 196.5 -38t157 -103.5t104 -154t37.5 -189.5zM156 41q0 -41 40 -41h519q160 5 298.5 67t241 164.5t161.5 238.5t59 289q0 108 -30.5 206t-83.5 182.5t-125.5 153.5t-158 117.5 t-180 75t-191.5 26.5h-510q-41 0 -40 -41v-1438z" />
<glyph unicode="E" horiz-adv-x="1347" d="M166 41q0 -41 40 -41h1020q43 0 42 41v197q0 41 -42 40h-761v376h565q46 0 46 40v195q0 21 -12 31t-34 10h-565v311h741q42 0 42 40v198q0 41 -42 41h-1000q-39 0 -40 -41v-1438z" />
<glyph unicode="F" horiz-adv-x="1304" d="M167 41q0 -41 41 -41h219q41 0 40 41v526h551q39 0 39 41v189q0 41 -39 40h-551v404h722q39 0 40 40v198q0 41 -40 41h-981q-41 0 -41 -41v-1438z" />
<glyph unicode="G" horiz-adv-x="1523" d="M876 256q-103 -1 -194 39t-158 109.5t-106 162.5t-39 197q0 103 37.5 193t104 156.5t157.5 105t198 38.5q85 0 156 -28t132 -73q15 -10 26 -9q17 0 30 16l122 174q9 12 7.5 25.5t-19.5 27.5q-97 74 -207.5 113t-249.5 39q-163 0 -305.5 -60.5t-249 -166t-167.5 -247.5 t-61 -304q0 -163 61.5 -305.5t168.5 -249.5t250 -168t306 -61q69 0 134.5 11.5t126 32t114.5 47.5t99 59q12 9 17 20t5 25v464q0 25 -13 33.5t-27 8.5h-182q-41 0 -41 -42v-314q-50 -37 -112 -52.5t-121 -16.5z" />
<glyph unicode="H" horiz-adv-x="1611" d="M1147 42q0 -42 39 -42h216q44 0 43 42v1437q0 25 -12.5 33t-25.5 8h-221q-20 0 -29.5 -12.5t-9.5 -30.5v-533h-682v535q0 25 -13 33t-25 8h-221q-20 0 -30 -12.5t-10 -30.5v-1435q0 -42 40 -42h215q44 0 44 42v614h682v-614z" />
<glyph unicode="I" horiz-adv-x="628" d="M166 42q0 -42 41 -42h216q41 0 41 42v1435q0 43 -41 43h-216q-41 0 -41 -43v-1435z" />
<glyph unicode="J" horiz-adv-x="729" d="M263 41q0 -32 -13 -61.5t-36.5 -52t-55 -36t-66.5 -13.5q-47 0 -77.5 16t-55.5 38q-10 9 -20 17.5t-24 8.5q-15 0 -32 -16l-127 -118q-10 -10 -10.5 -21t3.5 -22t10.5 -21t11.5 -15q30 -37 70.5 -65t85 -46.5t91.5 -27.5t90 -9q84 0 159.5 29t136 80t100 118.5 t52.5 144.5q6 58 6 121v1383q0 27 -10 38t-37 11h-212q-11 0 -25.5 -8t-14.5 -33v-1440z" />
<glyph unicode="K" horiz-adv-x="1533" d="M1376 1473q13 15 10 31.5t-25 16.5h-264q-18 0 -31.5 -4t-31.5 -26l-569 -645v632q0 20 -15.5 31.5t-27.5 11.5h-216q-18 0 -29 -11.5t-11 -31.5v-1436q0 -42 40 -42h220q39 0 39 42v406l186 199l462 -610q13 -17 24.5 -27t29.5 -10h299q21 0 26.5 14.5t-9.5 32.5 l-633 828z" />
<glyph unicode="L" horiz-adv-x="1190" d="M167 41q0 -41 40 -41h904q43 0 43 41v202q0 39 -43 40h-645v1195q0 43 -39 43h-220q-17 0 -28.5 -11t-11.5 -32v-1437z" />
<glyph unicode="M" horiz-adv-x="1931" d="M839 68q9 -22 17.5 -29.5t25.5 -7.5h172q16 0 24.5 7.5t16.5 29.5l349 940l105 -969q2 -20 11 -29.5t30 -9.5h208q45 0 40 42l-155 1440q-3 41 -41 40h-272q-17 0 -24.5 -9.5t-15.5 -28.5l-360 -1013l-367 1014q-6 19 -13.5 28t-24.5 9h-266q-21 0 -31 -11t-12 -29 l-155 -1440q-2 -20 9 -31t31 -11h208q21 0 30 10t11 31l108 968z" />
<glyph unicode="N" horiz-adv-x="1648" d="M1161 37q14 -20 28.5 -28.5t31.5 -8.5h217q44 0 44 42v1439q0 18 -14.5 29t-29.5 11h-204q-21 0 -31 -11.5t-10 -28.5v-987l-687 989q-26 38 -61 38h-239q-20 0 -30 -13t-10 -27v-1439q0 -42 40 -42h205q44 0 43 42v1035z" />
<glyph unicode="O" horiz-adv-x="1771" d="M105 761q0 -162 61 -304.5t168 -248.5t249 -167t304 -61t304.5 61t248.5 167t166.5 248t60.5 305q0 162 -60.5 304t-166.5 248.5t-248 167.5t-305 61q-162 0 -304 -61t-249 -167.5t-168 -248.5t-61 -304zM404 761q0 103 37 193t102 157.5t153 105.5t191 38t191.5 -38 t153 -105.5t101 -157.5t36.5 -193t-36.5 -193.5t-101 -157.5t-152.5 -105t-192 -38q-103 0 -191 38t-153 105t-102 157.5t-37 193.5z" />
<glyph unicode="P" horiz-adv-x="1341" d="M731 1260q51 0 93 -18.5t72.5 -49t47 -72.5t16.5 -89q0 -48 -16.5 -89t-47 -71t-72.5 -47.5t-93 -17.5h-278v454h278zM156 42q0 -42 39 -42h218q41 0 40 42v511h344q102 0 188.5 39t148.5 105.5t96.5 153t34.5 179.5q0 95 -35 183.5t-98 156.5t-150 109t-191 41h-596 q-18 0 -28.5 -10t-10.5 -31v-1437z" />
<glyph unicode="Q" horiz-adv-x="1771" d="M404 761q0 103 37 193t102 157.5t153 105.5t191 38t191.5 -38t153 -105.5t101 -157.5t36.5 -193t-36.5 -193.5t-101 -157.5t-152.5 -105t-192 -38q-103 0 -191 38t-153 105t-102 157.5t-37 193.5zM105 761q0 -142 48 -270t132 -229.5t200 -171t250 -95.5v-278 q0 -43 40 -42h219q41 0 41 42v277q135 26 251 95t200.5 171t132.5 230t48 271q0 162 -60.5 304t-166.5 248.5t-248 167.5t-305 61q-162 0 -304 -61t-249 -167.5t-168 -248.5t-61 -304z" />
<glyph unicode="R" horiz-adv-x="1422" d="M784 1266q53 0 99 -19t79 -51.5t52 -76.5t19 -93t-19 -92.5t-52 -76t-79 -51.5t-99 -19h-319v479h319zM166 41q0 -41 40 -41h219q41 0 40 41v485h312l243 -490q11 -21 21 -28.5t27 -7.5h264q19 0 26.5 14.5t0.5 29.5l-280 553q58 34 105.5 80t82 101t53.5 117t19 126 q0 97 -36 187t-100 159.5t-152.5 111t-193.5 41.5h-651q-21 0 -30.5 -12.5t-9.5 -28.5v-1438z" />
<glyph unicode="S" horiz-adv-x="1351" d="M133 233q51 -57 115.5 -103.5t137 -79.5t150 -51t157.5 -18q111 0 214 33t182 94.5t126 147.5t47 192q0 108 -40.5 184t-110 131t-161 93t-195.5 69q-65 18 -120 34.5t-95 38.5t-61.5 50.5t-21.5 71.5q0 53 22 85.5t56.5 51.5t76.5 25.5t81 6.5q45 0 87 -14.5t79.5 -36 t69.5 -46t57 -44.5q13 -11 25 -18.5t25 -7.5q14 0 27 13l114 115q37 41 1 79q-45 46 -100 86t-116 70t-126.5 47t-132.5 17q-124 0 -226 -31t-175 -87t-113 -134t-40 -173q0 -87 33 -156.5t97 -125t159 -99.5t220 -82q41 -11 91 -25.5t93.5 -37.5t73 -57t29.5 -83 q0 -38 -17.5 -74t-50.5 -64.5t-81 -45t-109 -16.5q-59 0 -109.5 16t-94.5 41t-81.5 56.5t-69.5 62.5q-12 10 -22 16.5t-21 6.5q-15 0 -28 -12l-137 -135q-22 -21 -14.5 -40t23.5 -37z" />
<glyph unicode="T" horiz-adv-x="1317" d="M67 1287q0 -42 41 -41h391v-1205q0 -41 41 -41h219q41 0 41 41v1205h403q39 0 40 41v194q0 41 -40 40h-1095q-41 0 -41 -40v-194z" />
<glyph unicode="U" horiz-adv-x="1562" d="M452 1479q0 18 -8 30t-31 12h-224q-17 0 -27.5 -12t-10.5 -30v-871q0 -163 52 -282t139.5 -197t203.5 -115t245 -37t245.5 36.5t204 113.5t139 195.5t51.5 282.5v873q0 17 -11 30t-32 13h-214q-20 0 -31 -12t-11 -31v-874q0 -82 -27 -148.5t-73 -113.5t-108 -72.5 t-133 -25.5q-68 0 -130 23.5t-108 69.5t-73.5 112.5t-27.5 154.5v875z" />
<glyph unicode="V" horiz-adv-x="1489" d="M1457 1474q10 22 1 34.5t-29 12.5h-236q-36 0 -51 -40l-389 -1071l-392 1072q-14 39 -51 39h-233q-19 0 -27.5 -11t-0.5 -34l566 -1439q15 -38 53 -38h171q37 0 53 38z" />
<glyph unicode="W" horiz-adv-x="2193" d="M1309 38q15 -38 53 -38h162q17 0 30.5 9t22.5 29l584 1437q9 19 -0.5 32t-28.5 13h-240q-18 0 -30 -8.5t-21 -29.5l-402 -1077l-197 526l217 544q7 18 -1 31.5t-28 13.5h-243q-17 0 -29.5 -8.5t-20.5 -29.5l-386 -1079l-386 1079q-14 38 -50 38h-237q-19 0 -28 -12.5 t-1 -32.5l566 -1437q15 -38 52 -38h172q37 0 53 38l200 517z" />
<glyph unicode="X" horiz-adv-x="1431" d="M1353 1476q12 18 3 32t-28 14h-250q-18 0 -29.5 -9.5t-24.5 -27.5l-311 -463l-310 462q-14 20 -25 28.5t-28 8.5h-254q-19 0 -25.5 -14t6.5 -33l469 -701l-487 -727q-14 -21 -5 -33.5t28 -12.5h248q17 0 27.5 6.5t25.5 29.5l330 490l328 -490q12 -18 24 -27t30 -9h250 q18 0 27.5 12.5t-3.5 32.5l-490 728z" />
<glyph unicode="Y" horiz-adv-x="1362" d="M526 43q0 -43 40 -43h220q39 0 40 43v598l490 833q10 21 1.5 33.5t-27.5 12.5h-255q-31 0 -50 -37l-309 -597l-309 598q-11 20 -22 28.5t-29 8.5h-252q-19 0 -28 -12t2 -34l488 -835v-597z" />
<glyph unicode="Z" horiz-adv-x="1431" d="M113 1521q-39 0 -39 -37v-207q0 -37 39 -38h752l-786 -992q-9 -11 -11.5 -19.5t-2.5 -16.5v-176q0 -35 37 -35h1144q37 0 37 35v207q0 36 -37 36h-767l795 997q4 5 8 15t4 23v171q0 37 -37 37h-1136z" />
<glyph unicode="[" horiz-adv-x="706" d="M164 -249q0 -41 40 -40h399q14 0 23.5 8.5t9.5 22.5v198q0 15 -8.5 23.5t-22.5 8.5h-163v1488h161q14 0 23.5 8.5t9.5 22.5v199q0 15 -8.5 23t-22.5 8h-401q-39 0 -40 -41v-1929z" />
<glyph unicode="\" horiz-adv-x="1032" d="M687 37q9 -20 22.5 -28.5t30.5 -8.5h201q18 0 26 11t-1 33l-624 1439q-17 38 -53 38h-197q-19 0 -27 -11.5t1 -33.5z" />
<glyph unicode="]" horiz-adv-x="706" d="M533.01 -249q0 -41 -39.9971 -40h-398.976q-13.999 0 -23.499 8.5q-9.49902 8.5 -9.49902 22.5v198q0 15 8.49902 23.5q8.5 8.5 22.499 8.5h162.99v1488h-160.99q-13.999 0 -23.499 8.5q-9.49902 8.5 -9.49902 22.5v199q0 15 8.49902 23q8.5 8 22.499 8h400.976 q38.9971 0 39.9971 -41v-1929z" />
<glyph unicode="^" horiz-adv-x="999" d="M126 1245q-18 -17 -20.5 -37.5t18.5 -39.5l91 -90q16 -16 37 -16t38 17l208 208l208 -208q17 -17 40 -17q21 0 38 17l93 92q19 18 18 39t-20 39l-335 335q-19 19 -39 19q-19 0 -38 -19z" />
<glyph unicode="_" horiz-adv-x="1355" d="M167 -204q0 -16 10.5 -23.5t20.5 -7.5h974q14 0 23.5 8.5t9.5 22.5v155q0 15 -8.5 23t-22.5 8h-973q-15 0 -24.5 -8.5t-9.5 -23.5v-154z" />
<glyph unicode="`" horiz-adv-x="547" d="M217 1355q12 -27 23 -33t30 -6h148q14 0 27 11.5t3 37.5l-95 233q-9 22 -20.5 30t-31.5 8h-167q-18 0 -27.5 -16.5t0.5 -36.5z" />
<glyph unicode="a" horiz-adv-x="1571" d="M1157 649q0 -83 -29 -157t-81.5 -129.5t-124 -88t-154.5 -32.5q-81 0 -151 31.5t-121.5 86.5t-81 129t-29.5 160q0 89 30.5 163t82.5 128.5t122 85t148 30.5q81 0 152 -32.5t124 -88t83 -129.5t30 -157zM1447 1265q0 43 -40 43h-171q-21 0 -29.5 -11t-11.5 -32l-18 -128 q-83 95 -185.5 139.5t-236.5 44.5q-137 0 -257 -53.5t-210 -145t-142 -214t-52 -261.5q0 -147 54.5 -270t146 -212t211 -138.5t249.5 -49.5q115 0 219 45.5t188 126.5v-85q0 -28 17.5 -46t45.5 -18h182q41 0 40 43v1222z" />
<glyph unicode="b" horiz-adv-x="1571" d="M143 1645q0 43 42 42h214q41 0 40 -42v-492q80 77 183 121.5t222 44.5q142 0 258.5 -52.5t200.5 -144t129.5 -214t45.5 -261.5q0 -147 -49 -270t-134.5 -212t-202.5 -138.5t-251 -49.5q-112 0 -215 46.5t-187 129.5l-22 -96q-5 -21 -17 -39t-39 -18h-176q-42 0 -42 43 v1602zM419 649q0 -85 32.5 -159.5t87.5 -129.5t128.5 -86.5t154.5 -31.5q84 0 154 32t120 87t77 129t27 159q0 83 -27.5 157t-77.5 130t-119 88.5t-151 32.5q-83 0 -157.5 -31.5t-129.5 -87t-87 -130t-32 -159.5z" />
<glyph unicode="c" horiz-adv-x="1275" d="M1037 352q-25 -19 -55.5 -38.5t-65.5 -35.5t-76 -25.5t-87 -9.5q-81 0 -151.5 30.5t-123 85t-83 129t-30.5 162.5q0 90 32 164.5t86 128.5t123.5 84.5t145.5 30.5q71 0 142.5 -23t145.5 -80q11 -7 23 -8q16 0 25 12l105 161q6 11 5 22.5t-15 23.5q-91 74 -195.5 115 t-238.5 40q-135 0 -256.5 -52.5t-212.5 -142.5t-144.5 -212.5t-53.5 -262.5q0 -145 53.5 -268.5t145 -214t214.5 -142t261 -51.5q61 0 122 13t117 35.5t104.5 52t85.5 61.5q30 26 8 59l-105 154q-7 12 -23 12t-28 -10z" />
<glyph unicode="d" horiz-adv-x="1571" d="M1157 649q0 -85 -32.5 -159.5t-87.5 -129.5t-128 -86.5t-155 -31.5q-84 0 -152.5 32t-117 87t-74.5 129t-26 159q0 83 26.5 157t75 130t116.5 88.5t150 32.5q83 0 157 -31.5t129 -87t87 -130t32 -159.5zM1434 1645q0 43 -42 42h-214q-41 0 -41 -42v-492 q-80 77 -183 121.5t-221 44.5q-142 0 -259 -52.5t-200.5 -144t-129.5 -214t-46 -261.5q0 -147 49 -270t135 -212t203 -138.5t251 -49.5q112 0 215 46.5t186 129.5l17 -74q2 -11 7 -24t13 -25.5t18 -21t24 -8.5h176q42 0 42 43v1602z" />
<glyph unicode="e" horiz-adv-x="1498" d="M756 1070q64 0 120.5 -21t103 -58t82.5 -89t58 -114h-731q20 59 56 110t83.5 89.5t105 60.5t122.5 22zM1079 358q-27 -19 -54 -41t-62.5 -40.5t-83.5 -30t-115 -11.5q-70 0 -133.5 21.5t-114 61.5t-86.5 97.5t-52 126.5h917q32 0 52 3.5t32 15t16 31.5t4 54 q0 117 -28 213t-75.5 170.5t-111.5 129t-136 90t-147 53t-147 17.5q-144 0 -265.5 -53t-209.5 -145t-137.5 -214t-49.5 -261t54.5 -260t146.5 -212.5t213 -144t256 -52.5q128 0 241.5 43.5t229.5 144.5q30 27 3 62l-104 128q-5 7 -11.5 10t-13.5 3q-14 0 -28 -10z" />
<glyph unicode="f" horiz-adv-x="776" d="M226 41q0 -41 41 -41h214q39 0 40 41v882h157q36 0 37 37v183q0 36 -37 37h-157v83q0 54 5 95t20.5 68.5t43 41.5t70.5 14q29 0 42.5 11t13.5 37v180q0 26 -10.5 38.5t-46.5 12.5q-114 0 -195.5 -38.5t-134.5 -102.5t-78 -147t-25 -173v-120h-160q-15 0 -25.5 -9 t-10.5 -28v-183q0 -18 10.5 -27.5t25.5 -9.5h160v-882z" />
<glyph unicode="g" horiz-adv-x="1595" d="M1156 653q0 -83 -28 -157t-79.5 -129.5t-121.5 -87.5t-154 -32q-83 0 -155 29.5t-124.5 83t-83 127.5t-30.5 164q0 83 27.5 156.5t79 129.5t123 88.5t158.5 32.5q84 0 155 -32.5t123 -87.5t81 -128.5t29 -156.5zM1433 1263q0 45 -39 45h-165q-25 0 -35.5 -12.5 t-14.5 -40.5l-18 -120q-81 89 -183.5 138.5t-236.5 49.5q-129 0 -245.5 -53.5t-205.5 -144t-141.5 -211.5t-52.5 -258q0 -145 53 -265.5t142 -207t205.5 -134.5t244.5 -48q131 0 227.5 47.5t178.5 134.5v-4q0 -79 -26.5 -144.5t-74 -112.5t-112.5 -73t-143 -26 q-103 0 -188 24.5t-149 69.5q-19 13 -36 13q-22 0 -36 -22l-85 -123q-9 -13 -12.5 -27.5t17.5 -32.5q45 -38 100.5 -68.5t116 -51.5t124.5 -31.5t127 -10.5q160 0 283.5 50t207.5 141t128 219.5t44 284.5v1005z" />
<glyph unicode="h" horiz-adv-x="1393" d="M988 45q0 -45 41 -45h213q21 0 31.5 12.5t10.5 32.5v670q0 64 -10 133t-33 136t-60.5 126.5t-93.5 104.5t-131 71.5t-173 26.5q-103 0 -189 -42.5t-153 -115.5v488q0 19 -11.5 31.5t-31.5 12.5h-212q-43 0 -43 -44v-1598q0 -45 43 -45h212q21 0 32 12.5t11 32.5v673 q0 74 21 133t58.5 100t88 63.5t108.5 22.5q69 0 120.5 -27t85 -72.5t49.5 -107.5t16 -133v-652z" />
<glyph unicode="i" horiz-adv-x="628" d="M145 42q0 -42 41 -42h217q39 0 40 42v1224q0 19 -11 30.5t-29 11.5h-217q-16 0 -28.5 -10.5t-12.5 -31.5v-1224zM137 1532q0 -33 18 -45.5t46 -12.5h178q28 0 43 12.5t15 45.5v179q0 30 -13.5 47.5t-44.5 17.5h-178q-35 0 -49.5 -18.5t-14.5 -46.5v-179z" />
<glyph unicode="j" horiz-adv-x="585" d="M142 34q0 -48 -9.5 -88t-31.5 -68.5t-58 -44.5t-89 -16q-19 0 -29.5 -5.5t-15.5 -13t-6 -15.5t-1 -14v-152q0 -14 16 -26.5t47 -12.5q113 0 201 34t148.5 93t92 137.5t31.5 168.5v1251q0 44 -40 44h-213q-43 0 -43 -44v-1228zM144 1532q0 -33 18 -45.5t46 -12.5h178 q28 0 43.5 12.5t15.5 45.5v179q0 30 -14 47.5t-45 17.5h-178q-35 0 -49.5 -18.5t-14.5 -46.5v-179z" />
<glyph unicode="k" horiz-adv-x="1362" d="M1226 1241q9 10 10 21t-4 21.5t-16 17.5t-27 7h-216q-18 0 -33 -4t-33 -24l-469 -497v863q0 42 -39 41h-217q-39 0 -39 -41v-1604q0 -42 39 -42h217q39 0 39 42v395l127 128l407 -528q16 -21 27.5 -29t28.5 -8h254q12 0 22 6t15 16t3.5 22.5t-12.5 24.5l-555 687z" />
<glyph unicode="l" horiz-adv-x="581" d="M143 45q0 -45 44 -45h208q21 0 32 12.5t11 32.5v1597q0 19 -11.5 31.5t-31.5 12.5h-208q-19 0 -31.5 -11.5t-12.5 -32.5v-1597z" />
<glyph unicode="m" horiz-adv-x="2195" d="M439 769q0 71 26.5 123t66 85t86.5 48.5t88 15.5q61 0 108 -24.5t79.5 -63t49.5 -86.5t17 -96v-728q0 -43 43 -43h208q41 0 40 43v738q0 54 21.5 101t57.5 82t84 55.5t101 20.5q63 0 111.5 -24t81.5 -63t50 -87.5t17 -98.5v-723q0 -44 43 -44h207q42 0 41 44v723 q0 111 -30 211t-91 176t-154.5 120t-220.5 44q-80 0 -142 -16.5t-111 -46t-88.5 -72t-73.5 -93.5q-61 118 -155 173t-223 55q-113 0 -207 -48.5t-165 -136.5l-15 122q-4 21 -21 37t-38 16h-146q-42 0 -42 -44v-1220q0 -44 42 -44h211q46 0 43 44v725z" />
<glyph unicode="n" horiz-adv-x="1393" d="M434 741q0 70 26.5 126.5t68.5 95.5t93.5 59t102.5 20q62 0 114.5 -24t90 -64t59 -91.5t21.5 -107.5v-712q0 -43 44 -43h206q41 0 40 43v722q0 146 -45 250.5t-116 171.5t-158 98.5t-170 31.5q-57 0 -113 -11.5t-108.5 -37t-100 -65t-86.5 -95.5l-17 147q-5 21 -22 37 t-39 16h-138q-44 0 -44 -44v-1220q0 -44 44 -44h188q21 0 40 11t19 33v697z" />
<glyph unicode="o" horiz-adv-x="1529" d="M94 650q0 -139 52.5 -261.5t144 -214t214 -144.5t261.5 -53q140 0 263 53t215.5 144.5t145.5 214t53 261.5t-53 261t-145.5 213t-216 144t-263.5 53q-139 0 -261.5 -53t-213.5 -143.5t-143.5 -212.5t-52.5 -262zM386 650q0 83 28 155.5t78.5 127t120.5 85.5t153 31 q84 0 155 -31.5t122 -86t79.5 -127t28.5 -154.5t-28.5 -155.5t-79 -128.5t-121.5 -87t-156 -32q-84 0 -154 32t-120 86.5t-78 128t-28 156.5z" />
<glyph unicode="p" horiz-adv-x="1578" d="M418 655q0 73 27.5 144t78 127t122.5 91t160 35q89 0 160.5 -30.5t121 -84t76 -126t26.5 -156.5t-27.5 -158.5t-78 -129t-121.5 -86t-158 -31.5q-89 0 -160 35.5t-121.5 93t-78 130t-27.5 146.5zM143 -351q0 -43 43 -43h202q41 0 41 43v513q77 -82 180.5 -129.5 t225.5 -47.5q141 0 259.5 53t204.5 144t134 213.5t48 261.5q0 147 -52 268.5t-140.5 209t-205.5 135.5t-247 48q-123 0 -231 -53t-189 -144l-22 127q-5 27 -20 43.5t-42 16.5h-146q-43 0 -43 -43v-1616z" />
<glyph unicode="q" horiz-adv-x="1578" d="M1145 655q0 -74 -27.5 -146.5t-78 -130t-122 -93t-160.5 -35.5q-86 0 -157 31.5t-121.5 86t-78.5 129t-28 158.5t27 156.5t76.5 126t121 84t159.5 30.5q89 0 161 -35t122.5 -91t78 -127t27.5 -144zM1420 1265q0 43 -43 43h-146q-28 0 -42.5 -16.5t-19.5 -43.5l-22 -126 q-81 91 -189.5 143.5t-231.5 52.5q-130 0 -246.5 -48t-205 -135.5t-140.5 -209t-52 -268.5q0 -139 48 -261.5t134 -213.5t204.5 -144t258.5 -53q123 0 226 47.5t181 129.5v-513q0 -43 40 -43h203q43 0 43 43v1616z" />
<glyph unicode="r" horiz-adv-x="1117" d="M141 43q0 -43 40 -43h210q44 0 42 43v715q0 77 22.5 132t58.5 91.5t82 53.5t93 17q37 0 70.5 -7.5t62 -20t53 -27t44.5 -28.5q18 -13 32 -13q17 0 28 17l96 135q12 16 12 32.5t-24 38.5q-16 15 -48.5 39t-77.5 46.5t-100 40t-116 17.5q-98 0 -178 -46.5t-131 -128.5 l-21 112q-6 34 -23.5 41t-38.5 7h-148q-41 0 -40 -44v-1220z" />
<glyph unicode="s" horiz-adv-x="1124" d="M85 218q70 -110 190 -175t278 -65q87 0 173.5 24.5t155 73.5t112 123.5t43.5 174.5q0 64 -20 124.5t-61.5 113.5t-107 95.5t-157.5 70.5q-68 20 -122.5 35t-93 32t-58.5 40.5t-20 61.5q0 52 43.5 87.5t128.5 35.5q82 0 133.5 -30t94.5 -79q16 -19 32 -19q15 0 28 12 l121 100q21 17 19.5 32t-15.5 33q-28 35 -66.5 72t-91 66t-118 48.5t-145.5 19.5q-106 0 -189.5 -33t-141.5 -86t-89 -118t-31 -130q0 -82 24 -146t72.5 -113.5t123 -87.5t176.5 -69q59 -17 104 -29.5t76.5 -28.5t48 -39.5t16.5 -64.5q0 -35 -20.5 -63t-52.5 -47t-71.5 -30 t-77.5 -11q-47 0 -84.5 13t-67.5 34t-54 48t-45 56q-17 23 -37 23q-13 0 -22 -8l-132 -100q-22 -21 -18 -40t16 -37z" />
<glyph unicode="t" horiz-adv-x="772" d="M499 1580q0 19 -7.5 32.5t-23.5 13.5q-3 0 -11 -3l-210 -60q-25 -6 -33 -17t-8 -32v-215h-119q-16 0 -30 -11.5t-14 -36.5v-166q0 -22 15 -33.5t29 -11.5h119v-669q0 -89 30.5 -159t84.5 -118.5t130 -74.5t166 -26q28 0 43.5 5.5t23.5 13.5t9.5 17t1.5 15v145 q0 5 -0.5 14t-5 18t-15.5 16t-31 8l-33 2q-34 2 -55.5 15t-33.5 34t-17 48t-5 58v638h147q20 0 34 11.5t14 33.5v169q0 23 -11.5 34t-31.5 11h-152v281z" />
<glyph unicode="u" horiz-adv-x="1433" d="M1002 580q0 -92 -30.5 -152.5t-73.5 -97.5t-89 -52.5t-79 -15.5q-66 0 -119.5 21.5t-92 59.5t-60.5 90t-24 115v716q0 44 -43 44h-206q-42 0 -42 -44v-722q0 -156 48 -262t122.5 -170.5t164 -93t173.5 -28.5q116 0 213.5 44.5t168.5 145.5l28 -127q4 -21 21.5 -36 t38.5 -15h137q43 0 42 44v1220q0 44 -42 44h-213q-44 0 -43 -44v-684z" />
<glyph unicode="v" horiz-adv-x="1261" d="M1242 1247q13 31 6 46t-31 15h-234q-17 0 -30 -8t-21 -30l-302 -842l-301 839q-14 41 -52 41h-209q-27 0 -39.5 -17.5t1.5 -51.5l493 -1202q9 -19 22 -28t30 -9h112q36 0 52 37z" />
<glyph unicode="w" horiz-adv-x="1974" d="M1942 1247q13 31 6 46t-31 15h-211q-36 0 -52 -38l-319 -845l-219 518l119 304q13 31 6 46t-31 15h-222q-17 0 -30.5 -8t-20.5 -30l-308 -854l-300 851q-14 41 -52 41h-209q-26 0 -39 -17.5t1 -51.5l489 -1202q16 -37 53 -37h128q17 0 30 8.5t22 28.5l234 584l236 -584 q16 -37 53 -37h121q17 0 30.5 9t22.5 28z" />
<glyph unicode="x" horiz-adv-x="1290" d="M60 81q-10 -13 -13.5 -27.5t-0.5 -26t13.5 -19.5t30.5 -8h244q18 0 31.5 9.5t23.5 26.5l252 418l252 -418q10 -17 23.5 -26.5t31.5 -9.5h245q19 0 29.5 8t13.5 19.5t-0.5 26t-13.5 27.5l-413 588l400 582q16 23 7 40t-34 17h-235q-22 0 -33 -10.5t-21 -27.5l-252 -395 l-252 395q-11 17 -21.5 27.5t-32.5 10.5h-235q-25 0 -33.5 -16.5t7.5 -40.5l400 -583z" />
<glyph unicode="y" horiz-adv-x="1335" d="M1248 1245q9 21 3 41.5t-40 20.5h-219q-37 0 -51 -39l-313 -835l-307 833q-15 41 -51 41h-193q-11 0 -21.5 -4t-17.5 -12.5t-8 -21t6 -31.5l456 -1125l-173 -442q-12 -32 -3 -50t41 -18h198q17 0 30 8.5t22 29.5z" />
<glyph unicode="z" horiz-adv-x="1255" d="M1151 1057q14 16 14 45l1 164q0 23 -8 32.5t-25 9.5h-988q-15 0 -25.5 -10.5t-10.5 -26.5v-186q0 -12 9 -23t27 -11h675l-715 -827q-7 -9 -13 -22.5t-6 -27.5v-136q0 -18 8.5 -28t27.5 -10h1010q15 0 25.5 9.5t10.5 25.5v189q0 13 -9 23.5t-27 10.5h-674z" />
<glyph unicode="{" horiz-adv-x="856" d="M112 610q0 -16 10 -23.5t24 -7.5q29 0 54 -2t43 -11.5t29 -29.5t11 -55v-363q0 -115 31 -194t78 -130t104.5 -78t109.5 -40t92 -15t54 -2q31 0 31 31v239q0 16 -10 23t-25 7q-12 0 -41 3t-58.5 18t-52.5 47t-23 89v440q0 51 -20.5 90.5t-53.5 71.5q33 31 53.5 71.5 t20.5 91.5v440q0 43 13 72.5t37 48t56 27t71 8.5q14 0 23.5 8t9.5 23v239q0 31 -31 31q-14 0 -54 -2t-92 -15t-109.5 -40t-104.5 -78.5t-78 -130t-31 -194.5v-362q0 -34 -10.5 -54t-28.5 -29.5t-42.5 -12t-52.5 -2.5q-15 0 -26 -8t-11 -23v-217z" />
<glyph unicode="|" horiz-adv-x="571" d="M162 -355q0 -41 41 -41h164q41 0 40 41v1836q0 41 -40 40h-164q-41 0 -41 -40v-1836z" />
<glyph unicode="}" horiz-adv-x="837" d="M736.007 610q0 -16 -9.99902 -23.5q-10 -7.5 -23.999 -7.5q-28.998 0 -53.9971 -2q-24.998 -2 -42.9971 -11.5t-28.998 -29.5t-10.999 -55v-363q0 -115 -30.998 -194t-77.9961 -130q-46.9971 -51 -104.493 -78t-109.493 -40t-91.9941 -15q-39.998 -2 -53.9971 -2 q-30.998 0 -30.998 31v239q0 16 9.99902 23q10 7 24.999 7q11.999 0 40.9971 3t58.4971 18q29.498 15 52.4961 47q22.999 32 22.999 89v440q0 51 20.499 90.5q20.498 39.5 53.4961 71.5q-32.998 31 -53.4961 71.5q-20.499 40.5 -20.499 91.5v440q0 43 -12.999 72.5 q-13 29.5 -36.998 48q-23.999 18.5 -55.9971 27t-70.9951 8.5q-13.999 0 -23.499 8q-9.49902 8 -9.49902 23v239q0 31 30.998 31q13.999 0 53.9971 -2q39.9971 -2 91.9941 -15t109.493 -40t104.493 -78.5q46.998 -51.5 77.9961 -130t30.998 -194.5v-362q0 -34 10.499 -54 t28.498 -29.5t42.498 -12q24.498 -2.5 52.4961 -2.5q14.999 0 25.999 -8q10.999 -8 10.999 -23v-217z" />
<glyph unicode="~" horiz-adv-x="944" d="M268 480q10 12 20 23.5t22 21t26.5 16t33.5 6.5q27 0 54 -15.5t57 -34t62.5 -34t69.5 -15.5q68 0 125 34.5t99 98.5q5 9 7.5 20t-11.5 25l-66 67q-14 14 -30 14q-19 0 -37 -22q-20 -25 -42 -41t-51 -16q-23 0 -50.5 15.5t-58.5 33.5t-64.5 33.5t-69.5 16.5 q-62 0 -115 -30.5t-93 -88.5q-10 -13 -16 -21.5t-7 -15.5t4.5 -14t17.5 -18l47 -46q9 -9 20.5 -17t22.5 -8q12 0 23 12z" />
<glyph unicode="&#xa1;" horiz-adv-x="628" d="M179 812q0 19 11 30t31 11h216q39 0 40 -42v-1151q0 -42 -40 -42h-216q-20 0 -31 11.5t-11 30.5v1152zM172 1261q0 13 4.5 21t11 12.5t14 6t11.5 1.5h230q5 0 12.5 -1.5t14 -5.5t11 -12.5t4.5 -21.5v-230q0 -5 -1.5 -12.5t-6 -14t-12.5 -11t-22 -4.5h-230q-15 0 -28 11 t-13 34v227z" />
<glyph unicode="&#xa2;" horiz-adv-x="1277" d="M861 -218q16 0 23.5 11t7.5 21v181q81 18 153.5 54t124.5 82q30 26 8 60l-105 152q-10 13 -26 13q-14 0 -25 -9q-25 -19 -55 -37.5t-65 -33t-74 -23t-80 -8.5q-81 0 -151 30.5t-122.5 84t-82 128t-29.5 162.5q0 90 32.5 164.5t85.5 128.5t123.5 84.5t145.5 30.5 q71 0 139 -23t139 -74q10 -9 25 -8q16 0 24 11l105 162q6 11 5 23t-16 23q-65 50 -132 84.5t-147 50.5v181q0 13 -8.5 22.5t-22.5 9.5h-238q-31 0 -31 -31v-188q-109 -27 -202 -86.5t-162 -145.5t-108.5 -192.5t-39.5 -225.5q0 -124 39 -232t107 -193t162 -144.5t204 -84.5 v-182q0 -15 8.5 -24t23.5 -9h237z" />
<glyph unicode="&#xa3;" horiz-adv-x="1230" d="M448 1023q0 50 23.5 96t61 81.5t85 57t95.5 21.5q49 0 87 -8.5t67.5 -21.5t52 -28t39.5 -27q9 -5 18.5 -10.5t19.5 -5.5t20 5.5t20 20.5l80 141q6 12 4 23t-9 20.5t-16 17t-14 12.5q-78 59 -171.5 93.5t-215.5 34.5q-102 0 -200 -38.5t-175 -107.5t-124 -164t-47 -208 v-987q0 -41 40 -41h900q42 0 42 41v196q0 39 -42 39h-641v316h278q14 0 23 8.5t9 22.5v189q0 32 -31 32h-279v179z" />
<glyph unicode="&#xa4;" horiz-adv-x="1104" d="M377 698q0 36 12.5 68t35.5 55.5t54.5 37.5t67.5 14t67.5 -14t55 -38t37 -55.5t13.5 -67.5q0 -35 -13.5 -67t-37 -56t-55 -37.5t-67.5 -13.5t-67.5 13.5t-54.5 37t-35.5 55.5t-12.5 68zM175 692q0 -44 9 -83.5t26 -77.5l-86 -86q-11 -11 -11 -23.5t11 -22.5l134 -127 q10 -10 21 -10q12 0 24 10l83 82q37 -18 79.5 -28t87.5 -10q85 0 163 36l82 -80q10 -10 22 -10q13 0 23 10l133 127q12 10 11.5 22.5t-11.5 23.5l-82 82q39 77 39 165q0 46 -10.5 88.5t-29.5 81.5l84 87q9 9 10 22.5t-9 22.5l-136 127q-10 11 -22 11t-22 -11l-85 -86 q-37 17 -77 26t-83 9q-45 0 -85.5 -9.5t-78.5 -27.5l-86 88q-11 11 -22 11q-12 0 -23 -11l-135 -127q-11 -10 -10 -23t11 -22l88 -94q-37 -74 -37 -163z" />
<glyph unicode="&#xa5;" horiz-adv-x="1400" d="M303 634q0 -17 11 -25t23 -8h225v-106h-225q-13 0 -23.5 -9t-10.5 -27v-114q0 -17 11 -25.5t23 -8.5h225v-269q0 -42 41 -42h218q41 0 41 42v269h238q16 0 26 9.5t10 24.5v116q0 34 -33 34h-241v106h238q16 0 26 9t10 24v116q0 34 -33 34h-159l412 691q12 20 2 33t-29 13 h-255q-31 0 -50 -37l-313 -588l-306 588q-19 37 -50 37h-255q-19 0 -28.5 -13t2.5 -33l406 -691h-143q-13 0 -23.5 -9t-10.5 -27v-114z" />
<glyph unicode="&#xa6;" horiz-adv-x="612" d="M189 710q0 -41 40 -40h144q39 0 40 40v771q0 41 -40 40h-144q-41 0 -40 -40v-771zM189 -353q0 -41 40 -41h144q39 0 40 41v769q0 42 -40 42h-144q-41 0 -40 -42v-769z" />
<glyph unicode="&#xa7;" horiz-adv-x="1095" d="M558 607q-55 9 -93 23.5t-61 34t-33 40t-10 40.5q0 39 19 66t48.5 43.5t65 24t68.5 7.5q23 0 43 -3q34 -10 63.5 -21t50.5 -27t33.5 -38t12.5 -51q0 -41 -20.5 -68t-51 -42.5t-66.5 -22t-69 -6.5zM828 1246q16 -22 34 -23q6 0 13 4l85 59q15 10 17 21.5t-14 33.5 q-34 52 -73 92.5t-86.5 68t-104 41t-126.5 13.5q-77 0 -144 -19.5t-119 -56t-86.5 -88.5t-47.5 -116q-9 -46 -3 -88t25 -79t47 -67.5t64 -54.5q-73 -37 -111 -99.5t-38 -146.5q0 -61 25 -108.5t72.5 -86t117 -68.5t158.5 -55q43 -11 84 -24.5t73 -32t52 -43t20 -55.5 q0 -43 -21.5 -74t-54.5 -51t-71 -30.5t-72 -10.5q-39 0 -77 12.5t-70.5 33.5t-60 48.5t-45.5 57.5q-7 12 -15 16t-16 4q-6 0 -12 -2.5t-10 -4.5l-92 -65q-7 -4 -11 -15t7 -29q35 -63 84 -107.5t103 -72.5t109 -41t103 -13q76 0 145 20t124 56.5t92.5 89.5t49.5 119 q17 94 -20.5 169t-111.5 127q67 37 107 98.5t40 145.5q0 58 -19.5 104t-61.5 84t-107 69.5t-155 58.5q-43 13 -88 25.5t-82.5 29t-61.5 40t-24 57.5q0 39 18 69t47 51t65 31.5t73 10.5q31 0 64.5 -7t67 -22.5t66 -41t60.5 -62.5z" />
<glyph unicode="&#xa8;" horiz-adv-x="930" d="M138 1356q0 -28 13 -38t38 -10h142q23 0 36 9.5t13 39.5v141q0 25 -11 38.5t-38 13.5h-142q-29 0 -40 -15t-11 -37v-142zM550 1356q0 -28 13.5 -38t38.5 -10h141q23 0 36.5 9.5t13.5 39.5v141q0 25 -11 38.5t-39 13.5h-141q-29 0 -40.5 -15t-11.5 -37v-142z" />
<glyph unicode="&#xa9;" horiz-adv-x="1890" d="M295 754q0 123 49.5 238.5t136 206t206 144.5t260.5 54q122 0 235.5 -47t201.5 -130t141 -198t53 -252q0 -124 -50 -240.5t-136.5 -206.5t-204.5 -144.5t-255 -54.5q-128 0 -243 48.5t-202.5 133.5t-139.5 200.5t-52 247.5zM1232 1155q-61 43 -132.5 63.5t-149.5 20.5 q-99 0 -187 -37.5t-153.5 -102.5t-104 -153t-38.5 -189t38 -189t103 -153.5t153 -103t187 -37.5q79 0 154 22.5t135 67.5q33 22 12 57l-66 110q-11 17 -26 17q-9 0 -20 -6q-47 -30 -89.5 -39t-82.5 -9q-54 1 -102 19.5t-84 53t-57 82.5t-21 106q0 51 19 98.5t54 83.5t83 57 t105 21q39 0 82 -9t94 -37q14 -7 24 -8q9 0 14 5.5t11 15.5l67 120q10 16 3 28.5t-25 24.5zM100 764q0 -115 30 -222t84.5 -199.5t130.5 -169t169 -131t199.5 -84t220.5 -29.5q115 0 222.5 29.5t200.5 84t169 131t130.5 169t84.5 198.5t30 221q0 116 -30 222.5t-85 199.5 t-131 169t-168.5 130.5t-199 84.5t-220.5 30q-115 0 -222.5 -30t-200.5 -84.5t-169 -130.5t-130.5 -169t-84.5 -199.5t-30 -220.5z" />
<glyph unicode="&#xaa;" horiz-adv-x="1046" d="M293 1156q0 42 15.5 77.5t42 62.5t62 42.5t77.5 15.5t77.5 -15.5t62 -43t42 -63t15.5 -76.5q0 -42 -15.5 -78t-42 -62t-62.5 -41.5t-77 -15.5q-42 0 -77.5 15.5t-62 41.5t-42 62t-15.5 78zM730 819q0 -7 5 -20t23 -13h123q17 0 22.5 10.5t5.5 19.5l-2 676q0 18 -10.5 24 t-21.5 6h-93q-15 0 -22.5 -7.5t-9.5 -22.5l-11 -86q-46 63 -105 96.5t-150 33.5q-77 1 -144.5 -29t-118 -81.5t-80.5 -121t-30 -149.5q0 -79 30 -148t81.5 -121t121 -82t148.5 -30q60 0 100.5 13.5t67.5 32t43 39.5t27 36v-76z" />
<glyph unicode="&#xab;" horiz-adv-x="1458" d="M98.084 614q0 -9 2.5 -13t11.499 -12l555.966 -553q11 -13 27.999 -13q12.999 0 21.998 9l111.993 110q12 12 12.999 28.5q1 16.5 -11.999 28.5l-419.975 414l419.975 416q12.999 12 11.499 29q-1.49902 17 -12.499 29l-111.993 109q-9.99902 10 -21.998 9 q-9 0 -15.999 -3.5q-7 -3.5 -12 -8.5l-555.966 -554q-8.99902 -9 -11.499 -12.5t-2.5 -12.5zM655.05 614q0 -9 2.5 -13t11.499 -12l526.968 -537q11 -13 27.999 -13q12.999 0 21.998 9l111.993 110q11.999 12 12.999 28.5t-10.999 28.5l-392.976 398l387.976 393 q12 12 10.5 29t-13.499 28l-111.993 109q-10 10 -20.999 10q-9 0 -15.999 -4q-7 -4 -12.999 -9l-520.969 -530q-8.99902 -9 -11.499 -12.5t-2.5 -12.5z" />
<glyph unicode="&#xac;" horiz-adv-x="1190" d="M813 646v-278q0 -18 13 -29.5t35 -11.5l159 2q16 0 25 12t9 27v457q0 21 -11.5 30.5t-30.5 9.5h-855q-27 0 -34.5 -16.5t-7.5 -33.5l1 -137q1 -16 12.5 -24t28.5 -8h656z" />
<glyph unicode="&#xad;" horiz-adv-x="1109" d="M182 551q0 -23 15.5 -33.5t31.5 -10.5h671q22 0 36.5 11.5t14.5 32.5v142q0 48 -45 48h-677q-17 0 -32 -12.5t-15 -37.5v-140z" />
<glyph unicode="&#xae;" horiz-adv-x="1885" d="M326 767q0 131 47 245.5t130 200t195 135t242 49.5q131 0 246.5 -45t202 -128.5t136.5 -199.5t50 -257q0 -131 -50 -246.5t-136.5 -201t-202 -135.5t-246.5 -50q-130 0 -242 50t-195 135.5t-130 201t-47 246.5zM989 1046q28 0 50 -9.5t39 -26t26.5 -38.5t9.5 -46 q0 -51 -35.5 -85t-89.5 -34h-163v239h163zM105 768q0 -116 30 -224.5t85 -202.5t132 -170.5t171 -132t202 -85.5t224 -30q117 0 225.5 30t202.5 85.5t171 132t131.5 170.5t85 202.5t30.5 224.5q0 117 -30.5 225t-85 202t-131.5 171t-171 132t-202 85.5t-226 30.5 q-116 0 -224 -30.5t-202 -85.5t-171 -132t-132 -171t-85 -202.5t-30 -224.5zM626 361q0 -27 26 -27h147q27 0 27 27v275h138l143 -279q6 -12 13 -16.5t17 -4.5h150q13 0 18 10.5t0 19.5l-156 300q37 18 67.5 44.5t53 59.5t34.5 70.5t12 76.5q0 55 -20 106.5t-56.5 91 t-87 63.5t-110.5 24h-393q-12 0 -17.5 -7t-5.5 -15v-819z" />
<glyph unicode="&#xaf;" horiz-adv-x="1017" d="M90 1367q0 -17 10.5 -23.5t21.5 -6.5h762q14 0 23 8t9 22v122q0 31 -31 31h-762q-15 0 -24 -9t-9 -24v-120z" />
<glyph unicode="&#xb0;" horiz-adv-x="665" d="M111 1157q0 -46 17.5 -86.5t47.5 -70t70.5 -47.5t86.5 -18t86.5 18t70 47.5t47.5 70t18 86.5t-18 86.5t-47.5 71t-70 48t-86.5 17.5t-86.5 -17.5t-70.5 -48t-47.5 -71t-17.5 -86.5zM234 1156q0 41 28 69.5t69 28.5q43 0 71 -28t28 -70q0 -41 -29 -69.5t-70 -28.5 t-69 28.5t-28 69.5z" />
<glyph unicode="&#xb1;" horiz-adv-x="1017" d="M590 356q17 0 24 11t7 21v239h232q14 0 23.5 8.5t9.5 22.5v168q0 31 -31 31h-234v247q0 13 -8 22.5t-23 9.5h-183q-31 0 -30 -31v-248h-229q-15 0 -24 -9t-9 -23v-167q0 -16 10 -23.5t21 -7.5h231v-237q0 -15 8.5 -24.5t23.5 -9.5h181zM832 0q21 0 31.5 13.5t10.5 29.5 v147q0 19 -12 29.5t-30 10.5h-675q-11 0 -26 -7.5t-15 -36.5v-147q0 -39 41 -39h675z" />
</font>
</defs>
</svg>
